<svg xmlns="http://www.w3.org/2000/svg" xmlns:xlink="http://www.w3.org/1999/xlink" width="52" height="48" viewBox="0 0 52 48">
    <defs>
        <filter id="a" width="109%" height="107.4%" x="-4.5%" y="-2.6%" filterUnits="objectBoundingBox">
            <feOffset dy="2" in="SourceAlpha" result="shadowOffsetOuter1"/>
            <feGaussianBlur in="shadowOffsetOuter1" result="shadowBlurOuter1" stdDeviation="2"/>
            <feColorMatrix in="shadowBlurOuter1" result="shadowMatrixOuter1" values="0 0 0 0 0 0 0 0 0 0 0 0 0 0 0 0 0 0 0.05 0"/>
            <feMerge>
                <feMergeNode in="shadowMatrixOuter1"/>
                <feMergeNode in="SourceGraphic"/>
            </feMerge>
        </filter>
        <path id="b" d="M9 30.99c0-1.099.897-1.99 1.997-1.99h38.006c1.103 0 1.997.898 1.997 1.99v16.02c0 1.099-.897 1.99-1.997 1.99H10.997A1.999 1.999 0 0 1 9 47.01V30.99z"/>
        <rect id="c" width="12" height="12" x="24" y="11" rx="1"/>
        <path id="d" d="M8 16.995A2 2 0 0 1 10.005 15h39.99c1.107 0 2.005.902 2.005 1.995V32.99A3.004 3.004 0 0 1 48.993 36H11.007A3.007 3.007 0 0 1 8 32.991V16.995z"/>
        <rect id="e" width="8" height="9" x="14" y="31" rx="2"/>
        <rect id="f" width="8" height="9" x="38" y="31" rx="2"/>
    </defs>
    <g fill="none" fill-rule="evenodd" filter="url(#a)" transform="translate(-4 -7)">
        <use fill="#FFF" xlink:href="#b"/>
        <path stroke="#354959" d="M9.5 30.99c0-.821.672-1.49 1.497-1.49h38.006c.824 0 1.497.672 1.497 1.49v16.02c0 .821-.672 1.49-1.497 1.49H10.997A1.499 1.499 0 0 1 9.5 47.01V30.99z"/>
        <rect width="14" height="12" x="23" y="10" stroke="#AEC8CF" stroke-width="2" rx="2"/>
        <rect width="14" height="12" x="23" y="10" stroke="#354959" stroke-width="2" rx="2"/>
        <rect width="12" height="11" x="24" y="11" stroke="#B9D5EA" stroke-width="2" rx="1"/>
        <use fill="#FFF" xlink:href="#c"/>
        <rect width="11" height="11" x="24.5" y="11.5" stroke="#354959" rx="1"/>
        <use fill="#FFF" xlink:href="#d"/>
        <path stroke="#354959" d="M8.5 16.995a1.5 1.5 0 0 1 1.505-1.495h39.99c.828 0 1.505.675 1.505 1.495V32.99a2.504 2.504 0 0 1-2.507 2.509H11.007A2.507 2.507 0 0 1 8.5 32.991V16.995z"/>
        <g>
            <use fill="#B9D5EA" xlink:href="#e"/>
            <rect width="7" height="8" x="14.5" y="31.5" stroke="#354959" rx="2"/>
        </g>
        <g>
            <use fill="#B9D5EA" xlink:href="#f"/>
            <rect width="7" height="8" x="38.5" y="31.5" stroke="#354959" rx="2"/>
        </g>
    </g>
</svg>
