<?xml version="1.0" encoding="UTF-8"?>
<svg width="34px" height="44px" viewBox="0 0 34 44" version="1.1" xmlns="http://www.w3.org/2000/svg" xmlns:xlink="http://www.w3.org/1999/xlink">
    <!-- Generator: Sketch 49 (51002) - http://www.bohemiancoding.com/sketch -->
    <title>arxiu_pdf_34x44px</title>
    <desc>Created with Sketch.</desc>
    <defs></defs>
    <g id="arxiu_pdf_34x44px" stroke="none" stroke-width="1" fill="none" fill-rule="evenodd">
        <g id="certificats_icon" transform="translate(3.000000, 3.000000)">
            <g id="sheet">
                <path d="M20,1 L27,8 L21.0769231,8 C20.3589744,8 20,7.64102564 20,6.92307692 C20,6.20512821 20,4.23076923 20,1 Z" id="Line-2" fill="#B9D5EA"></path>
                <path d="M27.5,8.20710678 L19.7928932,0.5 L1.5514383,0.5 C0.978150402,0.5 0.5,0.998597171 0.5,1.62065638 L0.5,36.3793436 C0.5,37.0030211 0.977031927,37.5 1.55532788,37.5 L26.4446721,37.5 C27.0252251,37.5 27.5,37.0038679 27.5,36.3777429 L27.5,8.20710678 Z" id="Rectangle-4" stroke="#354959"></path>
                <path d="M20,1 L20,7 C19.827957,7.66666667 20.1612903,8 21,8 C21.8387097,8 23.8387097,8 27,8 L27,36.1219512 C27,36.7073171 26.7204301,37 26.1612903,37 C25.6021505,37 17.4946237,37 1.83870968,37 C1.27956989,37 1,36.7073171 1,36.1219512 C1,35.5365854 1,24.1219512 1,1.87804878 C1,1.29268293 1.27956989,1 1.83870968,1 C2.39784946,1 8.4516129,1 20,1 Z" id="Line-3" fill="#FFFFFF"></path>
                <path d="M26.7928932,8.5 L19.5,1.20710678 L19.5,7.09547181 C19.5,7.86969912 20.1291506,8.5 20.9028181,8.5 L26.7928932,8.5 Z" id="Path" stroke="#354959"></path>
            </g>
        </g>
        <path d="M9.48161765,20 C10.2843177,20 10.9047159,20.2149312 11.3428309,20.6448 C11.7809458,21.0746688 12,21.6778627 12,22.4543999 C12,23.2656039 11.779414,23.8947976 11.3382353,24.3419998 C10.8970566,24.7892021 10.2781903,25.0127998 9.48161765,25.0127998 L8,25.0127998 L8,27 L7,27 L7,20 L9.48161765,20 Z M9.29044118,24.0194805 C9.84191452,24.0194805 10.2647044,23.891235 10.5588235,23.6347403 C10.8529426,23.3782455 11,23.0000025 11,22.5 C11,22.0129846 10.8529426,21.6444818 10.5588235,21.3944805 C10.2647044,21.1444793 9.84191452,21.0194805 9.29044118,21.0194805 L8,21 L8,24 L9.29044118,24.0194805 Z" id="P" fill="#354959"></path>
        <path d="M16.6470588,20 C17.2786409,20 17.8498426,20.1516651 18.3606811,20.455 C18.8715196,20.7583348 19.2724444,21.176664 19.5634675,21.71 C19.8544906,22.243336 20,22.8399967 20,23.5 C20,24.1600033 19.8529426,24.756664 19.5588235,25.29 C19.2647044,25.823336 18.8606837,26.2416651 18.3467492,26.545 C17.8328148,26.8483349 17.2569691,27 16.619195,27 L14,27 L14,20 L16.6470588,20 Z M16.5252848,25.9904943 C16.9867282,25.9904943 17.4054977,25.8827641 17.7816057,25.6673004 C18.1577138,25.4518367 18.454803,25.1539943 18.6728825,24.7737643 C18.8909619,24.3935342 19,23.9689504 19,23.5 C19,23.0247125 18.8893817,22.5969601 18.6681416,22.21673 C18.4469016,21.8365 18.1450716,21.5370733 17.7626424,21.3184411 C17.3802132,21.0998088 16.9551227,20.9904943 16.4873581,20.9904943 L15,20.9904943 L15,25.9904943 L16.5252848,25.9904943 Z" id="D" fill="#354959"></path>
        <polygon id="F" fill="#354959" points="22 20 27 20 27 21 23.0088 21 23.0088 23.0168001 26 23.0168001 26 24 23.0088 24 23.0088 27 22.0104 27"></polygon>
    </g>
</svg>