<?xml version="1.0" encoding="UTF-8" standalone="no"?>
<svg width="24px" height="24px" viewBox="0 0 24 24" version="1.1" xmlns="http://www.w3.org/2000/svg" xmlns:xlink="http://www.w3.org/1999/xlink">
    <!-- Generator: Sketch 43.2 (39069) - http://www.bohemiancoding.com/sketch -->
    <title>blogger</title>
    <desc>Created with Sketch.</desc>
    <defs></defs>
    <g id="Page-1" stroke="none" stroke-width="1" fill="none" fill-rule="evenodd">
        <g id="Mobile-Portrait" transform="translate(-265.000000, -3530.000000)">
            <g id="footer" transform="translate(0.000000, 2948.000000)">
                <g id="continguts_footer" transform="translate(15.000000, 62.000000)">
                    <g id="segueix-nos" transform="translate(17.000000, 520.000000)">
                        <g id="social" transform="translate(124.000000, 0.000000)">
                            <g id="blogger" transform="translate(109.000000, 0.000000)">
                                <rect id="Rectangle" x="0" y="0" width="24" height="24"></rect>
                                <path d="M12,24 C5.372583,24 0,18.627417 0,12 C0,5.372583 5.372583,0 12,0 C18.627417,0 24,5.372583 24,12 C24,18.627417 18.627417,24 12,24 Z M18.642996,10.4166875 C18.3474688,10.29025 17.0797315,10.4306875 16.7275579,10.112625 C16.4790164,9.883375 16.4632081,9.468625 16.3661627,8.9151875 C16.2036886,7.9885625 16.1360642,7.7785625 15.9670033,7.4136875 C15.3522364,6.1134375 13.8785522,5 12.5396776,5 L9.43642181,5 C6.99491876,5 5,6.9928125 5,9.424875 L5,14.5843125 C5,17.012 6.99491876,19 9.43642181,19 L14.5350354,19 C16.9765385,19 18.9578446,17.012 18.9718964,14.5843125 L19,11.0108125 C19,11.0108125 19,10.5689375 18.642996,10.4166875 Z M15.1166208,16 L9.88842975,16 C9.39761249,16 9,15.5442972 9,15.0002598 C9,14.449987 9.39761249,14 9.88842975,14 L15.1166208,14 C15.6023875,14 16,14.449987 16,15.0002598 C16,15.5442972 15.6023875,16 15.1166208,16 Z M9.81705901,9 L12.182941,9 C12.6343291,9 13,9.44882094 13,9.99714952 C13,10.5459964 12.6343291,11 12.182941,11 L9.81705901,11 C9.36567085,11 9,10.5459964 9,9.99714952 C9,9.44882094 9.36567085,9 9.81705901,9 Z" id="Combined-Shape" fill="#F5F5F5"></path>
                            </g>
                        </g>
                    </g>
                </g>
            </g>
        </g>
    </g>
</svg>