<?xml version="1.0" encoding="UTF-8" standalone="no"?>
<svg width="23px" height="25px" viewBox="0 0 23 25" version="1.1" xmlns="http://www.w3.org/2000/svg" xmlns:xlink="http://www.w3.org/1999/xlink">
    <!-- Generator: Sketch 43.2 (39069) - http://www.bohemiancoding.com/sketch -->
    <title>Shape Copy</title>
    <desc>Created with Sketch.</desc>
    <defs></defs>
    <g id="Page-1" stroke="none" stroke-width="1" fill="none" fill-rule="evenodd">
        <g id="Estudi-desktop" transform="translate(-197.000000, -2556.000000)" fill-rule="nonzero" fill="#284851">
            <g id="informacio_addicional" transform="translate(1.000000, 1360.000000)">
                <g id="banner_3" transform="translate(178.000000, 1184.000000)">
                    <path d="M40.4930138,15.0000614 L30.7836756,15.1717232 C30.6544221,15.1748133 30.5314091,15.2279609 30.4405348,15.3199766 L19.1480821,26.6184581 C19.0533212,26.7122673 19,26.8401029 19,26.9734797 C19,27.1068565 19.0533212,27.2346921 19.1480821,27.3285013 L28.6780637,36.8557449 C28.8725247,37.048085 29.1854568,37.048085 29.3799177,36.8557449 L40.6723703,25.5572759 C40.764344,25.4663528 40.8174681,25.3432699 40.8205573,25.2139423 L40.9999388,15.5072441 C41.0020526,15.3720914 40.9493232,15.2418532 40.8537939,15.1462753 C40.7582645,15.0506975 40.6280944,14.9979432 40.4930138,15.0000614 L40.4930138,15.0000614 Z M39.9938998,15.9988211 L39.8223294,25.003254 L29.0289907,35.8023531 L20.2009131,26.9695721 L30.9942518,16.1704829 L39.9938998,15.9988211 Z M36.2661427,17.7388478 C35.7541766,17.7388478 35.2423103,17.9361153 34.8545986,18.3240585 C34.0790754,19.0999525 34.0790754,20.3727818 34.8545986,21.1486758 C35.6300719,21.9245622 36.9022135,21.9245622 37.6776868,21.1486758 C38.453185,20.3727868 38.453185,19.0999674 37.6776868,18.3240585 C37.2899751,17.9361153 36.7781337,17.7388478 36.2661427,17.7388478 Z M36.2661427,18.7298046 C36.520591,18.7298046 36.7710214,18.8292062 36.9680216,19.0263114 C37.3620471,19.4205493 37.3620471,20.0444121 36.9680216,20.43862 C36.5740211,20.8328305 35.9504781,20.8328305 35.5564526,20.43862 C35.162452,20.0444171 35.162452,19.4205144 35.5564526,19.0263114 C35.7534528,18.8292062 36.0117193,18.7298046 36.2661427,18.7298046 Z M30.4327486,21.8431259 L30.4327486,21.8431259 C31.7912619,21.8431259 32.7306941,22.4406613 33.5210161,23.2320286 C33.6485672,23.3573941 33.6993968,23.5415091 33.6542636,23.714678 C33.6091305,23.887847 33.4749316,24.0236068 33.3024672,24.0705666 C33.1300028,24.1175263 32.9456281,24.0685098 32.8191371,23.9420718 C32.1133151,23.2353245 31.5200933,22.841888 30.4327486,22.841888 C29.0774297,22.841888 27.926498,23.6650408 27.4380651,24.8394074 L30.6743947,24.8394074 C30.9498057,24.8394074 31.1735086,25.0630048 31.1735086,25.3387873 C31.1735086,25.6146047 30.9498057,25.8381771 30.6743947,25.8381771 L27.2039806,25.8381771 C27.1977417,25.9221728 27.1885081,26.0021734 27.1885081,26.087867 C27.1885081,26.257806 27.2025083,26.424499 27.2274889,26.5872469 L30.6745194,26.5872469 C30.9499055,26.5872469 31.1736334,26.8108442 31.1736334,27.0866267 C31.1736334,27.3624342 30.9499055,27.5860066 30.6745194,27.5860066 L27.5550574,27.5860066 C28.0952733,28.6270887 29.1745074,29.333836 30.4327486,29.333836 C31.5200933,29.333836 32.1133401,28.9326093 32.8192619,28.225837 C32.9457529,28.099399 33.1301276,28.0503825 33.302592,28.0973422 C33.4750564,28.144302 33.6092553,28.2800618 33.6543884,28.4532307 C33.6995216,28.6263997 33.648692,28.8105147 33.5211408,28.9358802 C32.7308439,29.7272475 31.7913617,30.3325957 30.4328734,30.3325957 C28.6216638,30.3325957 27.0790774,29.1895402 26.4711566,27.5860066 L25.6912911,27.5860066 C25.41588,27.5860066 25.1921772,27.3624342 25.1921772,27.0866267 C25.1921772,26.8108442 25.41588,26.5872469 25.6912911,26.5872469 L26.2215997,26.5872469 C26.2023838,26.424499 26.190405,26.2556337 26.190405,26.087867 C26.190405,26.0027977 26.2008864,25.922048 26.2058776,25.8381771 L25.6911663,25.8381771 C25.4157303,25.8381771 25.1920524,25.6146047 25.1920524,25.3387873 C25.1920524,25.0630048 25.4157303,24.8394074 25.6911663,24.8394074 L26.3852342,24.8394074 C26.9224804,23.1094558 28.5310747,21.8431259 30.4327486,21.8431259 Z M21.266,12.394 L22.163,12.394 L22.163,14.924 L24.348,13.659 L24.785,14.464 L22.577,15.706 L24.785,16.971 L24.348,17.799 L22.14,16.511 L22.163,19.041 L21.266,19.041 L21.289,16.488 L19.081,17.776 L18.644,16.971 L20.829,15.706 L18.644,14.464 L19.081,13.636 L21.266,14.924 L21.266,12.394 Z" id="Shape-Copy"></path>
                </g>
            </g>
        </g>
    </g>
</svg>