<?xml version="1.0" encoding="UTF-8" standalone="no"?>
<svg width="21px" height="21px" viewBox="0 0 21 21" version="1.1" xmlns="http://www.w3.org/2000/svg" xmlns:xlink="http://www.w3.org/1999/xlink">
    <defs></defs>
    <g id="Page-1" stroke="none" stroke-width="1" fill="none" fill-rule="evenodd">
        <g id="Main-page" transform="translate(-880.000000, -3234.000000)" fill-rule="nonzero" fill="#FFFFFF">
            <g id="footer" transform="translate(0.000000, 2921.000000)">
                <g id="footer_com_arribar" transform="translate(877.000000, 45.000000)">
                    <g id="bus_icon" transform="translate(3.000000, 268.000000)">
                        <path d="M1.34499471,18.9825079 L2.35374074,18.9825079 L2.35374074,20.6637513 C2.35374074,20.848278 2.50546271,21 2.68998942,21 L5.37587824,21 C5.56040496,21 5.71212692,20.848278 5.71212692,20.6637513 L5.71212692,18.9825079 L15.1188887,18.9825079 L15.1188887,20.6637513 C15.1188887,20.848278 15.2706107,21 15.4551374,21 L18.1410262,21 C18.3255529,21 18.4772749,20.848278 18.4772749,20.6637513 L18.4772749,18.9825079 L19.4860209,18.9825079 L19.4860209,0.168984375 L1.34499471,0.168984375 L1.34499471,18.9825079 Z M5.03962957,20.3275026 L3.0221375,20.3275026 L3.0221375,18.9825079 L5.03962957,18.9825079 L5.03962957,20.3275026 Z M17.8088781,20.3275026 L15.7913861,20.3275026 L15.7913861,18.9825079 L17.8088781,18.9825079 L17.8088781,20.3275026 Z M2.01749206,0.84148173 L18.8176242,0.84148173 L18.8176242,18.3141112 L2.01749206,18.3141112 L2.01749206,0.84148173 Z" id="Shape"></path>
                        <path d="M2.68588883,12.2657356 L18.1410262,12.2657356 L18.1410262,4.19986791 L2.68588883,4.19986791 L2.68588883,12.2657356 Z M3.35838618,4.87236527 L17.4685289,4.87236527 L17.4685289,11.5932382 L3.35838618,11.5932382 L3.35838618,4.87236527 Z" id="Shape"></path>
                        <path d="M5.37587824,13.270381 C4.26461737,13.270381 3.35838618,14.1766122 3.35838618,15.2878731 C3.35838618,16.399134 4.26461737,17.3053651 5.37587824,17.3053651 C6.48713912,17.3053651 7.39337031,16.399134 7.39337031,15.2878731 C7.39337031,14.1766122 6.48713912,13.270381 5.37587824,13.270381 Z M5.37587824,16.6328678 C4.6336708,16.6328678 4.03088354,16.0300805 4.03088354,15.2878731 C4.03088354,14.5456656 4.6336708,13.9428784 5.37587824,13.9428784 C6.11808569,13.9428784 6.72087295,14.5456656 6.72087295,15.2878731 C6.72087295,16.0300805 6.11808569,16.6328678 5.37587824,16.6328678 Z" id="Shape"></path>
                        <path d="M15.4551374,13.270381 C14.3438765,13.270381 13.4376453,14.1766122 13.4376453,15.2878731 C13.4376453,16.399134 14.3438765,17.3053651 15.4551374,17.3053651 C16.5663983,17.3053651 17.4726294,16.399134 17.4726294,15.2878731 C17.4726294,14.1766122 16.5663983,13.270381 15.4551374,13.270381 Z M15.4551374,16.6328678 C14.7129299,16.6328678 14.1101427,16.0300805 14.1101427,15.2878731 C14.1101427,14.5456656 14.7129299,13.9428784 15.4551374,13.9428784 C16.1973448,13.9428784 16.8001321,14.5456656 16.8001321,15.2878731 C16.8001321,16.0300805 16.1973448,16.6328678 15.4551374,16.6328678 Z" id="Shape"></path>
                        <rect id="Rectangle-path" x="8.06176707" y="14.9516244" width="4.70338089" height="1"></rect>
                        <rect id="Rectangle-path" x="0" y="7.22610601" width="1" height="3.35838618"></rect>
                        <rect id="Rectangle-path" x="20.1585183" y="7.22610601" width="1" height="3.35838618"></rect>
                        <rect id="Rectangle-path" x="6.38462428" y="2.18647644" width="8.06176707" height="1"></rect>
                    </g>
                </g>
            </g>
        </g>
    </g>
</svg>