<svg xmlns="http://www.w3.org/2000/svg" width="23" height="20" viewBox="0 0 23 20">
    <path fill="#01C1B9" fill-rule="nonzero" d="M20.946 1.538h-2.875V.385c0-.231-.164-.385-.41-.385-.247 0-.411.154-.411.385v1.153h-3.286V.385c0-.231-.164-.385-.41-.385-.247 0-.411.154-.411.385v1.153H9.857V.385c0-.231-.164-.385-.41-.385-.247 0-.411.154-.411.385v1.153H5.75V.385C5.75.154 5.586 0 5.34 0c-.247 0-.411.154-.411.385v1.153H2.054C.904 1.538 0 2.385 0 3.462v14.615C0 19.154.904 20 2.054 20h18.892c1.15 0 2.054-.846 2.054-1.923V3.462c0-1.077-.904-1.924-2.054-1.924zm-18.963.684H4.88v1.111c0 .223.165.37.413.37.249 0 .414-.147.414-.37v-1.11h3.31v1.11c0 .223.166.37.414.37.248 0 .414-.147.414-.37v-1.11h3.31v1.11c0 .223.166.37.414.37.248 0 .414-.147.414-.37v-1.11h3.31v1.11c0 .223.165.37.414.37.248 0 .413-.147.413-.37v-1.11h2.897c.703 0 1.241.48 1.241 1.11v2.593H.742V3.333c0-.63.538-1.11 1.241-1.11zM21.017 19.26H1.983c-.703 0-1.241-.511-1.241-1.18V6.667h21.516v11.412c0 .669-.538 1.18-1.241 1.18z"/>
</svg>
