<?xml version="1.0" encoding="UTF-8" standalone="no"?>
<svg width="76px" height="73px" viewBox="0 0 76 73" version="1.1" xmlns="http://www.w3.org/2000/svg" xmlns:xlink="http://www.w3.org/1999/xlink">
    <!-- Generator: Sketch 43.2 (39069) - http://www.bohemiancoding.com/sketch -->
    <title>calendari_gran_icon</title>
    <desc>Created with Sketch.</desc>
    <defs></defs>
    <g id="Page-1" stroke="none" stroke-width="1" fill="none" fill-rule="evenodd">
        <g id="Estudi-desktop" transform="translate(-773.000000, -295.000000)">
            <g id="presentacio" transform="translate(0.000000, 212.000000)">
                <g id="requadre_dates" transform="translate(615.000000, 84.000000)">
                    <g id="calendari_gran_icon" transform="translate(159.000000, 0.000000)">
                        <ellipse id="Oval-4" stroke="#BFFFF7" stroke-width="2" fill="#FFFFFF" cx="37" cy="35.5" rx="37" ry="35.5"></ellipse>
                        <path d="M53.3392857,19.7692308 L48.2142857,19.7692308 L48.2142857,17.6923077 C48.2142857,17.2769231 47.9214286,17 47.4821429,17 C47.0428571,17 46.75,17.2769231 46.75,17.6923077 L46.75,19.7692308 L40.8928571,19.7692308 L40.8928571,17.6923077 C40.8928571,17.2769231 40.6,17 40.1607143,17 C39.7214286,17 39.4285714,17.2769231 39.4285714,17.6923077 L39.4285714,19.7692308 L33.5714286,19.7692308 L33.5714286,17.6923077 C33.5714286,17.2769231 33.2785714,17 32.8392857,17 C32.4,17 32.1071429,17.2769231 32.1071429,17.6923077 L32.1071429,19.7692308 L26.25,19.7692308 L26.25,17.6923077 C26.25,17.2769231 25.9571429,17 25.5178571,17 C25.0785714,17 24.7857143,17.2769231 24.7857143,17.6923077 L24.7857143,19.7692308 L19.6607143,19.7692308 C17.6107143,19.7692308 16,21.2923077 16,23.2307692 L16,49.5384615 C16,51.4769231 17.6107143,53 19.6607143,53 L53.3392857,53 C55.3892857,53 57,51.4769231 57,49.5384615 L57,23.2307692 C57,21.2923077 55.3892857,19.7692308 53.3392857,19.7692308 Z M19.6607143,21.1538462 L24.7857143,21.1538462 L24.7857143,23.2307692 C24.7857143,23.6461538 25.0785714,23.9230769 25.5178571,23.9230769 C25.9571429,23.9230769 26.25,23.6461538 26.25,23.2307692 L26.25,21.1538462 L32.1071429,21.1538462 L32.1071429,23.2307692 C32.1071429,23.6461538 32.4,23.9230769 32.8392857,23.9230769 C33.2785714,23.9230769 33.5714286,23.6461538 33.5714286,23.2307692 L33.5714286,21.1538462 L39.4285714,21.1538462 L39.4285714,23.2307692 C39.4285714,23.6461538 39.7214286,23.9230769 40.1607143,23.9230769 C40.6,23.9230769 40.8928571,23.6461538 40.8928571,23.2307692 L40.8928571,21.1538462 L46.75,21.1538462 L46.75,23.2307692 C46.75,23.6461538 47.0428571,23.9230769 47.4821429,23.9230769 C47.9214286,23.9230769 48.2142857,23.6461538 48.2142857,23.2307692 L48.2142857,21.1538462 L53.3392857,21.1538462 C54.5839286,21.1538462 55.5357143,22.0538462 55.5357143,23.2307692 L55.5357143,28.0769231 L17.4642857,28.0769231 L17.4642857,23.2307692 C17.4642857,22.0538462 18.4160714,21.1538462 19.6607143,21.1538462 Z M53.3392857,51.6153846 L19.6607143,51.6153846 C18.4160714,51.6153846 17.4642857,50.7153846 17.4642857,49.5384615 L17.4642857,29.4615385 L55.5357143,29.4615385 L55.5357143,49.5384615 C55.5357143,50.7153846 54.5839286,51.6153846 53.3392857,51.6153846 Z" id="Shape" fill="#005578" fill-rule="nonzero"></path>
                    </g>
                </g>
            </g>
        </g>
    </g>
</svg>