<?xml version="1.0" encoding="UTF-8" standalone="no"?>
<svg width="23px" height="22px" viewBox="0 0 23 22" version="1.1" xmlns="http://www.w3.org/2000/svg" xmlns:xlink="http://www.w3.org/1999/xlink">
    <defs></defs>
    <g id="Page-1" stroke="none" stroke-width="1" fill="none" fill-rule="evenodd">
        <g id="Main-page" transform="translate(-605.000000, -3345.000000)" stroke="#FFFFFF" stroke-width="0.5" fill="#FFFFFF" fill-rule="nonzero">
            <g id="footer" transform="translate(0.000000, 2921.000000)">
                <g id="footer_horari" transform="translate(53.000000, 398.000000)">
                    <g id="calendari_icon" transform="translate(553.000000, 27.000000)">
                        <path d="M20.4559255,2.05689049 L14.8943933,2.05689049 L14.8943933,0.180918728 C14.8943933,0.0809187234 14.813278,0 14.7130351,0 C14.6127922,0 14.531677,0.0809187234 14.531677,0.180918728 L14.531677,2.05689045 L6.46832304,2.05689045 L6.46832304,0.180918728 C6.46832304,0.0809187234 6.38720777,0 6.28696487,0 C6.18672198,0 6.10560671,0.0809187234 6.10560671,0.180918728 L6.10560671,2.05689045 L0.544074486,2.05689045 C0.244054259,2.05689045 0,2.30035337 0,2.59964664 L0,19.4572438 C0,19.7565371 0.244054259,20 0.544074486,20 L20.4559255,20 C20.7559457,20 21,19.7565371 21,19.4572438 L21,2.59964667 C21,2.30035337 20.7559457,2.05689049 20.4559255,2.05689049 Z M20.6372837,19.4572439 C20.6372837,19.5568905 20.5558142,19.6381626 20.4559255,19.6381626 L0.544074486,19.6381626 C0.44418582,19.6381626 0.362716324,19.5568905 0.362716324,19.4572439 L0.362716324,2.59964667 C0.362716324,2.50000004 0.44418582,2.41872795 0.544074486,2.41872795 L6.10560671,2.41872795 L6.10560671,4.29505304 C6.10560671,4.39505305 6.18672198,4.47597177 6.28696487,4.47597177 C6.38720777,4.47597177 6.46832304,4.39505305 6.46832304,4.29505304 L6.46832304,2.41872795 L14.531677,2.41872795 L14.531677,4.29505304 C14.531677,4.39505305 14.6127922,4.47597177 14.7130351,4.47597177 C14.813278,4.47597177 14.8943933,4.39505305 14.8943933,4.29505304 L14.8943933,2.41872795 L20.4559255,2.41872795 C20.5558142,2.41872795 20.6372837,2.50000004 20.6372837,2.59964667 L20.6372837,19.4572439 L20.6372837,19.4572439 Z" id="Shape"></path>
                        <path d="M18.3219208,8 L2.67807921,8 C2.57964871,8 2.5,8.1118164 2.5,8.25 C2.5,8.3881836 2.57964871,8.5 2.67807921,8.5 L18.3219208,8.5 C18.4203513,8.5 18.5,8.3881836 18.5,8.25 C18.5,8.1118164 18.4203513,8 18.3219208,8 Z" id="Shape"></path>
                    </g>
                </g>
            </g>
        </g>
    </g>
</svg>