<svg xmlns="http://www.w3.org/2000/svg" width="66" height="66" viewBox="0 0 66 66">
    <g fill="none" fill-rule="evenodd" transform="translate(1 1)">
        <circle cx="32" cy="32" r="32" fill="#FFF" stroke="#D4E9F2" stroke-width="2"/>
        <path fill="#B9D5EA" d="M18 21h29v5H18z"/>
        <path fill="#FFF" d="M18 27h29v17H18z"/>
        <path fill="#354959" fill-rule="nonzero" d="M45.232 20.077h-3.875v-1.558c0-.311-.221-.519-.553-.519-.333 0-.554.208-.554.52v1.557h-4.429v-1.558c0-.311-.221-.519-.553-.519-.332 0-.554.208-.554.52v1.557h-4.428v-1.558c0-.311-.222-.519-.554-.519-.332 0-.553.208-.553.52v1.557H24.75v-1.558c0-.311-.221-.519-.554-.519-.332 0-.553.208-.553.52v1.557h-3.875c-1.55 0-2.768 1.142-2.768 2.596v19.73C17 43.859 18.218 45 19.768 45h25.464C46.782 45 48 43.858 48 42.404v-19.73c0-1.455-1.218-2.597-2.768-2.597zM19.673 21h3.904v1.5c0 .3.223.5.558.5.334 0 .557-.2.557-.5V21h4.462v1.5c0 .3.223.5.558.5.334 0 .557-.2.557-.5V21h4.462v1.5c0 .3.223.5.557.5.335 0 .558-.2.558-.5V21h4.462v1.5c0 .3.223.5.557.5.335 0 .558-.2.558-.5V21h3.904c.948 0 1.673.65 1.673 1.5V26H18v-3.5c0-.85.725-1.5 1.673-1.5zm25.654 23H19.673C18.725 44 18 43.31 18 42.406V27h29v15.406C47 43.31 46.275 44 45.327 44z"/>
    </g>
</svg>
