<svg xmlns="http://www.w3.org/2000/svg" xmlns:xlink="http://www.w3.org/1999/xlink" width="51" height="56" viewBox="0 0 51 56">
    <defs>
        <filter id="a" width="110%" height="110%" x="-5%" y="-3.6%" filterUnits="objectBoundingBox">
            <feOffset dy="2" in="SourceAlpha" result="shadowOffsetOuter1"/>
            <feGaussianBlur in="shadowOffsetOuter1" result="shadowBlurOuter1" stdDeviation="2"/>
            <feColorMatrix in="shadowBlurOuter1" result="shadowMatrixOuter1" values="0 0 0 0 0 0 0 0 0 0 0 0 0 0 0 0 0 0 0.0522248641 0"/>
            <feMerge>
                <feMergeNode in="shadowMatrixOuter1"/>
                <feMergeNode in="SourceGraphic"/>
            </feMerge>
        </filter>
        <path id="b" d="M2 1c0-.552.44-1 .997-1h26.006c.55 0 .997.454.997 1v42H2V1z"/>
        <rect id="c" width="6" height="6" rx="1"/>
        <rect id="d" width="6" height="6" x="8" rx="1"/>
        <rect id="e" width="6" height="6" x="16" rx="1"/>
        <rect id="f" width="6" height="6" y="8" rx="1"/>
        <rect id="g" width="6" height="6" x="8" y="8" rx="1"/>
        <rect id="h" width="6" height="6" x="16" y="8" rx="1"/>
        <rect id="i" width="6" height="6" y="16" rx="1"/>
        <rect id="j" width="6" height="6" x="8" y="16" rx="1"/>
        <rect id="k" width="6" height="6" x="16" y="16" rx="1"/>
        <rect id="l" width="6" height="6" y="24" rx="1"/>
        <rect id="m" width="6" height="6" x="8" y="24" rx="1"/>
    </defs>
    <g fill="none" fill-rule="evenodd" filter="url(#a)" transform="translate(-48 -32)">
        <path stroke="#354959" stroke-linecap="round" d="M53 76.5h31.5"/>
        <g transform="translate(53 34)">
            <use fill="#FFF" xlink:href="#b"/>
            <path stroke="#354959" d="M29.5 42.5h-27V1c0-.28.219-.5.497-.5h26.006c.272 0 .497.227.497.5v41.5z"/>
        </g>
        <g>
            <g transform="translate(58 38)">
                <use fill="#B9D5EA" xlink:href="#c"/>
                <rect width="5" height="5" x=".5" y=".5" stroke="#354959" rx="1"/>
            </g>
            <g transform="translate(58 38)">
                <use fill="#B9D5EA" xlink:href="#d"/>
                <rect width="5" height="5" x="8.5" y=".5" stroke="#354959" rx="1"/>
            </g>
            <g transform="translate(58 38)">
                <use fill="#B9D5EA" xlink:href="#e"/>
                <rect width="5" height="5" x="16.5" y=".5" stroke="#354959" rx="1"/>
            </g>
            <g transform="translate(58 38)">
                <use fill="#B9D5EA" xlink:href="#f"/>
                <rect width="5" height="5" x=".5" y="8.5" stroke="#354959" rx="1"/>
            </g>
            <g transform="translate(58 38)">
                <use fill="#B9D5EA" xlink:href="#g"/>
                <rect width="5" height="5" x="8.5" y="8.5" stroke="#354959" rx="1"/>
            </g>
            <g transform="translate(58 38)">
                <use fill="#B9D5EA" xlink:href="#h"/>
                <rect width="5" height="5" x="16.5" y="8.5" stroke="#354959" rx="1"/>
            </g>
            <g transform="translate(58 38)">
                <use fill="#B9D5EA" xlink:href="#i"/>
                <rect width="5" height="5" x=".5" y="16.5" stroke="#354959" rx="1"/>
            </g>
            <g transform="translate(58 38)">
                <use fill="#B9D5EA" xlink:href="#j"/>
                <rect width="5" height="5" x="8.5" y="16.5" stroke="#354959" rx="1"/>
            </g>
            <g transform="translate(58 38)">
                <use fill="#B9D5EA" xlink:href="#k"/>
                <rect width="5" height="5" x="16.5" y="16.5" stroke="#354959" rx="1"/>
            </g>
            <g transform="translate(58 38)">
                <use fill="#B9D5EA" xlink:href="#l"/>
                <rect width="5" height="5" x=".5" y="24.5" stroke="#354959" rx="1"/>
            </g>
            <g transform="translate(58 38)">
                <use fill="#B9D5EA" xlink:href="#m"/>
                <rect width="5" height="5" x="8.5" y="24.5" stroke="#354959" rx="1"/>
            </g>
        </g>
        <g stroke="#354959">
            <path fill="#FFF" fill-rule="nonzero" d="M83.5 53C89.306 53 94 57.834 94 63.812c0 9.095-9.697 16.726-10.13 17.044-.123.064-.246.128-.37.128s-.247-.064-.37-.128C82.696 80.538 73 72.906 73 63.812 73 57.834 77.694 53 83.5 53z"/>
            <path fill="#B9D5EA" d="M83.5 59.222c2.507 0 4.5 2.04 4.5 4.607s-1.993 4.607-4.5 4.607c-2.507 0-4.5-2.04-4.5-4.607s1.993-4.607 4.5-4.607z"/>
        </g>
    </g>
</svg>
