<?xml version="1.0" encoding="UTF-8" standalone="no"?>
<svg width="26px" height="34px" viewBox="0 0 26 34" version="1.1" xmlns="http://www.w3.org/2000/svg" xmlns:xlink="http://www.w3.org/1999/xlink">
    <!-- Generator: Sketch 43.2 (39069) - http://www.bohemiancoding.com/sketch -->
    <title>Shape</title>
    <desc>Created with Sketch.</desc>
    <defs></defs>
    <g id="Page-1" stroke="none" stroke-width="1" fill="none" fill-rule="evenodd">
        <g id="Estudi-desktop" transform="translate(-662.000000, -632.000000)" fill-rule="nonzero" fill="#FFFFFF">
            <g id="presentacio" transform="translate(0.000000, 212.000000)">
                <g id="icona_centre_suport" transform="translate(635.000000, 405.000000)">
                    <path d="M40,22.6470588 C37.0176471,22.6470588 34.6470588,25.0176471 34.6470588,28 C34.6470588,30.9823529 37.0176471,33.3529412 40,33.3529412 C42.9823529,33.3529412 45.3529412,30.9823529 45.3529412,28 C45.3529412,25.0176471 42.9823529,22.6470588 40,22.6470588 Z M40,31.8235294 C37.8588235,31.8235294 36.1764706,30.1411765 36.1764706,28 C36.1764706,25.8588235 37.8588235,24.1764706 40,24.1764706 C42.1411765,24.1764706 43.8235294,25.8588235 43.8235294,28 C43.8235294,30.1411765 42.1411765,31.8235294 40,31.8235294 Z M40,15 C32.8117647,15 27,20.8117647 27,28 C27,38.9352941 39.0058824,48.1117647 39.5411765,48.4941176 C39.6941176,48.5705882 39.8470588,48.6470588 40,48.6470588 C40.1529412,48.6470588 40.3058824,48.5705882 40.4588235,48.4941176 C40.9941176,48.1117647 53,38.9352941 53,28 C53,20.8117647 47.1882353,15 40,15 Z M40,46.8882353 C37.7823529,45.1294118 28.5294118,37.0235294 28.5294118,28 C28.5294118,21.6529412 33.6529412,16.5294118 40,16.5294118 C46.3470588,16.5294118 51.4705882,21.6529412 51.4705882,28 C51.4705882,37.0235294 42.2176471,45.1294118 40,46.8882353 Z" id="Shape"></path>
                </g>
            </g>
        </g>
    </g>
</svg>