<svg xmlns="http://www.w3.org/2000/svg" xmlns:xlink="http://www.w3.org/1999/xlink" width="36" height="55" viewBox="0 0 36 55">
    <defs>
        <path id="a" d="M36 44.994A2 2 0 0 1 34 47H2c-1.105 0-2-.897-2-2.004V2.004C0 .897.898 0 1.995 0h24.544L36 9.68v35.314z"/>
        <path id="b" d="M2 43h8v12l-4-2-4 2z"/>
    </defs>
    <g fill="none" fill-rule="evenodd">
        <path fill="#AEC8CF" d="M26 8.5l1.5 1.5h8L26 0z"/>
        <g>
            <use fill="#FFF" xlink:href="#a"/>
            <path stroke="#354959" d="M26.328.5L35.5 9.884v35.11A1.5 1.5 0 0 1 34 46.5H2c-.828 0-1.5-.673-1.5-1.504V2.004C.5 1.175 1.173.5 1.995.5h24.333z"/>
        </g>
        <g transform="translate(4)">
            <use fill="#B9D5EA" xlink:href="#b"/>
            <path stroke="#354959" d="M2.5 43.5h7v10.691l-3.276-1.638L6 52.44l-.224.112L2.5 54.19V43.5zM30.292 9.491H24.01A1.51 1.51 0 0 1 22.5 7.983V1.706l7.792 7.785z"/>
            <circle cx="6" cy="39" r="6" fill="#B9D5EA" stroke="#354959"/>
        </g>
        <g stroke="#354959" stroke-linecap="round">
            <path d="M7.5 16.5h10M7.5 21.5h21"/>
        </g>
    </g>
</svg>
