<svg xmlns="http://www.w3.org/2000/svg" width="30" height="39" viewBox="0 0 30 39">
    <g fill="none" fill-rule="evenodd">
        <path fill="#AEC8CF" d="M22 7h7l-7-6z"/>
        <path fill="#FFF" d="M1 0h20v6.435l.8.826H29V38H1z"/>
        <g stroke="#050607" stroke-linecap="round">
            <path d="M21.5.5l8 7M21.5 7.5h8M21.5.5v7M.5.5h21M29.5 7.5v31M.5.5v38M29.5 38.5H.5"/>
        </g>
        <g stroke="#050607" stroke-linecap="round">
            <path d="M6.455 8.5h9.09M6.455 15.5h9.09M6.455 23.5h9.09M6.455 31.5h9.09"/>
            <path stroke-linejoin="round" d="M20.5 15.833l1.667 1.667 3.333-5M20.5 25.833l1.667 1.667 3.333-5"/>
        </g>
    </g>
</svg>
