<svg xmlns="http://www.w3.org/2000/svg" width="37" height="49" viewBox="0 0 37 49">
    <g fill="none" fill-rule="evenodd">
        <path fill="#050607" fill-rule="nonzero" d="M36.961 10.308a.495.495 0 0 0-.108-.162L26.855.147A.495.495 0 0 0 26.5 0H.5a.5.5 0 0 0-.5.5v48a.5.5 0 0 0 .5.5h36a.5.5 0 0 0 .5-.5v-38a.499.499 0 0 0-.039-.192zM27 1.707L35.293 10H27V1.707zM1 48V1h25v9.5a.5.5 0 0 0 .5.5H36v37H1z"/>
        <path fill="#FFF" d="M1 1v47h35V11H26V1z"/>
        <path fill="#050607" fill-rule="nonzero" d="M18.5 10h-10a.5.5 0 0 0 0 1h10a.5.5 0 0 0 0-1zM18.5 20h-10a.5.5 0 0 0 0 1h10a.5.5 0 0 0 0-1zM18.5 30h-10a.5.5 0 0 0 0 1h10a.5.5 0 0 0 0-1zM18.5 40h-10a.5.5 0 0 0 0 1h10a.5.5 0 0 0 0-1zM30.084 16.223l-3.662 5.493-1.568-1.569a.5.5 0 0 0-.707.707l2 2A.497.497 0 0 0 26.5 23l.049-.002a.503.503 0 0 0 .367-.22l4-6a.5.5 0 0 0-.832-.555zM30.084 26.223l-3.662 5.492-1.568-1.568a.5.5 0 0 0-.707.707l2 2a.497.497 0 0 0 .769-.077l4-6a.5.5 0 1 0-.832-.554z"/>
        <path fill="#AEC8CF" d="M27 10h8.3L27 1.7z"/>
    </g>
</svg>
