<svg xmlns="http://www.w3.org/2000/svg" width="49" height="57" viewBox="0 0 49 57">
    <defs>
        <filter id="a" width="107.4%" height="107.4%" x="-3.7%" y="-2.6%" filterUnits="objectBoundingBox">
            <feOffset dy="2" in="SourceAlpha" result="shadowOffsetOuter1"/>
            <feGaussianBlur in="shadowOffsetOuter1" result="shadowBlurOuter1" stdDeviation="2"/>
            <feColorMatrix in="shadowBlurOuter1" result="shadowMatrixOuter1" values="0 0 0 0 0 0 0 0 0 0 0 0 0 0 0 0 0 0 0.05 0"/>
            <feMerge>
                <feMergeNode in="shadowMatrixOuter1"/>
                <feMergeNode in="SourceGraphic"/>
            </feMerge>
        </filter>
    </defs>
    <g fill="none" fill-rule="evenodd" filter="url(#a)" transform="translate(-69 -40)">
        <path fill="#FFF" stroke="#354959" d="M108.59 73.205a17.726 17.726 0 0 0 4.807-12.15c0-9.82-7.953-17.783-17.764-17.783-9.814 0-17.765 7.962-17.765 17.785 0 .573.034 1.136.086 1.692a579.9 579.9 0 0 1-2.152 4.288c-.37.73-.7 1.383-.943 1.857-.12.239-.219.432-.287.57-.035.068-.063.122-.082.163-.219.476-.31.889-.31 1.316a2.971 2.971 0 0 0 2.97 2.974h1.327l-.012 5.303a3.814 3.814 0 0 0 3.81 3.816l5.577-.002 1.898 6.379a.825.825 0 0 0 1.028.554l20.17-6.135a.826.826 0 0 0 .55-1.028l-2.909-9.6z"/>
        <path fill="#354959" d="M100.173 62.11c-1.024 0-1.941.45-2.573 1.159l-2.889-1.674c.115-.345.181-.711.181-1.095 0-.382-.066-.75-.181-1.095l2.889-1.674a3.431 3.431 0 0 0 2.573 1.16 3.446 3.446 0 1 0-3.445-3.446c0 .382.065.75.181 1.095l-2.89 1.674A3.444 3.444 0 0 0 88 60.5a3.444 3.444 0 0 0 6.017 2.286l2.891 1.674a3.444 3.444 0 0 0 3.264 4.54 3.446 3.446 0 0 0 0-6.89z"/>
        <path fill="#B9D5EA" d="M91.445 62.569c-.574 0-1.085-.23-1.462-.605a2.057 2.057 0 0 1-.605-1.462c0-.574.23-1.086.605-1.463a2.057 2.057 0 0 1 1.462-.604 2.063 2.063 0 0 1 2.068 2.067 2.067 2.067 0 0 1-2.068 2.067zM98.71 53.986a2.057 2.057 0 0 1 1.463-.605 2.063 2.063 0 0 1 2.067 2.068 2.067 2.067 0 1 1-3.53-1.463zM101.636 67.015a2.06 2.06 0 0 1-1.462.605 2.06 2.06 0 0 1-1.463-.605 2.057 2.057 0 0 1-.605-1.462c0-.574.23-1.086.605-1.462a2.057 2.057 0 0 1 1.463-.605 2.063 2.063 0 0 1 2.067 2.067c0 .574-.232 1.087-.605 1.462z"/>
    </g>
</svg>
