<svg xmlns="http://www.w3.org/2000/svg" width="31" height="39" viewBox="0 0 31 39">
    <g fill="none" fill-rule="evenodd">
        <path fill="#FFF" d="M5 1h18.571v5.588l.743.717H31V34H5z"/>
        <path fill="#AEC8CF" d="M24 7h6l-6-6zM3 3h1v31l1 1h23v1H3z"/>
        <path fill="#AEC8CF" d="M1 5h1v31l1 1h23v1H1z"/>
        <g stroke="#050607" stroke-linecap="round">
            <path d="M23.5.5l7 7M23.5 7.5h7M23.5.5v7M4.5.5h19M30.5 7.5v27M4.5.5v34M30.5 34.5h-26M2.5 2.5v34M2.5 2.5h2M.5 4.5h2M28.5 36.5v-2M28.5 36.5h-26M.5 4.5v34M26.5 38.5H.5"/>
        </g>
        <path stroke="#050607" stroke-linecap="round" d="M26.5 38.5v-2"/>
        <g stroke="#050607" transform="translate(10 4)">
            <path stroke-linecap="round" d="M.455 13.5H14.5M.455 17.5H14.5M.455 21.5H14.5M.455 25.5H14.5"/>
            <path fill="#AEC8CF" d="M8.857 8.929a3.929 3.929 0 1 0-7.857 0H8.857z"/>
            <circle cx="4.786" cy="1.786" r="1.786" fill="#AEC8CF"/>
        </g>
    </g>
</svg>
