<svg xmlns="http://www.w3.org/2000/svg" width="43" height="55" viewBox="0 0 43 55">
    <g fill="none" fill-rule="evenodd">
        <path fill="#AEC8CF" d="M1 7v47h35v-2H4l-1-1V7z"/>
        <path fill="#050607" fill-rule="nonzero" d="M6.5 3h-3a.5.5 0 0 0-.5.5v48a.5.5 0 0 0 .5.5h36a.5.5 0 0 0 .5-.5v-3h-1V51H3.996V4H6.5V3z"/>
        <path fill="#AEC8CF" d="M4 4v47h35v-2H7l-1-1V4z"/>
        <path fill="#050607" fill-rule="nonzero" d="M3.5 6h-3a.5.5 0 0 0-.5.5v48a.5.5 0 0 0 .5.5h36a.5.5 0 0 0 .5-.5v-3h-1V54H.996V7H3.5V6z"/>
        <path fill="#050607" fill-rule="nonzero" d="M42.961 10.308a.495.495 0 0 0-.108-.162L32.855.147A.495.495 0 0 0 32.5 0h-26a.5.5 0 0 0-.5.5v48a.5.5 0 0 0 .5.5h36a.5.5 0 0 0 .5-.5v-38a.499.499 0 0 0-.039-.192zM33 1.707L41.293 10H33V1.707zM7 48V1h25v9.5a.5.5 0 0 0 .5.5H42v37H7z"/>
        <path fill="#FFF" d="M7 1v47h35V11H32V1z"/>
        <path fill="#050607" fill-rule="nonzero" d="M34.5 40h-20a.5.5 0 0 0 0 1h20a.5.5 0 0 0 0-1zM34.5 35h-20a.5.5 0 0 0 0 1h20a.5.5 0 0 0 0-1zM34.5 30h-20a.5.5 0 0 0 0 1h20a.5.5 0 0 0 0-1zM34.5 25h-20a.5.5 0 0 0 0 1h20a.5.5 0 0 0 0-1z"/>
        <path fill="#AEC8CF" fill-rule="nonzero" stroke="#050708" stroke-width=".9" d="M20.27 6a2.52 2.52 0 1 0 0 5.042 2.52 2.52 0 0 0 0-5.042zm.23 6.417c-3.047 0-5.5 2.404-5.5 5.39v.568h11v-.567c0-2.987-2.453-5.391-5.5-5.391z"/>
        <path fill="#AEC8CF" d="M33 10h8.3L33 1.7z"/>
    </g>
</svg>
