<?xml version="1.0" encoding="UTF-8"?>
<svg width="34px" height="44px" viewBox="0 0 34 44" version="1.1" xmlns="http://www.w3.org/2000/svg" xmlns:xlink="http://www.w3.org/1999/xlink">
    <!-- Generator: Sketch 49 (51002) - http://www.bohemiancoding.com/sketch -->
    <title>format_web_34x44px</title>
    <desc>Created with Sketch.</desc>
    <defs></defs>
    <g id="format_web_34x44px" stroke="none" stroke-width="1" fill="none" fill-rule="evenodd">
        <g id="website_icon" transform="translate(0.500000, 5.500000)">
            <path d="M16.5,32.5 C7.663444,32.5 0.5,25.336556 0.5,16.5 C0.5,7.663444 7.663444,0.5 16.5,0.5 C25.336556,0.5 32.5,7.663444 32.5,16.5 C32.5,25.336556 25.336556,32.5 16.5,32.5 Z M16.5,31.5 C24.7842712,31.5 31.5,24.7842712 31.5,16.5 C31.5,8.21572875 24.7842712,1.5 16.5,1.5 C8.21572875,1.5 1.5,8.21572875 1.5,16.5 C1.5,24.7842712 8.21572875,31.5 16.5,31.5 Z" id="Oval-3" fill="#354959" fill-rule="nonzero"></path>
            <path d="M16.5,31.5 C24.7842712,31.5 31.5,24.7842712 31.5,16.5 C31.5,8.21572875 24.7842712,1.5 16.5,1.5 C8.21572875,1.5 1.5,8.21572875 1.5,16.5 C1.5,24.7842712 8.21572875,31.5 16.5,31.5 Z" id="Path-Copy" fill="#FFFFFF"></path>
            <polygon id="Line" fill="#354959" fill-rule="nonzero" points="0.818722944 17.5 0.818722944 16.5 32.1141775 16.5 32.1141775 17.5"></polygon>
            <polygon id="Line" fill="#354959" fill-rule="nonzero" points="16.5 1 17.5 1 17.5 32 16.5 32"></polygon>
            <path d="M17.1913999,0.583974853 L17.7461001,1.41602515 C17.6941161,1.45068114 17.5891439,1.52532807 17.4387638,1.63990336 C17.1836711,1.83425966 16.8982255,2.06847147 16.5899944,2.34245466 C15.7057591,3.12844163 14.8203076,4.07292323 13.99375,5.175 C11.6333756,8.32216583 10.21875,12.0945008 10.21875,16.5 C10.21875,20.9054992 11.6333756,24.6778342 13.99375,27.825 C14.8203076,28.9270768 15.7057591,29.8715584 16.5899944,30.6575453 C16.8982255,30.9315285 17.1836711,31.1657403 17.4387638,31.3600966 C17.5891439,31.4746719 17.6941161,31.5493189 17.7461001,31.5839749 L17.1913999,32.4160251 C17.1222901,32.369952 17.0002116,32.2831406 16.8327206,32.1555284 C16.5580281,31.9462388 16.2531417,31.6960756 15.9256306,31.4049547 C14.9934597,30.5763583 14.0625049,29.5833399 13.19375,28.425 C10.7103744,25.1138325 9.21875,21.1361675 9.21875,16.5 C9.21875,11.8638325 10.7103744,7.8861675 13.19375,4.575 C14.0625049,3.4166601 14.9934597,2.42364171 15.9256306,1.59504534 C16.2531417,1.30392436 16.5580281,1.05376117 16.8327206,0.84447164 C17.0002116,0.716859429 17.1222901,0.630048025 17.1913999,0.583974853 Z" id="Path-13" fill="#354959" fill-rule="nonzero"></path>
            <path d="M24.4726499,0.583974853 L25.0273501,1.41602515 C24.9753661,1.45068114 24.8703939,1.52532807 24.7200138,1.63990336 C24.4649211,1.83425966 24.1794755,2.06847147 23.8712444,2.34245466 C22.9870091,3.12844163 22.1015576,4.07292323 21.275,5.175 C18.9146256,8.32216583 17.5,12.0945008 17.5,16.5 C17.5,20.9054992 18.9146256,24.6778342 21.275,27.825 C22.1015576,28.9270768 22.9870091,29.8715584 23.8712444,30.6575453 C24.1794755,30.9315285 24.4649211,31.1657403 24.7200138,31.3600966 C24.8703939,31.4746719 24.9753661,31.5493189 25.0273501,31.5839749 L24.4726499,32.4160251 C24.4035401,32.369952 24.2814616,32.2831406 24.1139706,32.1555284 C23.8392781,31.9462388 23.5343917,31.6960756 23.2068806,31.4049547 C22.2747097,30.5763583 21.3437549,29.5833399 20.475,28.425 C17.9916244,25.1138325 16.5,21.1361675 16.5,16.5 C16.5,11.8638325 17.9916244,7.8861675 20.475,4.575 C21.3437549,3.4166601 22.2747097,2.42364171 23.2068806,1.59504534 C23.5343917,1.30392436 23.8392781,1.05376117 24.1139706,0.84447164 C24.2814616,0.716859429 24.4035401,0.630048025 24.4726499,0.583974853 Z" id="Path-13-Copy" fill="#354959" fill-rule="nonzero" transform="translate(20.763675, 16.500000) scale(-1, 1) translate(-20.763675, -16.500000) "></path>
            <path d="M4.67191064,7.04306363 L5.32808936,6.28845811 C5.45950639,6.40273379 5.72545218,6.61161127 6.11658693,6.88370501 C6.7747232,7.34153893 7.53974181,7.80032071 8.40218114,8.22886199 C10.8663545,9.45329596 13.6104421,10.1875 16.5625,10.1875 C19.5145579,10.1875 22.2586455,9.45329596 24.7228189,8.22886199 C25.5852582,7.80032071 26.3502768,7.34153893 27.0084131,6.88370501 C27.3995478,6.61161127 27.6654936,6.40273379 27.7969106,6.28845811 L28.4530894,7.04306363 C28.4107833,7.07985153 28.333241,7.14406875 28.2215574,7.23178655 C28.039077,7.37510917 27.8246882,7.53402891 27.5794776,7.70461021 C26.8826334,8.1893714 26.0758746,8.67318473 25.1678061,9.12439888 C22.5733858,10.4135519 19.6807546,11.1875 16.5625,11.1875 C13.4442454,11.1875 10.5516142,10.4135519 7.95719386,9.12439888 C7.04912538,8.67318473 6.24236665,8.1893714 5.54552244,7.70461021 C5.30031182,7.53402891 5.08592298,7.37510917 4.90344257,7.23178655 C4.79175902,7.14406875 4.71421673,7.07985153 4.67191064,7.04306363 Z" id="Path-14" fill="#354959" fill-rule="nonzero"></path>
            <path d="M5.51566064,23.6585528 L6.17183936,22.9039472 C6.29798295,23.0136373 6.55371146,23.21449 6.93001467,23.4762661 C7.56343169,23.9169041 8.29977599,24.3584899 9.12991551,24.7709816 C11.5018037,25.9495595 14.1430593,26.65625 16.984375,26.65625 C19.8256907,26.65625 22.4669463,25.9495595 24.8388345,24.7709816 C25.668974,24.3584899 26.4053183,23.9169041 27.0387353,23.4762661 C27.4150385,23.21449 27.670767,23.0136373 27.7969106,22.9039472 L28.4530894,23.6585528 C28.4121016,23.6941943 28.3371549,23.756262 28.2293028,23.8409705 C28.0532082,23.9792776 27.8463587,24.1326086 27.6097998,24.2971714 C26.9376749,24.7647365 26.1595904,25.2313539 25.2838218,25.6665184 C22.7816865,26.9098155 19.9918874,27.65625 16.984375,27.65625 C13.9768626,27.65625 11.1870635,26.9098155 8.68492824,25.6665184 C7.80915956,25.2313539 7.03107514,24.7647365 6.35895018,24.2971714 C6.12239129,24.1326086 5.91554181,23.9792776 5.73944721,23.8409705 C5.63159514,23.756262 5.55664837,23.6941943 5.51566064,23.6585528 Z" id="Path-14-Copy" fill="#354959" fill-rule="nonzero" transform="translate(16.984375, 25.280099) scale(1, -1) translate(-16.984375, -25.280099) "></path>
        </g>
    </g>
</svg>