<?xml version="1.0" encoding="UTF-8" standalone="no"?>
<svg width="24px" height="24px" viewBox="0 0 24 24" version="1.1" xmlns="http://www.w3.org/2000/svg" xmlns:xlink="http://www.w3.org/1999/xlink">
    <!-- Generator: Sketch 43.2 (39069) - http://www.bohemiancoding.com/sketch -->
    <title>linkedin</title>
    <desc>Created with Sketch.</desc>
    <defs>
        <path d="M12,24 C5.372583,24 0,18.627417 0,12 C0,5.372583 5.372583,0 12,0 C18.627417,0 24,5.372583 24,12 C24,18.627417 18.627417,24 12,24 Z M4.87102191,9.47662615 L4.87102191,19.3680132 L7.70919222,19.3680132 L7.70919222,9.47662615 L4.87102191,9.47662615 Z M6.07766865,8.34216642 C7.14444393,8.34216642 7.80882409,7.58322692 7.80882409,6.62569514 C7.78827626,5.64951619 7.14444393,4.91015625 6.09736033,4.91015625 C5.04942051,4.91015625 4.36363636,5.65138094 4.36363636,6.6284922 C4.36363636,7.58602398 5.02972882,8.34216642 6.05712082,8.34216642 L6.07766865,8.34216642 Z M19.0607299,19.464046 L19.0607299,13.9631333 C19.0607299,10.9003369 17.4759777,9.47662615 15.4588649,9.47662615 C13.8330171,9.47662615 12.8141867,10.4453462 12.6258315,11.1241029 L12.6258315,9.57172667 L9.43749181,9.57172667 C9.47858747,10.3959312 9.43749181,19.464046 9.43749181,19.464046 L12.6258315,19.464046 L12.6258315,14.1113782 C12.6258315,13.8130236 12.6129892,13.5156014 12.6951805,13.3030237 C12.9143574,12.7072469 13.3852454,12.0909582 14.2319876,12.0909582 C15.3390025,12.0909582 15.8424245,13.0046691 15.8424245,14.3444677 L15.8424245,19.464046 L19.0607299,19.464046 Z" id="path-1"></path>
    </defs>
    <g id="Page-1" stroke="none" stroke-width="1" fill="none" fill-rule="evenodd">
        <g id="Mobile-Portrait" transform="translate(-156.000000, -3530.000000)">
            <g id="footer" transform="translate(0.000000, 2948.000000)">
                <g id="continguts_footer" transform="translate(15.000000, 62.000000)">
                    <g id="segueix-nos" transform="translate(17.000000, 520.000000)">
                        <g id="social" transform="translate(124.000000, 0.000000)">
                            <g id="linkedin">
                                <rect id="Rectangle" x="0" y="0" width="24" height="24"></rect>
                                <g id="Oval">
                                    <g id="path-13-Clipped">
                                        <g id="Combined-Shape" fill-rule="nonzero" fill="#D8D8D8">
                                            <path d="M12,24 C5.372583,24 0,18.627417 0,12 C0,5.372583 5.372583,0 12,0 C18.627417,0 24,5.372583 24,12 C24,18.627417 18.627417,24 12,24 Z M4.87102191,9.47662615 L4.87102191,19.3680132 L7.70919222,19.3680132 L7.70919222,9.47662615 L4.87102191,9.47662615 Z M6.07766865,8.34216642 C7.14444393,8.34216642 7.80882409,7.58322692 7.80882409,6.62569514 C7.78827626,5.64951619 7.14444393,4.91015625 6.09736033,4.91015625 C5.04942051,4.91015625 4.36363636,5.65138094 4.36363636,6.6284922 C4.36363636,7.58602398 5.02972882,8.34216642 6.05712082,8.34216642 L6.07766865,8.34216642 Z M19.0607299,19.464046 L19.0607299,13.9631333 C19.0607299,10.9003369 17.4759777,9.47662615 15.4588649,9.47662615 C13.8330171,9.47662615 12.8141867,10.4453462 12.6258315,11.1241029 L12.6258315,9.57172667 L9.43749181,9.57172667 C9.47858747,10.3959312 9.43749181,19.464046 9.43749181,19.464046 L12.6258315,19.464046 L12.6258315,14.1113782 C12.6258315,13.8130236 12.6129892,13.5156014 12.6951805,13.3030237 C12.9143574,12.7072469 13.3852454,12.0909582 14.2319876,12.0909582 C15.3390025,12.0909582 15.8424245,13.0046691 15.8424245,14.3444677 L15.8424245,19.464046 L19.0607299,19.464046 Z" id="path-1"></path>
                                        </g>
                                        <g>
                                            <mask id="mask-2" fill="white">
                                                <use xlink:href="#path-1"></use>
                                            </mask>
                                            <g id="path-1"></g>
                                            <circle id="path-13" fill="#F5F5F5" fill-rule="nonzero" mask="url(#mask-2)" cx="12" cy="12" r="12"></circle>
                                        </g>
                                    </g>
                                </g>
                            </g>
                        </g>
                    </g>
                </g>
            </g>
        </g>
    </g>
</svg>