<?xml version="1.0" encoding="UTF-8" standalone="no"?>
<svg width="130px" height="28px" viewBox="0 0 130 28" version="1.1" xmlns="http://www.w3.org/2000/svg" xmlns:xlink="http://www.w3.org/1999/xlink">
    <!-- Generator: Sketch 43.2 (39069) - http://www.bohemiancoding.com/sketch -->
    <title>logo_ioc_petit</title>
    <desc>Created with Sketch.</desc>
    <defs>
        <linearGradient x1="47.6804734%" y1="-17.9376406%" x2="52.3195266%" y2="90.0277008%" id="linearGradient-1">
            <stop stop-color="#FFFFFF" stop-opacity="0" offset="0%"></stop>
            <stop stop-color="#FFFFFF" stop-opacity="0.530598958" offset="100%"></stop>
        </linearGradient>
        <linearGradient x1="0%" y1="-4.38775071%" x2="100%" y2="82.0443364%" id="linearGradient-2">
            <stop stop-color="#FFFFFF" stop-opacity="0" offset="0%"></stop>
            <stop stop-color="#FFFFFF" stop-opacity="0.530598958" offset="100%"></stop>
        </linearGradient>
    </defs>
    <g id="Page-1" stroke="none" stroke-width="1" fill="none" fill-rule="evenodd">
        <g id="logo_ioc_petit" fill-rule="nonzero">
            <g id="logo_ioc" fill="#FFFFFF">
                <path d="M68.9740933,9.32968912 L68.9740933,7.98994819 L67.3480829,7.98994819 L67.3480829,9.32968912 L68.9740933,9.32968912 Z M67.3480829,10.2457513 L67.3480829,16.1658031 L68.9740933,16.1658031 L68.9740933,10.2457513 L67.3480829,10.2457513 Z M69.7177202,10.2457513 L69.7177202,16.1658031 L71.3437306,16.1658031 L71.3437306,13.0626425 C71.3437306,12.4595652 71.4429697,12.0263485 71.6414508,11.7629793 C71.8399318,11.4996101 72.1605502,11.3679275 72.6033161,11.3679275 C72.9926445,11.3679275 73.2636433,11.4881594 73.4163212,11.7286269 C73.5689992,11.9690945 73.6453368,12.3336072 73.6453368,12.8221762 L73.6453368,16.1658031 L75.2713472,16.1658031 L75.2713472,12.524456 C75.2713472,12.1580293 75.2389037,11.8240516 75.1740155,11.522513 C75.1091274,11.2209743 74.9965292,10.9652428 74.8362176,10.7553109 C74.6759061,10.5453789 74.4564351,10.3812527 74.1777979,10.2629275 C73.8991608,10.1446022 73.5422818,10.0854404 73.1071503,10.0854404 C72.7636249,10.0854404 72.4277393,10.1636866 72.0994819,10.3201813 C71.7712245,10.4766761 71.5040428,10.7266822 71.2979275,11.0702073 L71.2635751,11.0702073 L71.2635751,10.2457513 L69.7177202,10.2457513 Z M77.2287565,14.2420725 C77.2287565,14.417652 77.265017,14.5684191 77.3375389,14.6943782 C77.4100607,14.8203374 77.5035745,14.9233934 77.6180829,15.0035492 C77.7325913,15.0837051 77.8642739,15.1428669 78.0131347,15.1810363 C78.1619955,15.2192057 78.3165796,15.2382902 78.4768912,15.2382902 C78.5913996,15.2382902 78.7116315,15.2249311 78.8375907,15.1982124 C78.9635499,15.1714938 79.0780563,15.129508 79.181114,15.0722539 C79.2841717,15.0149997 79.3700511,14.938662 79.4387565,14.8432383 C79.5074618,14.7478147 79.5418135,14.6275828 79.5418135,14.4825389 C79.5418135,14.2382544 79.3795957,14.0550438 79.0551554,13.9329016 C78.7307152,13.8107593 78.2784142,13.6886189 77.6982383,13.5664767 C77.4615878,13.5130395 77.2306661,13.4500608 77.0054663,13.3775389 C76.7802666,13.3050169 76.57988,13.2095947 76.4043005,13.0912694 C76.228721,12.9729442 76.0874959,12.8240855 75.9806218,12.6446891 C75.8737476,12.4652927 75.8203109,12.2458217 75.8203109,11.9862694 C75.8203109,11.6045749 75.8947403,11.2915902 76.043601,11.0473057 C76.1924618,10.8030212 76.3890319,10.6102684 76.6333161,10.4690415 C76.8776002,10.3278145 77.1524162,10.2285754 77.457772,10.1713212 C77.7631279,10.1140671 78.0761126,10.0854404 78.3967358,10.0854404 C78.7173589,10.0854404 79.0284354,10.1159755 79.3299741,10.1770466 C79.6315128,10.2381177 79.9006034,10.3411737 80.1372539,10.4862176 C80.3739044,10.6312615 80.5704745,10.8240143 80.7269689,11.0644819 C80.8834633,11.3049494 80.9769771,11.608392 81.007513,11.9748187 L79.461658,11.9748187 C79.4387565,11.6618292 79.3204329,11.4499919 79.1066839,11.3393005 C78.892935,11.2286091 78.6410206,11.1732642 78.3509326,11.1732642 C78.2593258,11.1732642 78.1600866,11.1789896 78.0532124,11.1904404 C77.9463383,11.2018913 77.8490074,11.2267011 77.7612176,11.2648705 C77.6734279,11.3030399 77.5989985,11.3583848 77.5379275,11.4309067 C77.4768564,11.5034287 77.4463212,11.6007593 77.4463212,11.7229016 C77.4463212,11.8679455 77.499758,11.986269 77.6066321,12.0778756 C77.7135063,12.1694823 77.8528232,12.2439116 78.0245855,12.3011658 C78.1963478,12.35842 78.3929179,12.409948 78.6143005,12.4557513 C78.8356831,12.5015546 79.0608795,12.5511742 79.2898964,12.6046114 C79.5265469,12.6580486 79.7574687,12.7229357 79.9826684,12.7992746 C80.2078681,12.8756135 80.4082547,12.9767611 80.5838342,13.1027202 C80.7594137,13.2286794 80.9006388,13.3851717 81.007513,13.5722021 C81.1143871,13.7592324 81.1678238,13.9901541 81.1678238,14.2649741 C81.1678238,14.6543025 81.0895773,14.9806463 80.9330829,15.2440155 C80.7765885,15.5073848 80.5723848,15.719222 80.3204663,15.8795337 C80.0685479,16.0398454 79.7803729,16.1524436 79.4559326,16.2173316 C79.1314924,16.2822197 78.8013315,16.3146632 78.4654404,16.3146632 C78.1219151,16.3146632 77.7860294,16.2803112 77.457772,16.2116062 C77.1295146,16.1429012 76.8375232,16.0283946 76.5817876,15.8680829 C76.326052,15.7077712 76.1161235,15.495934 75.9519948,15.2325648 C75.7878661,14.9691955 75.6981695,14.6390348 75.6829016,14.2420725 L77.2287565,14.2420725 Z M83.6405181,10.2457513 L84.831399,10.2457513 L84.831399,11.3335751 L83.6405181,11.3335751 L83.6405181,14.2649741 C83.6405181,14.5397941 83.6863206,14.7230047 83.7779275,14.8146114 C83.8695344,14.9062181 84.0527448,14.9520207 84.3275648,14.9520207 C84.4191717,14.9520207 84.5069601,14.9482038 84.5909326,14.9405699 C84.6749052,14.9329361 84.75506,14.9214854 84.831399,14.9062176 L84.831399,16.1658031 C84.693989,16.1887048 84.5413137,16.2039723 84.3733679,16.2116062 C84.205422,16.2192401 84.041296,16.223057 83.8809845,16.223057 C83.629066,16.223057 83.3905106,16.205881 83.1653109,16.1715285 C82.9401111,16.137176 82.7416328,16.0703805 82.5698705,15.9711399 C82.3981081,15.8718993 82.2626084,15.7306745 82.1633679,15.5474611 C82.0641274,15.3642478 82.0145078,15.1237839 82.0145078,14.8260622 L82.0145078,11.3335751 L81.0297409,11.3335751 L81.0297409,10.2457513 L82.0145078,10.2457513 L82.0145078,8.47088083 L83.6405181,8.47088083 L83.6405181,10.2457513 Z M86.7430052,9.32968912 L86.7430052,7.98994819 L85.1169948,7.98994819 L85.1169948,9.32968912 L86.7430052,9.32968912 Z M85.1169948,10.2457513 L85.1169948,16.1658031 L86.7430052,16.1658031 L86.7430052,10.2457513 L85.1169948,10.2457513 Z M89.547772,10.2457513 L89.547772,8.47088083 L87.9217617,8.47088083 L87.9217617,10.2457513 L86.9369948,10.2457513 L86.9369948,11.3335751 L87.9217617,11.3335751 L87.9217617,14.8260622 C87.9217617,15.1237839 87.9713812,15.3642478 88.0706218,15.5474611 C88.1698623,15.7306745 88.305362,15.8718993 88.4771244,15.9711399 C88.6488867,16.0703805 88.847365,16.137176 89.0725648,16.1715285 C89.2977645,16.205881 89.5363199,16.223057 89.7882383,16.223057 C89.9485499,16.223057 90.1126759,16.2192401 90.2806218,16.2116062 C90.4485676,16.2039723 90.6012428,16.1887048 90.7386528,16.1658031 L90.7386528,14.9062176 C90.6623139,14.9214854 90.5821591,14.9329361 90.4981865,14.9405699 C90.4142139,14.9482038 90.3264255,14.9520207 90.2348187,14.9520207 C89.9599987,14.9520207 89.7767882,14.9062181 89.6851813,14.8146114 C89.5935745,14.7230047 89.547772,14.5397941 89.547772,14.2649741 L89.547772,11.3335751 L90.7386528,11.3335751 L90.7386528,10.2457513 L89.547772,10.2457513 Z M96.5320725,16.1658031 L96.5320725,10.2457513 L94.9060622,10.2457513 L94.9060622,13.3489119 C94.9060622,13.9519892 94.806823,14.3852059 94.608342,14.6485751 C94.4098609,14.9119444 94.0892425,15.0436269 93.6464767,15.0436269 C93.2571482,15.0436269 92.9861494,14.923395 92.8334715,14.6829275 C92.6807936,14.4424599 92.604456,14.0779472 92.604456,13.5893782 L92.604456,10.2457513 L90.9784456,10.2457513 L90.9784456,13.8870984 C90.9784456,14.2535251 91.010889,14.5875028 91.0757772,14.8890415 C91.1406654,15.1905801 91.2532636,15.4463116 91.4135751,15.6562435 C91.5738867,15.8661755 91.7933577,16.0283932 92.0719948,16.1429016 C92.350632,16.2574099 92.7075109,16.3146632 93.1426425,16.3146632 C93.4861678,16.3146632 93.8220535,16.2383255 94.1503109,16.0856477 C94.4785683,15.9329699 94.7457499,15.6848722 94.9518653,15.3413472 L94.9862176,15.3413472 L94.9862176,16.1658031 L96.5320725,16.1658031 Z M99.2910363,10.2457513 L99.2910363,8.47088083 L97.6650259,8.47088083 L97.6650259,10.2457513 L96.6802591,10.2457513 L96.6802591,11.3335751 L97.6650259,11.3335751 L97.6650259,14.8260622 C97.6650259,15.1237839 97.7146455,15.3642478 97.813886,15.5474611 C97.9131265,15.7306745 98.0486263,15.8718993 98.2203886,15.9711399 C98.3921509,16.0703805 98.5906293,16.137176 98.815829,16.1715285 C99.0410288,16.205881 99.2795841,16.223057 99.5315026,16.223057 C99.6918141,16.223057 99.8559402,16.2192401 100.023886,16.2116062 C100.191832,16.2039723 100.344507,16.1887048 100.481917,16.1658031 L100.481917,14.9062176 C100.405578,14.9214854 100.325423,14.9329361 100.241451,14.9405699 C100.157478,14.9482038 100.06969,14.9520207 99.9780829,14.9520207 C99.7032629,14.9520207 99.5200525,14.9062181 99.4284456,14.8146114 C99.3368387,14.7230047 99.2910363,14.5397941 99.2910363,14.2649741 L99.2910363,11.3335751 L100.481917,11.3335751 L100.481917,10.2457513 L99.2910363,10.2457513 Z M104.808964,13.2115026 C104.808964,13.4481532 104.831865,13.6790749 104.877668,13.9042746 C104.923472,14.1294744 105.001718,14.3317694 105.112409,14.5111658 C105.223101,14.6905622 105.370051,14.8336955 105.553264,14.9405699 C105.736477,15.0474444 105.965491,15.1008808 106.240311,15.1008808 C106.515131,15.1008808 106.746053,15.0474444 106.933083,14.9405699 C107.120113,14.8336955 107.268972,14.6905622 107.379663,14.5111658 C107.490355,14.3317694 107.568601,14.1294744 107.614404,13.9042746 C107.660207,13.6790749 107.683109,13.4481532 107.683109,13.2115026 C107.683109,12.974852 107.660207,12.7420219 107.614404,12.5130052 C107.568601,12.2839885 107.490355,12.0816935 107.379663,11.906114 C107.268972,11.7305345 107.120113,11.5874013 106.933083,11.4767098 C106.746053,11.3660184 106.515131,11.3106736 106.240311,11.3106736 C105.965491,11.3106736 105.736477,11.3660184 105.553264,11.4767098 C105.370051,11.5874013 105.223101,11.7305345 105.112409,11.906114 C105.001718,12.0816935 104.923472,12.2839885 104.877668,12.5130052 C104.831865,12.7420219 104.808964,12.974852 104.808964,13.2115026 Z M103.182953,13.2115026 C103.182953,12.7382014 103.255475,12.3088016 103.400518,11.9232902 C103.545562,11.5377787 103.751674,11.2095264 104.01886,10.9385233 C104.286046,10.6675203 104.606665,10.4575914 104.980725,10.3087306 C105.354786,10.1598697 105.774643,10.0854404 106.240311,10.0854404 C106.705978,10.0854404 107.127744,10.1598697 107.505622,10.3087306 C107.883499,10.4575914 108.206026,10.6675203 108.473212,10.9385233 C108.740399,11.2095264 108.946511,11.5377787 109.091554,11.9232902 C109.236598,12.3088016 109.309119,12.7382014 109.309119,13.2115026 C109.309119,13.6848038 109.236598,14.1122952 109.091554,14.4939896 C108.946511,14.8756841 108.740399,15.202028 108.473212,15.4730311 C108.206026,15.7440341 107.883499,15.9520545 107.505622,16.0970984 C107.127744,16.2421423 106.705978,16.3146632 106.240311,16.3146632 C105.774643,16.3146632 105.354786,16.2421423 104.980725,16.0970984 C104.606665,15.9520545 104.286046,15.7440341 104.01886,15.4730311 C103.751674,15.202028 103.545562,14.8756841 103.400518,14.4939896 C103.255475,14.1122952 103.182953,13.6848038 103.182953,13.2115026 Z M114.163575,13.2115026 C114.163575,12.9595842 114.136857,12.7191203 114.08342,12.4901036 C114.029982,12.2610869 113.946011,12.0587919 113.831503,11.8832124 C113.716994,11.707633 113.573861,11.5683166 113.402098,11.4652591 C113.230336,11.3622015 113.022315,11.3106736 112.778031,11.3106736 C112.541381,11.3106736 112.335269,11.3622015 112.159689,11.4652591 C111.98411,11.5683166 111.839068,11.707633 111.72456,11.8832124 C111.610051,12.0587919 111.52608,12.2610869 111.472642,12.4901036 C111.419205,12.7191203 111.392487,12.9595842 111.392487,13.2115026 C111.392487,13.4557871 111.419205,13.6924341 111.472642,13.9214508 C111.52608,14.1504675 111.610051,14.3527625 111.72456,14.528342 C111.839068,14.7039215 111.98411,14.8432378 112.159689,14.9462953 C112.335269,15.0493529 112.541381,15.1008808 112.778031,15.1008808 C113.022315,15.1008808 113.230336,15.0493529 113.402098,14.9462953 C113.573861,14.8432378 113.716994,14.7039215 113.831503,14.528342 C113.946011,14.3527625 114.029982,14.1504675 114.08342,13.9214508 C114.136857,13.6924341 114.163575,13.4557871 114.163575,13.2115026 Z M109.823731,7.98994819 L111.449741,7.98994819 L111.449741,10.9671503 L111.472642,10.9671503 C111.671124,10.6617947 111.940214,10.4385067 112.279922,10.2972798 C112.61963,10.1560528 112.972692,10.0854404 113.339119,10.0854404 C113.636841,10.0854404 113.930741,10.1465106 114.220829,10.2686528 C114.510917,10.3907951 114.772374,10.5778226 115.005207,10.8297409 C115.238041,11.0816593 115.426977,11.4041863 115.572021,11.7973316 C115.717064,12.1904769 115.789585,12.6580456 115.789585,13.2000518 C115.789585,13.742058 115.717064,14.2096267 115.572021,14.602772 C115.426977,14.9959173 115.238041,15.3184443 115.005207,15.5703627 C114.772374,15.8222811 114.510917,16.0093086 114.220829,16.1314508 C113.930741,16.253593 113.636841,16.3146632 113.339119,16.3146632 C112.903988,16.3146632 112.514665,16.2459592 112.17114,16.1085492 C111.827615,15.9711392 111.568067,15.7383091 111.392487,15.4100518 L111.369585,15.4100518 L111.369585,16.1658031 L109.823731,16.1658031 L109.823731,7.98994819 Z M120.266166,12.5702591 C120.189827,12.158029 120.054327,11.8450442 119.859663,11.6312953 C119.664999,11.4175464 119.36919,11.3106736 118.972228,11.3106736 C118.712676,11.3106736 118.497021,11.3545678 118.325259,11.4423575 C118.153497,11.5301473 118.016089,11.6389286 117.913031,11.7687047 C117.809973,11.8984808 117.737453,12.0358887 117.695466,12.1809326 C117.65348,12.3259765 117.62867,12.4557507 117.621036,12.5702591 L120.266166,12.5702591 Z M117.621036,13.600829 C117.643938,14.1275674 117.777529,14.5092562 118.021813,14.7459067 C118.266098,14.9825573 118.617252,15.1008808 119.075285,15.1008808 C119.403542,15.1008808 119.685992,15.0188178 119.922642,14.8546891 C120.159293,14.6905605 120.304335,14.5168921 120.357772,14.3336788 L121.789119,14.3336788 C121.560102,15.0436305 121.208949,15.5512765 120.735648,15.8566321 C120.262347,16.1619877 119.689813,16.3146632 119.018031,16.3146632 C118.552364,16.3146632 118.132506,16.2402339 117.758446,16.0913731 C117.384385,15.9425122 117.067583,15.7306749 116.808031,15.4558549 C116.548479,15.1810349 116.348092,14.8527826 116.206865,14.4710881 C116.065638,14.0893936 115.995026,13.669536 115.995026,13.2115026 C115.995026,12.768737 116.067547,12.3565131 116.212591,11.9748187 C116.357634,11.5931242 116.563746,11.2629634 116.830933,10.9843264 C117.098119,10.7056895 117.416829,10.4862184 117.787073,10.3259067 C118.157316,10.165595 118.567632,10.0854404 119.018031,10.0854404 C119.521868,10.0854404 119.96081,10.1827711 120.33487,10.3774352 C120.708931,10.5720994 121.01619,10.8335562 121.256658,11.1618135 C121.497126,11.4900707 121.670794,11.8641257 121.777668,12.2839896 C121.884543,12.7038535 121.922712,13.1427956 121.892176,13.600829 L117.621036,13.600829 Z M122.315181,10.2457513 L123.861036,10.2457513 L123.861036,11.3450259 L123.883938,11.3450259 C123.960277,11.1618125 124.063332,10.9919611 124.193109,10.8354663 C124.322885,10.6789716 124.471743,10.5453805 124.639689,10.4346891 C124.807635,10.3239977 124.987028,10.2381177 125.177876,10.1770466 C125.368723,10.1159755 125.567201,10.0854404 125.773316,10.0854404 C125.88019,10.0854404 125.998514,10.1045248 126.12829,10.1426943 L126.12829,11.6541969 C126.051951,11.6389291 125.960346,11.62557 125.853472,11.6141192 C125.746597,11.6026683 125.643541,11.596943 125.544301,11.596943 C125.246579,11.596943 124.994665,11.6465625 124.788549,11.7458031 C124.582434,11.8450437 124.4164,11.9805432 124.29044,12.1523057 C124.164481,12.3240682 124.074785,12.5244548 124.021347,12.7534715 C123.96791,12.9824882 123.941192,13.2305858 123.941192,13.497772 L123.941192,16.1658031 L122.315181,16.1658031 L122.315181,10.2457513 Z M128.291813,10.2457513 L129.482694,10.2457513 L129.482694,11.3335751 L128.291813,11.3335751 L128.291813,14.2649741 C128.291813,14.5397941 128.337616,14.7230047 128.429223,14.8146114 C128.52083,14.9062181 128.70404,14.9520207 128.97886,14.9520207 C129.070467,14.9520207 129.158255,14.9482038 129.242228,14.9405699 C129.326201,14.9329361 129.406355,14.9214854 129.482694,14.9062176 L129.482694,16.1658031 C129.345284,16.1887048 129.192609,16.2039723 129.024663,16.2116062 C128.856717,16.2192401 128.692591,16.223057 128.53228,16.223057 C128.280361,16.223057 128.041806,16.205881 127.816606,16.1715285 C127.591406,16.137176 127.392928,16.0703805 127.221166,15.9711399 C127.049403,15.8718993 126.913904,15.7306745 126.814663,15.5474611 C126.715423,15.3642478 126.665803,15.1237839 126.665803,14.8260622 L126.665803,11.3335751 L125.681036,11.3335751 L125.681036,10.2457513 L126.665803,10.2457513 L126.665803,8.47088083 L128.291813,8.47088083 L128.291813,10.2457513 Z M71.504715,22.6186528 C71.504715,22.3743684 71.4818135,22.1396298 71.4360104,21.9144301 C71.3902073,21.6892303 71.3119607,21.4907522 71.2012694,21.3189896 C71.0905781,21.1472271 70.9474448,21.0079108 70.7718653,20.9010363 C70.5962858,20.7941618 70.3749066,20.7407254 70.1077202,20.7407254 C69.8405338,20.7407254 69.6153375,20.7941618 69.4321244,20.9010363 C69.2489112,21.0079108 69.1019607,21.1491355 68.9912694,21.324715 C68.8805781,21.5002945 68.8004234,21.7006811 68.7508031,21.9258808 C68.7011828,22.1510806 68.6763731,22.3858191 68.6763731,22.6301036 C68.6763731,22.8591203 68.7030911,23.0881336 68.7565285,23.3171503 C68.8099659,23.5461669 68.8958454,23.7503704 69.014171,23.9297668 C69.1324966,24.1091633 69.2813547,24.2542049 69.4607513,24.3648964 C69.6401479,24.4755878 69.8558018,24.5309326 70.1077202,24.5309326 C70.3749066,24.5309326 70.598194,24.4774962 70.7775907,24.3706218 C70.9569873,24.2637473 71.1001207,24.120614 71.2069948,23.9412176 C71.313869,23.7618212 71.3902073,23.5576177 71.4360104,23.328601 C71.4818135,23.0995843 71.504715,22.8629373 71.504715,22.6186528 Z M71.5276166,24.8401036 L71.504715,24.8401036 C71.3138676,25.160727 71.0638615,25.3916487 70.7546891,25.5328756 C70.4455168,25.6741026 70.0962715,25.744715 69.706943,25.744715 C69.2641772,25.744715 68.8748548,25.6588351 68.5389637,25.4870725 C68.2030727,25.31531 67.9263485,25.0824799 67.7087824,24.7885751 C67.4912163,24.4946704 67.3270903,24.1568758 67.216399,23.7751813 C67.1057077,23.3934869 67.0503627,22.9965306 67.0503627,22.5843005 C67.0503627,22.1873382 67.1057077,21.803741 67.216399,21.4334974 C67.3270903,21.0632538 67.4912163,20.7369099 67.7087824,20.454456 C67.9263485,20.1720021 68.1992555,19.9448972 68.527513,19.7731347 C68.8557704,19.6013722 69.2374591,19.5154922 69.6725907,19.5154922 C70.0237496,19.5154922 70.357727,19.5899215 70.6745337,19.7387824 C70.9913403,19.8876432 71.2413465,20.1071143 71.4245596,20.3972021 L71.4474611,20.3972021 L71.4474611,17.42 L73.0734715,17.42 L73.0734715,25.5958549 L71.5276166,25.5958549 L71.5276166,24.8401036 Z M77.6773575,22.0003109 C77.6010185,21.5880808 77.4655188,21.275096 77.2708549,21.0613472 C77.076191,20.8475983 76.7803818,20.7407254 76.3834197,20.7407254 C76.1238676,20.7407254 75.9082131,20.7846196 75.7364508,20.8724093 C75.5646884,20.9601991 75.4272805,21.0689804 75.3242228,21.1987565 C75.2211651,21.3285326 75.1486447,21.4659406 75.106658,21.6109845 C75.0646714,21.7560284 75.0398616,21.8858025 75.032228,22.0003109 L77.6773575,22.0003109 Z M75.032228,23.0308808 C75.0551295,23.5576192 75.188721,23.939308 75.4330052,24.1759585 C75.67729,24.4126091 76.0284436,24.5309326 76.4864767,24.5309326 C76.8147341,24.5309326 77.0971837,24.4488696 77.3338342,24.2847409 C77.5704847,24.1206123 77.7155263,23.9469439 77.7689637,23.7637306 L79.2003109,23.7637306 C78.971294,24.4736823 78.6201404,24.9813284 78.1468394,25.2866839 C77.6735383,25.5920395 77.1010049,25.744715 76.4292228,25.744715 C75.9635554,25.744715 75.5436978,25.6702857 75.1696373,25.5214249 C74.7955768,25.372564 74.4787749,25.1607267 74.2192228,24.8859067 C73.9596707,24.6110867 73.7592841,24.2828344 73.618057,23.9011399 C73.4768298,23.5194454 73.4062176,23.0995878 73.4062176,22.6415544 C73.4062176,22.1987888 73.4787388,21.7865649 73.6237824,21.4048705 C73.768826,21.023176 73.974938,20.6930152 74.2421244,20.4143782 C74.5093107,20.1357413 74.8280209,19.9162702 75.1982642,19.7559585 C75.5685076,19.5956469 75.9788233,19.5154922 76.4292228,19.5154922 C76.9330597,19.5154922 77.3720017,19.6128229 77.7460622,19.807487 C78.1201227,20.0021512 78.4273821,20.263608 78.6678497,20.5918653 C78.9083174,20.9201226 79.081986,21.2941775 79.1888601,21.7140415 C79.2957342,22.1339054 79.3339037,22.5728475 79.3033679,23.0308808 L75.032228,23.0308808 Z M86.2667876,21.7598446 L87.8584456,21.7598446 C87.835544,21.3781501 87.7439385,21.0479893 87.5836269,20.7693523 C87.4233154,20.4907154 87.2152952,20.2578852 86.9595596,20.0708549 C86.7038247,19.8838246 86.4137408,19.7445082 86.0893005,19.6529016 C85.7648603,19.5612949 85.4270657,19.5154922 85.0759067,19.5154922 C84.5949721,19.5154922 84.1674802,19.5956469 83.7934197,19.7559585 C83.4193592,19.9162702 83.1025573,20.1395582 82.8430052,20.425829 C82.5834531,20.7120999 82.386883,21.0518029 82.2532902,21.4449482 C82.1196973,21.8380935 82.0529016,22.2636765 82.0529016,22.7217098 C82.0529016,23.1644754 82.1254227,23.570974 82.2704663,23.9412176 C82.4155099,24.3114613 82.6178054,24.6301713 82.8773575,24.8973575 C83.1369096,25.1645437 83.4518033,25.372564 83.8220466,25.5214249 C84.19229,25.6702857 84.5987885,25.744715 85.0415544,25.744715 C85.8278449,25.744715 86.4728989,25.5386031 86.9767358,25.1263731 C87.4805726,24.714143 87.7859238,24.1148917 87.8927979,23.328601 L86.3240415,23.328601 C86.270604,23.6950277 86.1389215,23.9870196 85.9289896,24.2045855 C85.7190578,24.4221513 85.4194321,24.5309326 85.0301036,24.5309326 C84.7781852,24.5309326 84.5644396,24.4736793 84.3888601,24.359171 C84.2132806,24.2446627 84.0739644,24.0977125 83.9709067,23.9183161 C83.8678491,23.7389196 83.7934197,23.5385331 83.7476166,23.3171503 C83.7018135,23.0957675 83.6789119,22.8782049 83.6789119,22.664456 C83.6789119,22.4430732 83.7018135,22.2197852 83.7476166,21.9945855 C83.7934197,21.7693858 83.8716662,21.5632738 83.9823575,21.3762435 C84.0930488,21.1892132 84.2361822,21.0365377 84.4117617,20.9182124 C84.5873411,20.7998872 84.8049039,20.7407254 85.064456,20.7407254 C85.7591403,20.7407254 86.1599134,21.0804284 86.2667876,21.7598446 Z M88.1339378,21.4964767 C88.1568394,21.1147822 88.2522621,20.7979806 88.4202073,20.5460622 C88.5881531,20.2941438 88.8018987,20.0918488 89.0614508,19.939171 C89.3210028,19.7864932 89.612995,19.6777119 89.9374352,19.6128238 C90.2618755,19.5479358 90.5882193,19.5154922 90.9164767,19.5154922 C91.2141982,19.5154922 91.5157322,19.5364851 91.8210881,19.5784715 C92.1264439,19.6204579 92.4050764,19.702521 92.6569948,19.8246632 C92.9089133,19.9468054 93.1150252,20.116657 93.2753368,20.3342228 C93.4356483,20.5517886 93.5158031,20.8399637 93.5158031,21.1987565 L93.5158031,24.2790155 C93.5158031,24.5462016 93.531071,24.8019331 93.5616062,25.0462176 C93.5921421,25.2905021 93.6455781,25.4737127 93.7219171,25.5958549 L92.0730052,25.5958549 C92.04247,25.5042482 92.0176602,25.4107345 91.9985751,25.3153109 C91.9794907,25.2198872 91.966131,25.1225566 91.9584974,25.0233161 C91.6989453,25.2905022 91.3935942,25.4775297 91.0424352,25.5844041 C90.6912763,25.6912786 90.3324891,25.744715 89.9660622,25.744715 C89.6836085,25.744715 89.4202434,25.710363 89.1759585,25.641658 C88.9316744,25.572953 88.7179281,25.4660802 88.534715,25.3210363 C88.3515019,25.1759924 88.2083685,24.9927818 88.1053109,24.771399 C88.0022532,24.5500162 87.9507254,24.2866509 87.9507254,23.9812953 C87.9507254,23.6454042 88.0098875,23.3686798 88.1282124,23.151114 C88.246538,22.9335481 88.3992133,22.7598797 88.5862435,22.6301036 C88.7732738,22.5003275 88.9870194,22.4029969 89.227487,22.3381088 C89.4679547,22.2732208 89.7103273,22.2216928 89.9546114,22.1835233 C90.1988962,22.1453539 90.4393598,22.1148188 90.6760104,22.0919171 C90.9126609,22.0690154 91.12259,22.0346634 91.3058031,21.9888601 C91.4890162,21.9430568 91.6340585,21.8762612 91.7409326,21.7884715 C91.8478075,21.7006818 91.8974264,21.5728161 91.8897927,21.4048705 C91.8897927,21.229291 91.8611665,21.0899746 91.8039119,20.9869171 C91.746658,20.8838596 91.6703197,20.8037049 91.5748964,20.7464508 C91.479473,20.6891966 91.3687831,20.6510277 91.2428238,20.631943 C91.1168646,20.6128583 90.9813655,20.6033161 90.8363212,20.6033161 C90.5156981,20.6033161 90.2637831,20.6720201 90.0805699,20.8094301 C89.8973568,20.9468401 89.790484,21.1758533 89.7599482,21.4964767 L88.1339378,21.4964767 Z M91.8897927,22.6988083 C91.8210881,22.7598794 91.7352079,22.8075905 91.6321503,22.841943 C91.5290926,22.8762955 91.4184033,22.9049221 91.3000777,22.9278238 C91.1817528,22.9507255 91.0577038,22.9698099 90.9279275,22.9850777 C90.7981511,23.0003455 90.6683774,23.0194299 90.538601,23.0423316 C90.416459,23.0652333 90.2962272,23.0957683 90.1779016,23.1339378 C90.0595766,23.1721072 89.9565203,23.2236353 89.8687306,23.2885233 C89.7809408,23.3534114 89.7103286,23.4354744 89.6568912,23.534715 C89.6034538,23.6339556 89.5767358,23.7599129 89.5767358,23.9125907 C89.5767358,24.0576346 89.6034538,24.179775 89.6568912,24.2790155 C89.7103286,24.3782561 89.7828491,24.4565023 89.874456,24.5137565 C89.9660628,24.5710106 90.0729356,24.6110879 90.1950777,24.6339896 C90.3172198,24.6568913 90.443177,24.668342 90.5729534,24.668342 C90.8935765,24.668342 91.1416744,24.6149056 91.3172539,24.5080311 C91.4928334,24.4011566 91.6226077,24.2732909 91.7065803,24.1244301 C91.7905529,23.9755692 91.8420814,23.8248021 91.8611658,23.6721244 C91.8802509,23.5194466 91.8897927,23.3973062 91.8897927,23.3056995 L91.8897927,22.6988083 Z M96.2303109,19.6758031 L97.4211917,19.6758031 L97.4211917,20.7636269 L96.2303109,20.7636269 L96.2303109,23.6950259 C96.2303109,23.9698459 96.2761133,24.1530565 96.3677202,24.2446632 C96.4593271,24.3362699 96.6425375,24.3820725 96.9173575,24.3820725 C97.0089644,24.3820725 97.0967528,24.3782557 97.1807254,24.3706218 C97.264698,24.3629879 97.3448527,24.3515372 97.4211917,24.3362694 L97.4211917,25.5958549 C97.2837817,25.6187566 97.1311065,25.6340241 96.9631606,25.641658 C96.7952154,25.6492919 96.6310888,25.6531088 96.4707772,25.6531088 C96.2188588,25.6531088 95.9803034,25.6359328 95.7551036,25.6015803 C95.5299039,25.5672278 95.3314255,25.5004323 95.1596632,25.4011917 C94.9879009,25.3019511 94.8524011,25.1607263 94.7531606,24.977513 C94.6539201,24.7942996 94.6043005,24.5538357 94.6043005,24.256114 L94.6043005,20.7636269 L93.6195337,20.7636269 L93.6195337,19.6758031 L94.6043005,19.6758031 L94.6043005,17.9009326 L96.2303109,17.9009326 L96.2303109,19.6758031 Z M97.5249223,21.4964767 C97.5478238,21.1147822 97.6432465,20.7979806 97.8111917,20.5460622 C97.9791376,20.2941438 98.1928832,20.0918488 98.4524352,19.939171 C98.7119873,19.7864932 99.0039794,19.6777119 99.3284197,19.6128238 C99.6528599,19.5479358 99.9792037,19.5154922 100.307461,19.5154922 C100.605183,19.5154922 100.906717,19.5364851 101.212073,19.5784715 C101.517428,19.6204579 101.796061,19.702521 102.047979,19.8246632 C102.299898,19.9468054 102.50601,20.116657 102.666321,20.3342228 C102.826633,20.5517886 102.906788,20.8399637 102.906788,21.1987565 L102.906788,24.2790155 C102.906788,24.5462016 102.922055,24.8019331 102.952591,25.0462176 C102.983127,25.2905021 103.036563,25.4737127 103.112902,25.5958549 L101.46399,25.5958549 C101.433454,25.5042482 101.408645,25.4107345 101.38956,25.3153109 C101.370475,25.2198872 101.357116,25.1225566 101.349482,25.0233161 C101.08993,25.2905022 100.784579,25.4775297 100.43342,25.5844041 C100.082261,25.6912786 99.7234735,25.744715 99.3570466,25.744715 C99.074593,25.744715 98.8112278,25.710363 98.566943,25.641658 C98.3226589,25.572953 98.1089133,25.4660802 97.9256995,25.3210363 C97.7424864,25.1759924 97.599353,24.9927818 97.4962953,24.771399 C97.3932377,24.5500162 97.3417098,24.2866509 97.3417098,23.9812953 C97.3417098,23.6454042 97.400872,23.3686798 97.5191969,23.151114 C97.6375225,22.9335481 97.7901977,22.7598797 97.977228,22.6301036 C98.1642582,22.5003275 98.3780038,22.4029969 98.6184715,22.3381088 C98.8589392,22.2732208 99.1013117,22.2216928 99.3455959,22.1835233 C99.5898807,22.1453539 99.8303443,22.1148188 100.066995,22.0919171 C100.303645,22.0690154 100.513574,22.0346634 100.696788,21.9888601 C100.880001,21.9430568 101.025043,21.8762612 101.131917,21.7884715 C101.238792,21.7006818 101.288412,21.5728161 101.280777,21.4048705 C101.280777,21.229291 101.252151,21.0899746 101.194896,20.9869171 C101.137642,20.8838596 101.061305,20.8037049 100.965881,20.7464508 C100.870457,20.6891966 100.759768,20.6510277 100.633808,20.631943 C100.507849,20.6128583 100.37235,20.6033161 100.227306,20.6033161 C99.9066826,20.6033161 99.6547682,20.6720201 99.4715544,20.8094301 C99.2883413,20.9468401 99.1814685,21.1758533 99.1509326,21.4964767 L97.5249223,21.4964767 Z M101.280777,22.6988083 C101.212073,22.7598794 101.126192,22.8075905 101.023135,22.841943 C100.920077,22.8762955 100.809388,22.9049221 100.691062,22.9278238 C100.572737,22.9507255 100.448688,22.9698099 100.318912,22.9850777 C100.189136,23.0003455 100.059362,23.0194299 99.9295855,23.0423316 C99.8074434,23.0652333 99.6872116,23.0957683 99.568886,23.1339378 C99.4505611,23.1721072 99.3475048,23.2236353 99.259715,23.2885233 C99.1719253,23.3534114 99.1013131,23.4354744 99.0478756,23.534715 C98.9944382,23.6339556 98.9677202,23.7599129 98.9677202,23.9125907 C98.9677202,24.0576346 98.9944382,24.179775 99.0478756,24.2790155 C99.1013131,24.3782561 99.1738335,24.4565023 99.2654404,24.5137565 C99.3570473,24.5710106 99.4639201,24.6110879 99.5860622,24.6339896 C99.7082042,24.6568913 99.8341621,24.668342 99.9639378,24.668342 C100.284562,24.668342 100.532659,24.6149056 100.708238,24.5080311 C100.883818,24.4011566 101.013592,24.2732909 101.097565,24.1244301 C101.181537,23.9755692 101.233066,23.8248021 101.25215,23.6721244 C101.271235,23.5194466 101.280777,23.3973062 101.280777,23.3056995 L101.280777,22.6988083 Z M103.605959,17.42 L103.605959,25.5958549 L105.231969,25.5958549 L105.231969,17.42 L103.605959,17.42 Z M111.461865,25.5958549 L111.461865,19.6758031 L109.835855,19.6758031 L109.835855,22.7789637 C109.835855,23.382041 109.736616,23.8152577 109.538135,24.0786269 C109.339654,24.3419962 109.019035,24.4736788 108.576269,24.4736788 C108.186941,24.4736788 107.915942,24.3534468 107.763264,24.1129793 C107.610586,23.8725117 107.534249,23.507999 107.534249,23.0194301 L107.534249,19.6758031 L105.908238,19.6758031 L105.908238,23.3171503 C105.908238,23.6835769 105.940682,24.0175546 106.00557,24.3190933 C106.070458,24.6206319 106.183056,24.8763634 106.343368,25.0862953 C106.503679,25.2962273 106.72315,25.4584451 107.001788,25.5729534 C107.280425,25.6874617 107.637304,25.744715 108.072435,25.744715 C108.415961,25.744715 108.751846,25.6683773 109.080104,25.5156995 C109.408361,25.3630217 109.675543,25.114924 109.881658,24.771399 L109.91601,24.771399 L109.91601,25.5958549 L111.461865,25.5958549 Z M112.092332,19.6758031 L113.638187,19.6758031 L113.638187,20.5002591 L113.672539,20.5002591 C113.878654,20.1567341 114.145836,19.9067279 114.474093,19.7502332 C114.802351,19.5937384 115.138237,19.5154922 115.481762,19.5154922 C115.916893,19.5154922 116.273772,19.574654 116.552409,19.6929793 C116.831046,19.8113045 117.050517,19.9754307 117.210829,20.1853627 C117.371141,20.3952946 117.483739,20.6510261 117.548627,20.9525648 C117.613515,21.2541034 117.645959,21.5880811 117.645959,21.9545078 L117.645959,25.5958549 L116.019948,25.5958549 L116.019948,22.252228 C116.019948,21.763659 115.943611,21.3991463 115.790933,21.1586788 C115.638255,20.9182112 115.367256,20.7979793 114.977927,20.7979793 C114.535162,20.7979793 114.214543,20.9296619 114.016062,21.1930311 C113.817581,21.4564003 113.718342,21.889617 113.718342,22.4926943 L113.718342,25.5958549 L112.092332,25.5958549 L112.092332,19.6758031 Z M121.196373,26.3287047 C121.020794,26.8096397 120.776513,27.1531596 120.463523,27.3592746 C120.150534,27.5653896 119.715409,27.6684456 119.158135,27.6684456 C118.99019,27.6684456 118.824155,27.6627203 118.660026,27.6512694 C118.495897,27.6398186 118.329863,27.6264595 118.161917,27.6111917 L118.161917,26.2714508 C118.314595,26.2867186 118.471087,26.3019861 118.631399,26.3172539 C118.791711,26.3325217 118.95202,26.3363386 119.112332,26.3287047 C119.326081,26.305803 119.484481,26.2218315 119.587539,26.0767876 C119.690597,25.9317437 119.742124,25.7714344 119.742124,25.5958549 C119.742124,25.4660788 119.719223,25.3439384 119.67342,25.2294301 L117.600829,19.6758031 L119.329896,19.6758031 L120.669637,23.7293782 L120.692539,23.7293782 L121.986477,19.6758031 L123.669741,19.6758031 L121.196373,26.3287047 Z M123.544456,21.4964767 C123.567358,21.1147822 123.66278,20.7979806 123.830725,20.5460622 C123.998671,20.2941438 124.212417,20.0918488 124.471969,19.939171 C124.731522,19.7864932 125.023513,19.6777119 125.347953,19.6128238 C125.672394,19.5479358 125.998737,19.5154922 126.326995,19.5154922 C126.624716,19.5154922 126.926251,19.5364851 127.231606,19.5784715 C127.536962,19.6204579 127.815595,19.702521 128.067513,19.8246632 C128.319431,19.9468054 128.525543,20.116657 128.685855,20.3342228 C128.846166,20.5517886 128.926321,20.8399637 128.926321,21.1987565 L128.926321,24.2790155 C128.926321,24.5462016 128.941589,24.8019331 128.972124,25.0462176 C129.00266,25.2905021 129.056096,25.4737127 129.132435,25.5958549 L127.483523,25.5958549 C127.452988,25.5042482 127.428178,25.4107345 127.409093,25.3153109 C127.390009,25.2198872 127.37665,25.1225566 127.369016,25.0233161 C127.109463,25.2905022 126.804112,25.4775297 126.452953,25.5844041 C126.101794,25.6912786 125.743007,25.744715 125.37658,25.744715 C125.094127,25.744715 124.830762,25.710363 124.586477,25.641658 C124.342193,25.572953 124.128447,25.4660802 123.945233,25.3210363 C123.76202,25.1759924 123.618887,24.9927818 123.515829,24.771399 C123.412771,24.5500162 123.361244,24.2866509 123.361244,23.9812953 C123.361244,23.6454042 123.420406,23.3686798 123.538731,23.151114 C123.657056,22.9335481 123.809731,22.7598797 123.996762,22.6301036 C124.183792,22.5003275 124.397538,22.4029969 124.638005,22.3381088 C124.878473,22.2732208 125.120845,22.2216928 125.36513,22.1835233 C125.609414,22.1453539 125.849878,22.1148188 126.086528,22.0919171 C126.323179,22.0690154 126.533108,22.0346634 126.716321,21.9888601 C126.899535,21.9430568 127.044577,21.8762612 127.151451,21.7884715 C127.258326,21.7006818 127.307945,21.5728161 127.300311,21.4048705 C127.300311,21.229291 127.271685,21.0899746 127.21443,20.9869171 C127.157176,20.8838596 127.080839,20.8037049 126.985415,20.7464508 C126.889991,20.6891966 126.779301,20.6510277 126.653342,20.631943 C126.527383,20.6128583 126.391884,20.6033161 126.246839,20.6033161 C125.926216,20.6033161 125.674302,20.6720201 125.491088,20.8094301 C125.307875,20.9468401 125.201002,21.1758533 125.170466,21.4964767 L123.544456,21.4964767 Z M127.300311,22.6988083 C127.231606,22.7598794 127.145726,22.8075905 127.042668,22.841943 C126.939611,22.8762955 126.828921,22.9049221 126.710596,22.9278238 C126.592271,22.9507255 126.468222,22.9698099 126.338446,22.9850777 C126.20867,23.0003455 126.078896,23.0194299 125.949119,23.0423316 C125.826977,23.0652333 125.706745,23.0957683 125.58842,23.1339378 C125.470095,23.1721072 125.367038,23.2236353 125.279249,23.2885233 C125.191459,23.3534114 125.120847,23.4354744 125.067409,23.534715 C125.013973,23.6339556 124.987254,23.7599129 124.987254,23.9125907 C124.987254,24.0576346 125.013973,24.179775 125.067409,24.2790155 C125.120847,24.3782561 125.193368,24.4565023 125.284974,24.5137565 C125.376581,24.5710106 125.483454,24.6110879 125.605596,24.6339896 C125.727739,24.6568913 125.853696,24.668342 125.983472,24.668342 C126.304095,24.668342 126.552193,24.6149056 126.727772,24.5080311 C126.903352,24.4011566 127.033126,24.2732909 127.117098,24.1244301 C127.201072,23.9755692 127.2526,23.8248021 127.271684,23.6721244 C127.290769,23.5194466 127.300311,23.3973062 127.300311,23.3056995 L127.300311,22.6988083 Z" id="institut-obert-de-ca-copy"></path>
                <path d="M5.38860104,4.8261658 L5.38860104,0.491709845 L0.127979275,0.491709845 L0.127979275,4.8261658 L5.38860104,4.8261658 Z M0.127979275,7.78989637 L0.127979275,26.9430052 L5.38860104,26.9430052 L5.38860104,7.78989637 L0.127979275,7.78989637 Z M12.7238342,17.3849741 C12.7238342,18.1506084 12.7979267,18.8977079 12.946114,19.6262953 C13.0943013,20.3548828 13.3474507,21.0093667 13.7055699,21.5897668 C14.0636892,22.170167 14.5391162,22.6332452 15.1318653,22.9790155 C15.7246144,23.3247858 16.4655396,23.4976684 17.3546632,23.4976684 C18.2437868,23.4976684 18.9908864,23.3247858 19.5959845,22.9790155 C20.2010825,22.6332452 20.6826838,22.170167 21.0408031,21.5897668 C21.3989223,21.0093667 21.6520718,20.3548828 21.8002591,19.6262953 C21.9484463,18.8977079 22.0225389,18.1506084 22.0225389,17.3849741 C22.0225389,16.6193399 21.9484463,15.8660659 21.8002591,15.1251295 C21.6520718,14.3841932 21.3989223,13.7297093 21.0408031,13.161658 C20.6826838,12.5936068 20.2010825,12.1305285 19.5959845,11.7724093 C18.9908864,11.4142901 18.2437868,11.2352332 17.3546632,11.2352332 C16.4655396,11.2352332 15.7246144,11.4142901 15.1318653,11.7724093 C14.5391162,12.1305285 14.0636892,12.5936068 13.7055699,13.161658 C13.3474507,13.7297093 13.0943013,14.3841932 12.946114,15.1251295 C12.7979267,15.8660659 12.7238342,16.6193399 12.7238342,17.3849741 Z M7.46321244,17.3849741 C7.46321244,15.8537056 7.69783873,14.4644708 8.16709845,13.217228 C8.6363581,11.9699851 9.30319081,10.9079923 10.1676166,10.0312176 C11.0320423,9.15444292 12.0693376,8.47526149 13.2795337,7.99365285 C14.4897297,7.51204421 15.8480926,7.27124352 17.3546632,7.27124352 C18.8612338,7.27124352 20.2257711,7.51204421 21.4483161,7.99365285 C22.670861,8.47526149 23.7143307,9.15444292 24.5787565,10.0312176 C25.4431822,10.9079923 26.1100149,11.9699851 26.5792746,13.217228 C27.0485343,14.4644708 27.2831606,15.8537056 27.2831606,17.3849741 C27.2831606,18.9162425 27.0485343,20.299303 26.5792746,21.5341969 C26.1100149,22.7690908 25.4431822,23.8249092 24.5787565,24.7016839 C23.7143307,25.5784586 22.670861,26.2514657 21.4483161,26.7207254 C20.2257711,27.189985 18.8612338,27.4246114 17.3546632,27.4246114 C15.8480926,27.4246114 14.4897297,27.189985 13.2795337,26.7207254 C12.0693376,26.2514657 11.0320423,25.5784586 10.1676166,24.7016839 C9.30319081,23.8249092 8.6363581,22.7690908 8.16709845,21.5341969 C7.69783873,20.299303 7.46321244,18.9162425 7.46321244,17.3849741 Z M42.2499999,14.5323834 L47.3994818,14.5323834 C47.3253882,13.2974895 47.0290181,12.2293223 46.5103626,11.3278497 C45.9917072,10.4263772 45.3187001,9.67310318 44.4913212,9.06800518 C43.6639422,8.46290718 42.7254369,8.01217765 41.6757771,7.71580311 C40.6261173,7.41942857 39.5332526,7.27124352 38.3971502,7.27124352 C36.8411839,7.27124352 35.4581235,7.53056739 34.2479274,8.0492228 C33.0377314,8.56787827 32.0127848,9.29028033 31.1730569,10.2164508 C30.3333291,11.1426212 29.6973683,12.2416603 29.2651554,13.513601 C28.8329425,14.7855418 28.6168393,16.1624278 28.6168393,17.6443005 C28.6168393,19.0767775 28.8514657,20.3919198 29.3207253,21.5897668 C29.789985,22.7876139 30.444469,23.8187348 31.2841968,24.6831606 C32.1239247,25.5475863 33.1426969,26.2205934 34.340544,26.7022021 C35.5383911,27.1838107 36.8535334,27.4246114 38.2860103,27.4246114 C40.8298918,27.4246114 42.9168312,26.7577787 44.5468911,25.4240933 C46.1769511,24.0904078 47.1648514,22.1516534 47.5106217,19.607772 L42.4352331,19.607772 C42.262348,20.7932702 41.836316,21.7379499 41.1571243,22.4418394 C40.4779326,23.1457289 39.5085555,23.4976684 38.2489637,23.4976684 C37.4339337,23.4976684 36.7424035,23.3124371 36.1743523,22.9419689 C35.6063011,22.5715007 35.1555716,22.0960737 34.8221502,21.5156736 C34.4887288,20.9352734 34.2479281,20.2869638 34.0997409,19.5707254 C33.9515536,18.854487 33.8774611,18.1506079 33.8774611,17.4590674 C33.8774611,16.7428289 33.9515536,16.0204268 34.0997409,15.2918394 C34.2479281,14.563252 34.5010776,13.8964192 34.8591968,13.2913212 C35.217316,12.6862232 35.6803944,12.1922731 36.2484455,11.809456 C36.8164968,11.4266388 37.5203757,11.2352332 38.3601036,11.2352332 C40.6076105,11.2352332 41.9042296,12.3342723 42.2499999,14.5323834 Z" id="ioc-copy"></path>
            </g>
            <g id="Group" transform="translate(49.373059, 4.849741)">
                <g id="Polygon">
                    <g id="path-2-link" fill="#009CDA">
                        <polygon id="path-2" points="5.7253886 0 11.4507772 3.19948187 11.4507772 9.5984456 5.7253886 12.7979275 0 9.5984456 0 3.19948187"></polygon>
                    </g>
                    <g id="path-2-link" opacity="0.350000024" fill="url(#linearGradient-2)">
                        <polygon id="path-2" points="5.7253886 0 11.4507772 3.19948187 11.4507772 9.5984456 5.7253886 12.7979275 0 9.5984456 0 3.19948187"></polygon>
                    </g>
                </g>
            </g>
        </g>
    </g>
</svg>