<?xml version="1.0" encoding="UTF-8" standalone="no"?>
<svg width="193px" height="26px" viewBox="0 0 193 26" version="1.1" xmlns="http://www.w3.org/2000/svg" xmlns:xlink="http://www.w3.org/1999/xlink">
    <!-- Generator: Sketch 43.2 (39069) - http://www.bohemiancoding.com/sketch -->
    <title>logo_dep_ens</title>
    <desc>Created with Sketch.</desc>
    <defs></defs>
    <g id="Page-1" stroke="none" stroke-width="1" fill="none" fill-rule="evenodd" opacity="0.599871735">
        <g id="logo_dep_ens" fill-rule="nonzero" fill="#FFFFFF">
            <path d="M3.667,17.101 C2.79,15.541 2.278,13.662 2.278,11.642 C2.278,9.622 2.79,7.744 3.667,6.184 L3.667,17.101" id="Fill-3085"></path>
            <path d="M5.746,3.635 C6.292,3.172 6.888,2.787 7.522,2.494 L7.522,20.79 C6.888,20.496 6.292,20.112 5.746,19.65 L5.746,3.635" id="Fill-3086"></path>
            <path d="M9.601,1.892 C9.892,1.854 10.187,1.834 10.486,1.834 C10.786,1.834 11.084,1.854 11.377,1.892 L11.377,21.392 C11.084,21.429 10.786,21.45 10.486,21.45 C10.187,21.45 9.892,21.43 9.601,21.392 L9.601,1.892" id="Fill-3087"></path>
            <path d="M13.457,2.497 C14.09,2.791 14.686,3.176 15.232,3.64 L15.232,19.644 C14.686,20.107 14.09,20.493 13.457,20.786 L13.457,2.497" id="Fill-3088"></path>
            <path d="M17.313,6.195 C18.185,7.752 18.693,9.626 18.693,11.642 C18.693,13.657 18.185,15.53 17.313,17.089 L17.313,6.195" id="Fill-3089"></path>
            <path d="M15.232,2.657 L15.232,3.203 C14.682,2.765 14.087,2.401 13.457,2.124 L13.457,1.649 C14.084,1.908 14.677,2.248 15.232,2.657" id="Fill-3090"></path>
            <path d="M10.486,1.054 C10.786,1.054 11.084,1.072 11.377,1.105 L11.377,1.546 C11.084,1.511 10.786,1.493 10.486,1.493 C10.187,1.493 9.893,1.511 9.601,1.546 L9.601,1.105 C9.893,1.072 10.187,1.054 10.486,1.054" id="Fill-3091"></path>
            <path d="M7.522,1.647 L7.522,2.121 C6.891,2.397 6.296,2.761 5.746,3.198 L5.746,2.652 C6.3,2.244 6.896,1.905 7.522,1.647" id="Fill-3092"></path>
            <path d="M1.513,11.642 C1.513,9.015 2.324,6.614 3.667,4.762 L3.667,5.532 C2.586,7.232 1.945,9.347 1.945,11.642 C1.945,13.937 2.586,16.052 3.667,17.752 L3.667,18.522 C2.324,16.671 1.513,14.267 1.513,11.642" id="Fill-3093"></path>
            <path d="M5.746,20.632 L5.746,20.085 C6.296,20.523 6.891,20.885 7.522,21.163 L7.522,21.638 C6.896,21.379 6.3,21.04 5.746,20.632" id="Fill-3094"></path>
            <path d="M10.486,22.23 C10.187,22.23 9.893,22.212 9.601,22.179 L9.601,21.737 C9.893,21.774 10.187,21.791 10.486,21.791 C10.786,21.791 11.084,21.772 11.377,21.737 L11.377,22.179 C11.084,22.212 10.786,22.23 10.486,22.23" id="Fill-3095"></path>
            <path d="M13.457,21.635 L13.457,21.16 C14.087,20.882 14.682,20.519 15.232,20.081 L15.232,20.628 C14.677,21.037 14.084,21.376 13.457,21.635" id="Fill-3096"></path>
            <path d="M17.313,17.743 C18.389,16.044 19.027,13.931 19.027,11.642 C19.027,9.352 18.389,7.24 17.313,5.542 L17.313,4.772 C18.651,6.62 19.459,9.019 19.459,11.642 C19.459,14.265 18.651,16.663 17.313,18.512 L17.313,17.743" id="Fill-3097"></path>
            <path d="M20.197,21.165 C20.058,21.222 19.336,21.462 19.336,21.462 L19.327,21.472 C19.323,21.415 19.31,21.358 19.285,21.305 L19.283,21.292 C19.535,21.142 19.663,20.942 19.666,20.909 C19.665,20.905 19.691,20.879 19.693,20.88 C19.694,20.88 19.694,20.881 19.694,20.884 C19.716,20.912 20.001,21.123 20.197,21.165" id="Fill-3099"></path>
            <path d="M19.693,17.883 C20.252,16.44 20.153,16.393 20.312,15.793 C20.15,17.81 19.548,19.472 18.964,20.997 C18.964,20.997 18.83,20.956 18.761,20.97 C18.641,20.83 18.614,20.631 18.614,20.631 C18.313,19.647 19.254,19.015 19.693,17.883" id="Fill-3100"></path>
            <path d="M17.797,20.547 L18.439,21.083 L18.441,21.087 C18.423,21.1 18.404,21.115 18.387,21.132 C18.357,21.163 18.331,21.197 18.31,21.234 L18.307,21.243 C17.995,21.091 17.791,21.094 17.791,21.094 C17.87,20.756 17.797,20.547 17.797,20.547" id="Fill-3101"></path>
            <path d="M14.1,22.966 L14.922,22.709 C16.22,22.243 16.686,21.274 17.663,21.33 C17.872,21.352 18.046,21.392 18.219,21.49 C18.213,21.553 18.233,21.628 18.251,21.69 L18.237,21.691 C17.422,22.184 15.635,22.746 14.1,22.966" id="Fill-3102"></path>
            <path d="M18.403,22.922 C18.364,22.82 18.344,22.583 18.197,22.42 C18.393,22.255 18.435,22.163 18.5,22 L18.506,22.002 C18.567,22.037 18.636,22.06 18.706,22.065 L18.714,22.064 L18.403,22.922" id="Fill-3103"></path>
            <path d="M18.552,21.749 C18.428,21.624 18.428,21.421 18.555,21.296 C18.679,21.172 18.881,21.173 19.007,21.297 C19.131,21.423 19.131,21.626 19.006,21.75 C18.88,21.875 18.677,21.874 18.552,21.749" id="Fill-3104"></path>
            <path d="M19.172,22.475 C19.027,22.307 19.038,22.252 18.984,22.026 C19.055,22.004 19.163,21.929 19.214,21.859 L20.215,22.938 C19.843,22.972 19.402,22.757 19.172,22.475" id="Fill-3105"></path>
            <path d="M20.197,2.164 C20.058,2.108 19.336,1.867 19.336,1.867 L19.327,1.858 C19.323,1.915 19.31,1.971 19.285,2.025 L19.283,2.037 C19.535,2.188 19.663,2.387 19.666,2.421 C19.665,2.423 19.691,2.45 19.693,2.448 C19.694,2.448 19.694,2.448 19.694,2.446 C19.716,2.417 20.001,2.205 20.197,2.164" id="Fill-3107"></path>
            <path d="M19.693,5.447 C20.252,6.888 20.153,6.937 20.312,7.536 C20.15,5.521 19.548,3.857 18.964,2.331 C18.964,2.331 18.83,2.372 18.761,2.36 C18.641,2.5 18.614,2.698 18.614,2.698 C18.313,3.682 19.254,4.313 19.693,5.447" id="Fill-3108"></path>
            <path d="M17.797,2.782 L18.439,2.247 L18.441,2.242 C18.423,2.229 18.404,2.212 18.387,2.197 C18.357,2.165 18.331,2.131 18.31,2.095 L18.307,2.087 C17.995,2.238 17.791,2.236 17.791,2.236 C17.87,2.573 17.797,2.782 17.797,2.782" id="Fill-3109"></path>
            <path d="M14.1,0.364 L14.922,0.619 C16.22,1.085 16.686,2.055 17.663,1.999 C17.872,1.978 18.046,1.937 18.219,1.84 C18.213,1.775 18.233,1.701 18.251,1.639 L18.237,1.639 C17.422,1.144 15.635,0.583 14.1,0.364" id="Fill-3110"></path>
            <path d="M18.403,0.407 C18.364,0.508 18.344,0.746 18.197,0.908 C18.393,1.075 18.435,1.166 18.5,1.33 L18.506,1.328 C18.567,1.291 18.636,1.27 18.706,1.262 L18.714,1.265 L18.403,0.407" id="Fill-3111"></path>
            <path d="M18.552,1.58 C18.428,1.705 18.428,1.908 18.555,2.033 C18.679,2.157 18.881,2.156 19.007,2.031 C19.131,1.906 19.131,1.704 19.006,1.578 C18.88,1.454 18.677,1.454 18.552,1.58" id="Fill-3112"></path>
            <path d="M19.172,0.853 C19.027,1.022 19.038,1.075 18.984,1.304 C19.055,1.324 19.163,1.4 19.214,1.47 L20.215,0.391 C19.843,0.357 19.402,0.572 19.172,0.853" id="Fill-3113"></path>
            <path d="M0.777,21.145 C0.915,21.203 1.637,21.444 1.637,21.444 L1.647,21.453 C1.649,21.395 1.664,21.338 1.688,21.285 L1.691,21.273 C1.438,21.122 1.311,20.922 1.307,20.889 C1.309,20.886 1.283,20.859 1.281,20.859 C1.279,20.861 1.279,20.862 1.279,20.864 C1.257,20.893 0.973,21.105 0.777,21.145" id="Fill-3115"></path>
            <path d="M1.28,17.863 C0.722,16.421 0.82,16.374 0.662,15.774 C0.822,17.79 1.426,19.453 2.009,20.978 C2.009,20.978 2.143,20.936 2.211,20.95 C2.333,20.81 2.359,20.611 2.359,20.611 C2.66,19.627 1.718,18.996 1.28,17.863" id="Fill-3116"></path>
            <path d="M3.177,20.529 L2.534,21.063 L2.532,21.067 C2.55,21.081 2.569,21.096 2.586,21.114 C2.616,21.145 2.643,21.179 2.664,21.214 L2.666,21.224 C2.979,21.072 3.182,21.074 3.182,21.074 C3.103,20.737 3.177,20.529 3.177,20.529" id="Fill-3117"></path>
            <path d="M6.874,22.946 L6.052,22.69 C4.754,22.224 4.287,21.255 3.31,21.31 C3.101,21.332 2.927,21.374 2.754,21.47 C2.761,21.534 2.74,21.608 2.722,21.67 L2.736,21.67 C3.552,22.164 5.338,22.727 6.874,22.946" id="Fill-3118"></path>
            <path d="M2.571,22.902 C2.609,22.801 2.63,22.563 2.776,22.401 C2.58,22.235 2.538,22.143 2.473,21.98 L2.467,21.982 C2.405,22.019 2.337,22.039 2.268,22.045 L2.26,22.045 L2.571,22.902" id="Fill-3119"></path>
            <path d="M2.42,21.73 C2.545,21.604 2.545,21.401 2.419,21.277 C2.294,21.152 2.091,21.153 1.966,21.278 C1.842,21.403 1.842,21.606 1.968,21.73 C2.093,21.857 2.295,21.856 2.42,21.73" id="Fill-3120"></path>
            <path d="M1.801,22.457 C1.945,22.288 1.935,22.234 1.99,22.006 C1.918,21.986 1.811,21.91 1.76,21.841 L0.758,22.918 C1.13,22.953 1.571,22.738 1.801,22.457" id="Fill-3121"></path>
            <path d="M0.777,2.146 C0.915,2.088 1.637,1.848 1.637,1.848 L1.647,1.838 C1.649,1.895 1.664,1.952 1.688,2.005 L1.691,2.018 C1.438,2.168 1.311,2.368 1.307,2.401 C1.309,2.405 1.283,2.431 1.281,2.43 C1.279,2.429 1.279,2.428 1.279,2.426 C1.257,2.397 0.973,2.186 0.777,2.146" id="Fill-3123"></path>
            <path d="M1.28,5.428 C0.722,6.87 0.82,6.917 0.662,7.516 C0.822,5.5 1.426,3.837 2.009,2.313 C2.009,2.313 2.143,2.353 2.211,2.341 C2.333,2.479 2.359,2.679 2.359,2.679 C2.66,3.662 1.718,4.294 1.28,5.428" id="Fill-3124"></path>
            <path d="M3.177,2.762 L2.534,2.228 L2.532,2.223 C2.55,2.208 2.569,2.194 2.586,2.177 C2.616,2.146 2.643,2.112 2.664,2.077 L2.666,2.067 C2.979,2.218 3.182,2.216 3.182,2.216 C3.103,2.553 3.177,2.762 3.177,2.762" id="Fill-3125"></path>
            <path d="M6.874,0.345 L6.052,0.601 C4.754,1.066 4.287,2.035 3.31,1.98 C3.101,1.959 2.927,1.917 2.754,1.819 C2.761,1.755 2.74,1.682 2.722,1.62 L2.736,1.62 C3.552,1.126 5.338,0.564 6.874,0.345" id="Fill-3126"></path>
            <path d="M2.571,0.388 C2.609,0.489 2.63,0.727 2.776,0.888 C2.58,1.056 2.538,1.147 2.473,1.31 L2.467,1.308 C2.405,1.271 2.337,1.25 2.268,1.244 L2.26,1.245 L2.571,0.388" id="Fill-3127"></path>
            <path d="M2.42,1.56 C2.545,1.685 2.545,1.889 2.419,2.013 C2.294,2.138 2.091,2.138 1.966,2.012 C1.842,1.888 1.842,1.684 1.968,1.56 C2.093,1.434 2.295,1.435 2.42,1.56" id="Fill-3128"></path>
            <path d="M1.801,0.834 C1.945,1.003 1.935,1.057 1.99,1.284 C1.918,1.304 1.811,1.38 1.76,1.45 L0.758,0.372 C1.13,0.337 1.571,0.554 1.801,0.834" id="Fill-3129"></path>
            <path d="M27.356,23.095 L31.051,23.095 C31.923,23.088 32.646,22.898 33.222,22.525 C33.797,22.152 34.227,21.64 34.512,20.992 C34.797,20.342 34.939,19.6 34.938,18.765 C34.931,17.817 34.76,17.029 34.424,16.402 C34.088,15.775 33.629,15.306 33.046,14.995 C32.463,14.684 31.798,14.529 31.051,14.529 L27.356,14.529 L27.356,23.095 Z M29.238,16.112 L30.583,16.112 C31.505,16.121 32.151,16.378 32.521,16.88 C32.892,17.382 33.07,18.07 33.056,18.944 C33.05,19.573 32.946,20.076 32.745,20.454 C32.543,20.83 32.281,21.102 31.958,21.268 C31.636,21.435 31.289,21.517 30.919,21.513 L29.238,21.513 L29.238,16.112 L29.238,16.112 Z" id="Fill-3130"></path>
            <path d="M41.949,20.408 C41.989,19.762 41.903,19.161 41.691,18.605 C41.479,18.049 41.144,17.599 40.683,17.256 C40.224,16.912 39.641,16.735 38.937,16.725 C38.305,16.731 37.753,16.877 37.279,17.161 C36.806,17.445 36.437,17.833 36.173,18.324 C35.909,18.815 35.775,19.374 35.771,20 C35.78,20.977 36.064,21.76 36.621,22.352 C37.178,22.944 37.95,23.247 38.937,23.264 C39.643,23.268 40.242,23.103 40.736,22.769 C41.23,22.435 41.598,21.904 41.841,21.176 L40.341,21.176 C40.281,21.378 40.129,21.56 39.885,21.723 C39.642,21.886 39.346,21.971 38.997,21.981 C38.522,21.983 38.156,21.856 37.898,21.6 C37.64,21.344 37.499,20.946 37.473,20.408 L41.949,20.408 Z M37.473,19.329 C37.478,19.162 37.524,18.976 37.611,18.773 C37.698,18.57 37.844,18.393 38.047,18.243 C38.252,18.094 38.532,18.015 38.889,18.008 C39.298,18.009 39.608,18.121 39.819,18.344 C40.031,18.567 40.172,18.895 40.245,19.329 L37.473,19.329 L37.473,19.329 Z" id="Fill-3131"></path>
            <path d="M42.952,25.28 L44.654,25.28 L44.654,22.329 L44.678,22.329 C44.888,22.635 45.156,22.867 45.483,23.025 C45.809,23.184 46.162,23.263 46.54,23.264 C47.144,23.255 47.647,23.101 48.051,22.801 C48.454,22.502 48.757,22.111 48.959,21.627 C49.161,21.144 49.262,20.621 49.262,20.06 C49.264,19.464 49.164,18.914 48.964,18.412 C48.763,17.909 48.455,17.504 48.038,17.198 C47.622,16.891 47.09,16.734 46.443,16.725 C46.056,16.724 45.703,16.801 45.384,16.958 C45.065,17.113 44.802,17.356 44.594,17.684 L44.571,17.684 L44.571,16.893 L42.952,16.893 L42.952,25.28 Z M46.083,21.981 C45.538,21.962 45.152,21.76 44.925,21.375 C44.697,20.99 44.588,20.536 44.594,20.012 C44.592,19.67 44.637,19.348 44.729,19.044 C44.821,18.742 44.976,18.495 45.192,18.303 C45.408,18.112 45.701,18.014 46.071,18.008 C46.434,18.014 46.724,18.115 46.943,18.309 C47.162,18.503 47.32,18.752 47.417,19.055 C47.514,19.359 47.562,19.678 47.56,20.012 C47.568,20.536 47.462,20.99 47.24,21.375 C47.019,21.76 46.633,21.962 46.083,21.981 L46.083,21.981 Z" id="Fill-3132"></path>
            <path d="M54.145,20.697 C54.152,20.831 54.131,21.01 54.083,21.232 C54.034,21.454 53.911,21.657 53.714,21.837 C53.517,22.018 53.2,22.114 52.764,22.125 C52.478,22.132 52.236,22.08 52.034,21.968 C51.833,21.856 51.728,21.645 51.719,21.333 C51.728,21.029 51.83,20.812 52.025,20.683 C52.22,20.554 52.454,20.467 52.728,20.42 C53,20.38 53.266,20.339 53.526,20.299 C53.786,20.259 53.993,20.18 54.145,20.06 L54.145,20.697 Z M51.911,18.8 C51.944,18.467 52.059,18.227 52.255,18.079 C52.451,17.933 52.713,17.861 53.04,17.864 C53.349,17.853 53.608,17.901 53.817,18.009 C54.027,18.117 54.136,18.348 54.145,18.704 C54.126,19.033 53.92,19.236 53.528,19.315 C53.135,19.393 52.668,19.461 52.127,19.52 C51.769,19.563 51.43,19.643 51.111,19.761 C50.792,19.878 50.531,20.066 50.329,20.324 C50.127,20.582 50.023,20.943 50.016,21.405 C50.031,22.038 50.236,22.507 50.631,22.811 C51.026,23.115 51.525,23.266 52.127,23.264 C52.512,23.267 52.887,23.209 53.253,23.091 C53.619,22.973 53.94,22.775 54.217,22.496 C54.223,22.599 54.237,22.7 54.258,22.801 C54.28,22.901 54.306,22.999 54.336,23.095 L56.063,23.095 C55.986,22.963 55.93,22.772 55.896,22.524 C55.863,22.274 55.846,22.005 55.847,21.717 L55.847,18.488 C55.836,17.998 55.693,17.626 55.416,17.37 C55.139,17.115 54.794,16.942 54.379,16.852 C53.965,16.762 53.547,16.719 53.124,16.725 C52.651,16.721 52.2,16.782 51.77,16.908 C51.341,17.035 50.983,17.249 50.697,17.553 C50.412,17.856 50.249,18.272 50.208,18.8 L51.911,18.8 L51.911,18.8 Z" id="Fill-3133"></path>
            <path d="M57.162,23.095 L58.864,23.095 L58.864,20.3 C58.856,19.739 58.98,19.27 59.236,18.895 C59.492,18.518 59.928,18.322 60.544,18.308 C60.649,18.308 60.757,18.313 60.868,18.324 C60.979,18.335 61.075,18.349 61.156,18.368 L61.156,16.785 C61.101,16.767 61.041,16.752 60.974,16.742 C60.909,16.731 60.845,16.726 60.784,16.725 C60.359,16.731 59.965,16.854 59.601,17.092 C59.237,17.331 58.971,17.648 58.804,18.044 L58.78,18.044 L58.78,16.893 L57.162,16.893 L57.162,23.095" id="Fill-3134"></path>
            <path d="M63.991,15.033 L62.289,15.033 L62.289,16.893 L61.257,16.893 L61.257,18.032 L62.289,18.032 L62.289,21.693 C62.305,22.295 62.5,22.695 62.875,22.893 C63.25,23.092 63.705,23.184 64.243,23.167 C64.414,23.168 64.586,23.164 64.759,23.155 C64.933,23.147 65.093,23.131 65.239,23.108 L65.239,21.777 C65.15,21.795 65.062,21.807 64.975,21.815 C64.889,21.822 64.801,21.826 64.711,21.825 C64.429,21.831 64.237,21.783 64.135,21.681 C64.033,21.579 63.985,21.387 63.991,21.105 L63.991,18.032 L65.239,18.032 L65.239,16.893 L63.991,16.893 L63.991,15.033" id="Fill-3135"></path>
            <path d="M69.921,20.697 C69.928,20.831 69.908,21.01 69.859,21.232 C69.81,21.454 69.687,21.657 69.49,21.837 C69.293,22.018 68.976,22.114 68.54,22.125 C68.255,22.132 68.011,22.08 67.81,21.968 C67.609,21.856 67.504,21.645 67.495,21.333 C67.504,21.029 67.606,20.812 67.801,20.683 C67.997,20.554 68.231,20.467 68.504,20.42 C68.776,20.38 69.042,20.339 69.302,20.299 C69.562,20.259 69.768,20.18 69.921,20.06 L69.921,20.697 Z M67.687,18.8 C67.72,18.467 67.835,18.227 68.031,18.079 C68.227,17.933 68.489,17.861 68.816,17.864 C69.125,17.853 69.384,17.901 69.593,18.009 C69.803,18.117 69.912,18.348 69.921,18.704 C69.902,19.033 69.696,19.236 69.304,19.315 C68.911,19.393 68.444,19.461 67.903,19.52 C67.545,19.563 67.206,19.643 66.887,19.761 C66.568,19.878 66.307,20.066 66.105,20.324 C65.903,20.582 65.799,20.943 65.793,21.405 C65.807,22.038 66.012,22.507 66.407,22.811 C66.802,23.115 67.301,23.266 67.903,23.264 C68.287,23.267 68.663,23.209 69.029,23.091 C69.395,22.973 69.716,22.775 69.993,22.496 C69.999,22.599 70.013,22.7 70.034,22.801 C70.056,22.901 70.082,22.999 70.113,23.095 L71.839,23.095 C71.762,22.963 71.706,22.772 71.673,22.524 C71.639,22.274 71.622,22.005 71.623,21.717 L71.623,18.488 C71.612,17.998 71.469,17.626 71.192,17.37 C70.915,17.115 70.57,16.942 70.155,16.852 C69.741,16.762 69.323,16.719 68.9,16.725 C68.427,16.721 67.976,16.782 67.546,16.908 C67.117,17.035 66.759,17.249 66.473,17.553 C66.188,17.856 66.025,18.272 65.984,18.8 L67.687,18.8 L67.687,18.8 Z" id="Fill-3136"></path>
            <path d="M72.985,23.095 L74.688,23.095 L74.688,19.495 C74.696,19.097 74.771,18.793 74.912,18.587 C75.054,18.38 75.214,18.241 75.393,18.168 C75.571,18.097 75.721,18.063 75.841,18.068 C76.194,18.074 76.443,18.154 76.589,18.309 C76.735,18.464 76.821,18.659 76.846,18.895 C76.872,19.129 76.881,19.37 76.874,19.615 L76.874,23.095 L78.576,23.095 L78.576,19.639 C78.564,19.233 78.634,18.873 78.786,18.561 C78.939,18.249 79.249,18.084 79.717,18.068 C80.186,18.079 80.482,18.227 80.604,18.513 C80.726,18.799 80.779,19.154 80.762,19.579 L80.762,23.095 L82.464,23.095 L82.464,18.944 C82.452,18.148 82.239,17.577 81.826,17.232 C81.412,16.886 80.869,16.717 80.197,16.725 C79.763,16.734 79.388,16.839 79.072,17.038 C78.755,17.237 78.506,17.477 78.324,17.756 C78.151,17.388 77.905,17.124 77.585,16.962 C77.267,16.801 76.909,16.721 76.513,16.725 C76.11,16.727 75.749,16.816 75.43,16.99 C75.111,17.165 74.839,17.412 74.616,17.732 L74.592,17.732 L74.592,16.893 L72.985,16.893 L72.985,23.095" id="Fill-3137"></path>
            <path d="M89.697,20.408 C89.737,19.762 89.651,19.161 89.439,18.605 C89.227,18.049 88.891,17.599 88.431,17.256 C87.972,16.912 87.39,16.735 86.685,16.725 C86.053,16.731 85.5,16.877 85.027,17.161 C84.554,17.445 84.185,17.833 83.921,18.324 C83.657,18.815 83.523,19.374 83.519,20 C83.528,20.977 83.812,21.76 84.369,22.352 C84.926,22.944 85.698,23.247 86.685,23.264 C87.39,23.268 87.99,23.103 88.484,22.769 C88.977,22.435 89.346,21.904 89.589,21.176 L88.089,21.176 C88.029,21.378 87.877,21.56 87.633,21.723 C87.39,21.886 87.094,21.971 86.745,21.981 C86.27,21.983 85.904,21.856 85.646,21.6 C85.388,21.344 85.247,20.946 85.221,20.408 L89.697,20.408 Z M85.221,19.329 C85.226,19.162 85.272,18.976 85.359,18.773 C85.446,18.57 85.591,18.393 85.795,18.243 C85.999,18.094 86.28,18.015 86.637,18.008 C87.046,18.009 87.356,18.121 87.567,18.344 C87.778,18.567 87.92,18.895 87.993,19.329 L85.221,19.329 L85.221,19.329 Z" id="Fill-3138"></path>
            <path d="M90.7,23.095 L92.402,23.095 L92.402,19.844 C92.399,19.218 92.504,18.765 92.716,18.483 C92.928,18.202 93.264,18.063 93.723,18.068 C94.115,18.067 94.396,18.194 94.567,18.447 C94.737,18.7 94.82,19.082 94.816,19.592 L94.816,23.095 L96.518,23.095 L96.518,19.28 C96.537,18.501 96.386,17.884 96.064,17.427 C95.743,16.97 95.138,16.736 94.252,16.725 C93.884,16.725 93.532,16.81 93.195,16.98 C92.858,17.15 92.577,17.409 92.354,17.756 L92.319,17.756 L92.319,16.893 L90.7,16.893 L90.7,23.095" id="Fill-3139"></path>
            <path d="M99.963,15.033 L98.261,15.033 L98.261,16.893 L97.229,16.893 L97.229,18.032 L98.261,18.032 L98.261,21.693 C98.277,22.295 98.472,22.695 98.847,22.893 C99.221,23.092 99.678,23.184 100.215,23.167 C100.386,23.168 100.558,23.164 100.731,23.155 C100.905,23.147 101.065,23.131 101.211,23.108 L101.211,21.777 C101.122,21.795 101.034,21.807 100.947,21.815 C100.86,21.822 100.773,21.826 100.683,21.825 C100.401,21.831 100.209,21.783 100.107,21.681 C100.005,21.579 99.957,21.387 99.963,21.105 L99.963,18.032 L101.211,18.032 L101.211,16.893 L99.963,16.893 L99.963,15.033" id="Fill-3140"></path>
            <path d="M109.785,23.095 L111.403,23.095 L111.403,14.529 L109.701,14.529 L109.701,17.648 L109.677,17.648 C109.478,17.342 109.215,17.112 108.889,16.958 C108.563,16.802 108.213,16.726 107.84,16.725 C107.232,16.734 106.724,16.888 106.317,17.188 C105.91,17.488 105.604,17.88 105.4,18.365 C105.195,18.85 105.093,19.375 105.093,19.94 C105.093,20.522 105.194,21.063 105.398,21.565 C105.603,22.067 105.91,22.472 106.323,22.784 C106.735,23.094 107.252,23.254 107.876,23.264 C108.276,23.266 108.64,23.19 108.967,23.036 C109.294,22.882 109.559,22.638 109.761,22.305 L109.785,22.305 L109.785,23.095 Z M109.761,19.976 C109.77,20.506 109.667,20.968 109.452,21.361 C109.236,21.755 108.851,21.962 108.296,21.981 C107.945,21.975 107.659,21.874 107.438,21.681 C107.216,21.487 107.054,21.239 106.95,20.937 C106.846,20.635 106.794,20.319 106.795,19.988 C106.788,19.459 106.899,19.002 107.127,18.615 C107.355,18.229 107.745,18.026 108.296,18.008 C108.84,18.027 109.223,18.229 109.443,18.614 C109.663,18.999 109.769,19.453 109.761,19.976 L109.761,19.976 Z" id="Fill-3141"></path>
            <path d="M112.853,16.375 L113.645,16.375 C113.65,16.671 113.594,16.921 113.479,17.125 C113.362,17.33 113.154,17.485 112.853,17.588 L112.853,18.38 C113.362,18.305 113.775,18.086 114.092,17.723 C114.408,17.36 114.563,16.907 114.556,16.364 L114.556,14.529 L112.853,14.529 L112.853,16.375" id="Fill-3142"></path>
            <polyline id="Fill-3143" points="116.194 23.095 122.696 23.095 122.696 21.513 118.076 21.513 118.076 19.412 122.228 19.412 122.228 17.949 118.076 17.949 118.076 16.112 122.601 16.112 122.601 14.529 116.194 14.529 116.194 23.095"></polyline>
            <path d="M123.79,23.095 L125.493,23.095 L125.493,19.844 C125.49,19.218 125.594,18.765 125.806,18.483 C126.018,18.202 126.354,18.063 126.813,18.068 C127.206,18.067 127.487,18.194 127.657,18.447 C127.827,18.7 127.91,19.082 127.906,19.592 L127.906,23.095 L129.609,23.095 L129.609,19.28 C129.627,18.501 129.476,17.884 129.154,17.427 C128.833,16.97 128.229,16.736 127.342,16.725 C126.974,16.725 126.622,16.81 126.285,16.98 C125.948,17.15 125.668,17.409 125.444,17.756 L125.409,17.756 L125.409,16.893 L123.79,16.893 L123.79,23.095" id="Fill-3144"></path>
            <path d="M130.595,21.08 C130.627,21.625 130.783,22.057 131.063,22.377 C131.343,22.697 131.698,22.926 132.13,23.063 C132.562,23.2 133.022,23.267 133.51,23.264 C133.991,23.267 134.446,23.201 134.874,23.066 C135.302,22.931 135.651,22.706 135.922,22.39 C136.193,22.073 136.333,21.645 136.342,21.105 C136.322,20.542 136.118,20.137 135.731,19.888 C135.344,19.639 134.892,19.464 134.375,19.364 C133.869,19.264 133.425,19.158 133.043,19.046 C132.662,18.934 132.461,18.732 132.441,18.44 C132.457,18.195 132.567,18.036 132.772,17.963 C132.976,17.889 133.183,17.856 133.39,17.864 C133.704,17.857 133.968,17.915 134.184,18.036 C134.4,18.158 134.524,18.38 134.555,18.704 L136.173,18.704 C136.124,18.2 135.968,17.803 135.707,17.514 C135.446,17.224 135.118,17.02 134.721,16.9 C134.324,16.78 133.896,16.721 133.438,16.725 C132.985,16.72 132.555,16.775 132.146,16.89 C131.738,17.004 131.403,17.206 131.143,17.496 C130.882,17.786 130.748,18.193 130.739,18.716 C130.745,19.076 130.842,19.365 131.03,19.583 C131.219,19.801 131.461,19.97 131.759,20.09 C132.056,20.21 132.372,20.304 132.706,20.372 C133.322,20.496 133.798,20.624 134.132,20.758 C134.466,20.892 134.635,21.084 134.639,21.333 C134.623,21.628 134.499,21.835 134.265,21.954 C134.032,22.073 133.784,22.13 133.522,22.125 C133.174,22.128 132.874,22.047 132.62,21.882 C132.367,21.717 132.231,21.45 132.214,21.08 L130.595,21.08" id="Fill-3145"></path>
            <path d="M143.207,20.408 C143.246,19.762 143.161,19.161 142.949,18.605 C142.737,18.049 142.401,17.599 141.941,17.256 C141.481,16.912 140.899,16.735 140.195,16.725 C139.563,16.731 139.01,16.877 138.537,17.161 C138.063,17.445 137.695,17.833 137.431,18.324 C137.167,18.815 137.033,19.374 137.028,20 C137.038,20.977 137.321,21.76 137.878,22.352 C138.435,22.944 139.208,23.247 140.195,23.264 C140.9,23.268 141.5,23.103 141.993,22.769 C142.487,22.435 142.856,21.904 143.099,21.176 L141.599,21.176 C141.538,21.378 141.386,21.56 141.143,21.723 C140.899,21.886 140.603,21.971 140.255,21.981 C139.78,21.983 139.413,21.856 139.155,21.6 C138.898,21.344 138.756,20.946 138.731,20.408 L143.207,20.408 Z M138.731,19.329 C138.736,19.162 138.782,18.976 138.869,18.773 C138.956,18.57 139.101,18.393 139.305,18.243 C139.509,18.094 139.79,18.015 140.147,18.008 C140.556,18.009 140.866,18.121 141.077,18.344 C141.288,18.567 141.43,18.895 141.503,19.329 L138.731,19.329 L138.731,19.329 Z" id="Fill-3146"></path>
            <path d="M144.209,23.095 L145.912,23.095 L145.912,19.844 C145.909,19.218 146.014,18.765 146.226,18.483 C146.437,18.202 146.773,18.063 147.233,18.068 C147.625,18.067 147.906,18.194 148.076,18.447 C148.247,18.7 148.33,19.082 148.325,19.592 L148.325,23.095 L150.028,23.095 L150.028,19.28 C150.047,18.501 149.895,17.884 149.574,17.427 C149.252,16.97 148.648,16.736 147.761,16.725 C147.394,16.725 147.042,16.81 146.705,16.98 C146.367,17.15 146.087,17.409 145.864,17.756 L145.828,17.756 L145.828,16.893 L144.209,16.893 L144.209,23.095" id="Fill-3147"></path>
            <path d="M156.965,16.893 L155.201,16.893 L153.846,21.141 L153.822,21.141 L152.418,16.893 L150.594,16.893 L152.778,22.713 C152.874,22.973 152.873,23.221 152.776,23.457 C152.679,23.693 152.484,23.833 152.19,23.877 C152.022,23.881 151.854,23.876 151.688,23.861 C151.521,23.845 151.356,23.831 151.194,23.817 L151.194,25.22 C151.542,25.258 151.89,25.278 152.238,25.28 C152.818,25.283 153.274,25.174 153.607,24.952 C153.94,24.729 154.195,24.371 154.373,23.877 L156.965,16.893" id="Fill-3148"></path>
            <path d="M161.416,20.697 C161.424,20.831 161.403,21.01 161.354,21.232 C161.305,21.454 161.182,21.657 160.986,21.837 C160.789,22.018 160.472,22.114 160.035,22.125 C159.75,22.132 159.507,22.08 159.306,21.968 C159.104,21.856 159,21.645 158.99,21.333 C159,21.029 159.101,20.812 159.297,20.683 C159.492,20.554 159.726,20.467 159.999,20.42 C160.271,20.38 160.537,20.339 160.798,20.299 C161.058,20.259 161.264,20.18 161.416,20.06 L161.416,20.697 Z M159.182,18.8 C159.216,18.467 159.33,18.227 159.526,18.079 C159.723,17.933 159.984,17.861 160.311,17.864 C160.62,17.853 160.879,17.901 161.089,18.009 C161.298,18.117 161.408,18.348 161.416,18.704 C161.397,19.033 161.192,19.236 160.799,19.315 C160.407,19.393 159.94,19.461 159.399,19.52 C159.04,19.563 158.702,19.643 158.382,19.761 C158.063,19.878 157.802,20.066 157.6,20.324 C157.399,20.582 157.295,20.943 157.288,21.405 C157.302,22.038 157.507,22.507 157.903,22.811 C158.298,23.115 158.797,23.266 159.399,23.264 C159.783,23.267 160.158,23.209 160.524,23.091 C160.891,22.973 161.212,22.775 161.488,22.496 C161.494,22.599 161.509,22.7 161.53,22.801 C161.551,22.901 161.577,22.999 161.608,23.095 L163.335,23.095 C163.257,22.963 163.202,22.772 163.168,22.524 C163.134,22.274 163.118,22.005 163.119,21.717 L163.119,18.488 C163.108,17.998 162.964,17.626 162.687,17.37 C162.411,17.115 162.065,16.942 161.651,16.852 C161.237,16.762 160.818,16.719 160.395,16.725 C159.922,16.721 159.471,16.782 159.042,16.908 C158.612,17.035 158.254,17.249 157.969,17.553 C157.683,17.856 157.52,18.272 157.48,18.8 L159.182,18.8 L159.182,18.8 Z" id="Fill-3149"></path>
            <path d="M164.481,23.095 L166.184,23.095 L166.184,19.495 C166.192,19.097 166.266,18.793 166.408,18.587 C166.549,18.38 166.709,18.241 166.888,18.168 C167.067,18.097 167.216,18.063 167.336,18.068 C167.689,18.074 167.939,18.154 168.084,18.309 C168.23,18.464 168.316,18.659 168.341,18.895 C168.367,19.129 168.376,19.37 168.369,19.615 L168.369,23.095 L170.072,23.095 L170.072,19.639 C170.059,19.233 170.129,18.873 170.282,18.561 C170.434,18.249 170.745,18.084 171.212,18.068 C171.681,18.079 171.977,18.227 172.1,18.513 C172.222,18.799 172.274,19.154 172.257,19.579 L172.257,23.095 L173.96,23.095 L173.96,18.944 C173.948,18.148 173.735,17.577 173.321,17.232 C172.907,16.886 172.365,16.717 171.693,16.725 C171.259,16.734 170.884,16.839 170.567,17.038 C170.25,17.237 170.001,17.477 169.82,17.756 C169.646,17.388 169.4,17.124 169.081,16.962 C168.762,16.801 168.405,16.721 168.009,16.725 C167.606,16.727 167.244,16.816 166.925,16.99 C166.606,17.165 166.335,17.412 166.112,17.732 L166.088,17.732 L166.088,16.893 L164.481,16.893 L164.481,23.095" id="Fill-3150"></path>
            <path d="M181.192,20.408 C181.232,19.762 181.146,19.161 180.934,18.605 C180.723,18.049 180.387,17.599 179.927,17.256 C179.467,16.912 178.885,16.735 178.18,16.725 C177.549,16.731 176.996,16.877 176.522,17.161 C176.049,17.445 175.681,17.833 175.417,18.324 C175.153,18.815 175.018,19.374 175.014,20 C175.024,20.977 175.307,21.76 175.864,22.352 C176.421,22.944 177.193,23.247 178.18,23.264 C178.886,23.268 179.486,23.103 179.979,22.769 C180.473,22.435 180.842,21.904 181.085,21.176 L179.585,21.176 C179.524,21.378 179.372,21.56 179.129,21.723 C178.885,21.886 178.589,21.971 178.241,21.981 C177.765,21.983 177.399,21.856 177.141,21.6 C176.884,21.344 176.742,20.946 176.717,20.408 L181.192,20.408 Z M176.717,19.329 C176.721,19.162 176.767,18.976 176.854,18.773 C176.941,18.57 177.087,18.393 177.291,18.243 C177.495,18.094 177.776,18.015 178.133,18.008 C178.542,18.009 178.852,18.121 179.063,18.344 C179.274,18.567 179.416,18.895 179.489,19.329 L176.717,19.329 L176.717,19.329 Z" id="Fill-3151"></path>
            <path d="M182.195,23.095 L183.898,23.095 L183.898,19.844 C183.895,19.218 183.999,18.765 184.211,18.483 C184.423,18.202 184.759,18.063 185.219,18.068 C185.611,18.067 185.892,18.194 186.062,18.447 C186.232,18.7 186.315,19.082 186.311,19.592 L186.311,23.095 L188.014,23.095 L188.014,19.28 C188.033,18.501 187.881,17.884 187.56,17.427 C187.238,16.97 186.634,16.736 185.747,16.725 C185.38,16.725 185.028,16.81 184.69,16.98 C184.353,17.15 184.073,17.409 183.85,17.756 L183.814,17.756 L183.814,16.893 L182.195,16.893 L182.195,23.095" id="Fill-3152"></path>
            <path d="M191.459,15.033 L189.756,15.033 L189.756,16.893 L188.724,16.893 L188.724,18.032 L189.756,18.032 L189.756,21.693 C189.772,22.295 189.968,22.695 190.342,22.893 C190.717,23.092 191.173,23.184 191.711,23.167 C191.881,23.168 192.053,23.164 192.227,23.155 C192.4,23.147 192.56,23.131 192.707,23.108 L192.707,21.777 C192.617,21.795 192.529,21.807 192.442,21.815 C192.356,21.822 192.268,21.826 192.178,21.825 C191.897,21.831 191.704,21.783 191.603,21.681 C191.501,21.579 191.452,21.387 191.459,21.105 L191.459,18.032 L192.707,18.032 L192.707,16.893 L191.459,16.893 L191.459,15.033" id="Fill-3153"></path>
            <path d="M34.71,6.741 L31.075,6.741 L31.075,7.435 L33.992,7.435 C34.003,8.36 33.75,9.111 33.234,9.688 C32.718,10.266 31.983,10.563 31.027,10.581 C30.273,10.569 29.658,10.382 29.182,10.02 C28.706,9.658 28.355,9.192 28.131,8.621 C27.907,8.051 27.796,7.449 27.798,6.813 C27.796,6.177 27.907,5.574 28.131,5.003 C28.355,4.433 28.706,3.967 29.182,3.605 C29.658,3.242 30.273,3.055 31.027,3.043 C31.573,3.052 32.045,3.165 32.444,3.382 C32.843,3.599 33.157,3.871 33.387,4.198 C33.616,4.525 33.75,4.856 33.788,5.193 L34.602,5.193 C34.43,4.255 34.02,3.547 33.373,3.068 C32.726,2.59 31.944,2.35 31.027,2.349 C30.127,2.361 29.377,2.573 28.778,2.986 C28.18,3.4 27.731,3.942 27.432,4.615 C27.133,5.289 26.984,6.021 26.984,6.813 C26.984,7.604 27.133,8.337 27.432,9.01 C27.731,9.683 28.18,10.225 28.778,10.638 C29.377,11.052 30.127,11.264 31.027,11.276 C31.655,11.28 32.232,11.143 32.757,10.865 C33.282,10.587 33.693,10.144 33.992,9.536 L34.016,9.536 L34.124,11.095 L34.71,11.095 L34.71,6.741" id="Fill-3154"></path>
            <path d="M41.357,8.204 C41.38,7.613 41.301,7.055 41.121,6.529 C40.941,6.003 40.647,5.573 40.239,5.241 C39.831,4.907 39.296,4.736 38.634,4.725 C37.98,4.735 37.447,4.897 37.035,5.212 C36.622,5.526 36.319,5.931 36.126,6.426 C35.933,6.921 35.837,7.446 35.839,8 C35.837,8.596 35.933,9.141 36.126,9.634 C36.319,10.127 36.622,10.521 37.035,10.818 C37.447,11.116 37.98,11.268 38.634,11.276 C39.409,11.271 40.014,11.077 40.448,10.693 C40.882,10.309 41.177,9.763 41.333,9.056 L40.579,9.056 C40.462,9.532 40.246,9.913 39.931,10.2 C39.615,10.487 39.183,10.634 38.634,10.641 C38.152,10.632 37.761,10.503 37.462,10.255 C37.163,10.007 36.944,9.697 36.805,9.326 C36.666,8.956 36.596,8.582 36.593,8.204 L41.357,8.204 Z M36.593,7.569 C36.633,7.187 36.736,6.828 36.901,6.495 C37.066,6.161 37.293,5.89 37.582,5.681 C37.871,5.474 38.222,5.366 38.634,5.36 C39.043,5.365 39.392,5.472 39.681,5.679 C39.969,5.886 40.192,6.156 40.349,6.489 C40.505,6.823 40.59,7.182 40.603,7.569 L36.593,7.569 L36.593,7.569 Z" id="Fill-3155"></path>
            <path d="M42.36,11.095 L43.115,11.095 L43.115,7.484 C43.131,6.865 43.308,6.359 43.646,5.967 C43.983,5.575 44.455,5.372 45.059,5.36 C45.661,5.371 46.076,5.549 46.305,5.895 C46.534,6.241 46.643,6.686 46.632,7.232 L46.632,11.095 L47.387,11.095 L47.387,7.112 C47.401,6.367 47.24,5.784 46.906,5.365 C46.571,4.946 45.975,4.732 45.119,4.725 C44.671,4.73 44.266,4.846 43.904,5.07 C43.542,5.293 43.287,5.594 43.139,5.972 L43.115,5.972 L43.115,4.905 L42.36,4.905 L42.36,11.095" id="Fill-3156"></path>
            <path d="M54.021,8.204 C54.043,7.613 53.964,7.055 53.784,6.529 C53.605,6.003 53.311,5.573 52.903,5.241 C52.495,4.907 51.96,4.736 51.298,4.725 C50.643,4.735 50.11,4.897 49.698,5.212 C49.286,5.526 48.983,5.931 48.79,6.426 C48.596,6.921 48.5,7.446 48.502,8 C48.5,8.596 48.596,9.141 48.79,9.634 C48.983,10.127 49.286,10.521 49.698,10.818 C50.11,11.116 50.643,11.268 51.298,11.276 C52.073,11.271 52.677,11.077 53.111,10.693 C53.545,10.309 53.841,9.763 53.997,9.056 L53.243,9.056 C53.125,9.532 52.909,9.913 52.594,10.2 C52.279,10.487 51.847,10.634 51.298,10.641 C50.815,10.632 50.425,10.503 50.126,10.255 C49.827,10.007 49.608,9.697 49.469,9.326 C49.33,8.956 49.259,8.582 49.257,8.204 L54.021,8.204 Z M49.257,7.569 C49.297,7.187 49.4,6.828 49.565,6.495 C49.73,6.161 49.957,5.89 50.246,5.681 C50.535,5.474 50.885,5.366 51.298,5.36 C51.707,5.365 52.056,5.472 52.344,5.679 C52.633,5.886 52.856,6.156 53.012,6.489 C53.169,6.823 53.254,7.182 53.267,7.569 L49.257,7.569 L49.257,7.569 Z" id="Fill-3157"></path>
            <path d="M55.036,11.095 L55.79,11.095 L55.79,7.796 C55.801,7.137 56.014,6.598 56.429,6.177 C56.845,5.757 57.4,5.557 58.094,5.575 L58.094,4.821 C57.532,4.802 57.051,4.927 56.65,5.197 C56.249,5.467 55.95,5.853 55.754,6.355 L55.73,6.355 L55.73,4.905 L55.036,4.905 L55.036,11.095" id="Fill-3158"></path>
            <path d="M62.784,8.697 C62.771,9.308 62.556,9.783 62.14,10.123 C61.723,10.463 61.218,10.636 60.623,10.641 C60.255,10.637 59.937,10.528 59.667,10.313 C59.397,10.097 59.255,9.799 59.242,9.417 C59.254,9.022 59.408,8.736 59.703,8.559 C60,8.381 60.367,8.259 60.805,8.191 C61.244,8.123 61.683,8.055 62.123,7.988 C62.233,7.972 62.353,7.944 62.482,7.904 C62.611,7.864 62.704,7.8 62.76,7.712 L62.784,7.712 L62.784,8.697 Z M59.506,6.8 C59.527,6.299 59.689,5.933 59.992,5.702 C60.295,5.47 60.686,5.357 61.163,5.36 C61.619,5.349 62,5.433 62.306,5.613 C62.613,5.793 62.771,6.133 62.784,6.632 C62.782,6.962 62.698,7.179 62.531,7.282 C62.365,7.385 62.125,7.449 61.811,7.472 C61.256,7.525 60.727,7.597 60.224,7.688 C59.721,7.778 59.308,7.954 58.987,8.217 C58.665,8.48 58.498,8.896 58.488,9.465 C58.503,10.086 58.706,10.544 59.097,10.838 C59.489,11.132 59.977,11.278 60.563,11.276 C61.144,11.274 61.602,11.164 61.939,10.948 C62.275,10.731 62.569,10.421 62.819,10.017 L62.843,10.017 C62.832,10.345 62.884,10.606 62.999,10.799 C63.114,10.992 63.358,11.091 63.73,11.095 C63.829,11.096 63.916,11.092 63.99,11.085 C64.063,11.078 64.141,11.065 64.222,11.048 L64.222,10.413 C64.191,10.426 64.154,10.436 64.111,10.446 C64.068,10.456 64.025,10.461 63.982,10.461 C63.832,10.46 63.721,10.42 63.648,10.341 C63.574,10.262 63.538,10.15 63.538,10.005 L63.538,6.716 C63.53,6.17 63.414,5.753 63.19,5.464 C62.966,5.175 62.681,4.978 62.336,4.873 C61.99,4.768 61.631,4.719 61.259,4.725 C60.539,4.72 59.953,4.885 59.501,5.218 C59.049,5.551 58.799,6.078 58.752,6.8 L59.506,6.8 L59.506,6.8 Z" id="Fill-3159"></path>
            <polygon id="Fill-3160" points="65.057 11.095 65.811 11.095 65.811 2.529 65.057 2.529"></polygon>
            <path d="M67.269,11.095 L68.023,11.095 L68.023,4.905 L67.269,4.905 L67.269,11.095 Z M67.269,3.74 L68.023,3.74 L68.023,2.529 L67.269,2.529 L67.269,3.74 Z" id="Fill-3161"></path>
            <path d="M70.667,3.045 L69.913,3.045 L69.913,4.905 L68.833,4.905 L68.833,5.539 L69.913,5.539 L69.913,9.777 C69.9,10.297 69.997,10.66 70.202,10.868 C70.407,11.076 70.758,11.176 71.255,11.167 C71.369,11.166 71.481,11.162 71.591,11.155 C71.702,11.149 71.814,11.145 71.927,11.144 L71.927,10.497 C71.711,10.521 71.495,10.533 71.279,10.533 C71.017,10.514 70.848,10.435 70.771,10.296 C70.693,10.157 70.659,9.964 70.667,9.717 L70.667,5.539 L71.927,5.539 L71.927,4.905 L70.667,4.905 L70.667,3.045" id="Fill-3162"></path>
            <path d="M76.968,8.697 C76.955,9.308 76.74,9.783 76.324,10.123 C75.907,10.463 75.402,10.636 74.807,10.641 C74.439,10.637 74.121,10.528 73.851,10.313 C73.581,10.097 73.439,9.799 73.426,9.417 C73.438,9.022 73.592,8.736 73.888,8.559 C74.184,8.381 74.551,8.259 74.989,8.191 C75.428,8.123 75.867,8.055 76.307,7.988 C76.417,7.972 76.537,7.944 76.666,7.904 C76.795,7.864 76.888,7.8 76.944,7.712 L76.968,7.712 L76.968,8.697 Z M73.69,6.8 C73.711,6.299 73.873,5.933 74.176,5.702 C74.479,5.47 74.87,5.357 75.347,5.36 C75.803,5.349 76.184,5.433 76.49,5.613 C76.797,5.793 76.956,6.133 76.968,6.632 C76.966,6.962 76.882,7.179 76.716,7.282 C76.549,7.385 76.309,7.449 75.995,7.472 C75.44,7.525 74.911,7.597 74.408,7.688 C73.905,7.778 73.492,7.954 73.171,8.217 C72.849,8.48 72.682,8.896 72.672,9.465 C72.687,10.086 72.89,10.544 73.281,10.838 C73.673,11.132 74.161,11.278 74.747,11.276 C75.328,11.274 75.786,11.164 76.123,10.948 C76.459,10.731 76.753,10.421 77.004,10.017 L77.028,10.017 C77.016,10.345 77.069,10.606 77.183,10.799 C77.298,10.992 77.542,11.091 77.914,11.095 C78.013,11.096 78.1,11.092 78.174,11.085 C78.247,11.078 78.325,11.065 78.406,11.048 L78.406,10.413 C78.375,10.426 78.338,10.436 78.295,10.446 C78.252,10.456 78.209,10.461 78.166,10.461 C78.017,10.46 77.905,10.42 77.832,10.341 C77.759,10.262 77.722,10.15 77.722,10.005 L77.722,6.716 C77.714,6.17 77.598,5.753 77.374,5.464 C77.15,5.175 76.865,4.978 76.519,4.873 C76.174,4.768 75.815,4.719 75.443,4.725 C74.723,4.72 74.137,4.885 73.685,5.218 C73.233,5.551 72.983,6.078 72.936,6.8 L73.69,6.8 L73.69,6.8 Z" id="Fill-3163"></path>
            <path d="M80.427,3.045 L79.673,3.045 L79.673,4.905 L78.593,4.905 L78.593,5.539 L79.673,5.539 L79.673,9.777 C79.661,10.297 79.757,10.66 79.962,10.868 C80.167,11.076 80.518,11.176 81.015,11.167 C81.129,11.166 81.241,11.162 81.351,11.155 C81.462,11.149 81.574,11.145 81.687,11.144 L81.687,10.497 C81.471,10.521 81.255,10.533 81.039,10.533 C80.778,10.514 80.608,10.435 80.531,10.296 C80.454,10.157 80.419,9.964 80.427,9.717 L80.427,5.539 L81.687,5.539 L81.687,4.905 L80.427,4.905 L80.427,3.045" id="Fill-3164"></path>
            <path d="M86.604,8 C86.602,7.563 86.671,7.145 86.81,6.745 C86.949,6.345 87.168,6.016 87.467,5.759 C87.765,5.501 88.154,5.369 88.633,5.36 C89.166,5.369 89.592,5.501 89.911,5.759 C90.23,6.016 90.459,6.345 90.599,6.745 C90.74,7.145 90.809,7.563 90.805,8 C90.809,8.438 90.74,8.856 90.599,9.256 C90.459,9.655 90.23,9.984 89.911,10.242 C89.592,10.499 89.166,10.632 88.633,10.641 C88.154,10.632 87.765,10.499 87.467,10.242 C87.168,9.984 86.949,9.655 86.81,9.256 C86.671,8.856 86.602,8.438 86.604,8 Z M91.56,2.529 L90.805,2.529 L90.805,6.08 L90.781,6.08 C90.608,5.635 90.325,5.298 89.932,5.07 C89.539,4.841 89.106,4.726 88.633,4.725 C88.005,4.733 87.485,4.886 87.073,5.185 C86.661,5.483 86.354,5.879 86.152,6.372 C85.95,6.865 85.849,7.408 85.85,8 C85.849,8.593 85.95,9.135 86.152,9.628 C86.354,10.121 86.661,10.517 87.073,10.816 C87.485,11.114 88.005,11.267 88.633,11.276 C89.098,11.269 89.538,11.144 89.953,10.9 C90.368,10.655 90.664,10.329 90.841,9.921 L90.865,9.921 L90.865,11.095 L91.56,11.095 L91.56,2.529 L91.56,2.529 Z" id="Fill-3165"></path>
            <path d="M98.205,8.204 C98.227,7.613 98.148,7.055 97.968,6.529 C97.788,6.003 97.494,5.573 97.086,5.241 C96.679,4.907 96.143,4.736 95.482,4.725 C94.827,4.735 94.294,4.897 93.882,5.212 C93.47,5.526 93.167,5.931 92.973,6.426 C92.78,6.921 92.684,7.446 92.686,8 C92.684,8.596 92.78,9.141 92.973,9.634 C93.167,10.127 93.47,10.521 93.882,10.818 C94.294,11.116 94.827,11.268 95.482,11.276 C96.257,11.271 96.861,11.077 97.295,10.693 C97.729,10.309 98.024,9.763 98.181,9.056 L97.426,9.056 C97.309,9.532 97.093,9.913 96.778,10.2 C96.463,10.487 96.031,10.634 95.482,10.641 C94.999,10.632 94.608,10.503 94.309,10.255 C94.01,10.007 93.791,9.697 93.652,9.326 C93.513,8.956 93.443,8.582 93.441,8.204 L98.205,8.204 Z M93.441,7.569 C93.481,7.187 93.584,6.828 93.748,6.495 C93.914,6.161 94.14,5.89 94.43,5.681 C94.719,5.474 95.069,5.366 95.482,5.36 C95.891,5.365 96.24,5.472 96.528,5.679 C96.817,5.886 97.039,6.156 97.196,6.489 C97.353,6.823 97.437,7.182 97.45,7.569 L93.441,7.569 L93.441,7.569 Z" id="Fill-3166"></path>
            <path d="M109.788,5.12 C109.707,4.519 109.498,4.013 109.159,3.602 C108.82,3.19 108.404,2.879 107.909,2.667 C107.414,2.456 106.893,2.35 106.344,2.349 C105.444,2.361 104.695,2.573 104.096,2.986 C103.497,3.4 103.048,3.942 102.749,4.615 C102.45,5.288 102.301,6.02 102.301,6.813 C102.301,7.604 102.45,8.337 102.749,9.01 C103.048,9.683 103.497,10.225 104.096,10.638 C104.695,11.052 105.444,11.264 106.344,11.276 C107.355,11.264 108.171,10.952 108.792,10.342 C109.413,9.731 109.785,8.895 109.907,7.832 L109.093,7.832 C109.009,8.614 108.729,9.263 108.254,9.778 C107.779,10.294 107.142,10.562 106.344,10.581 C105.59,10.569 104.975,10.382 104.499,10.02 C104.023,9.658 103.672,9.192 103.448,8.621 C103.224,8.051 103.113,7.448 103.115,6.813 C103.113,6.176 103.224,5.573 103.448,5.003 C103.672,4.433 104.023,3.967 104.499,3.604 C104.975,3.242 105.59,3.055 106.344,3.043 C106.982,3.048 107.54,3.228 108.019,3.587 C108.497,3.945 108.815,4.456 108.973,5.12 L109.788,5.12" id="Fill-3167"></path>
            <path d="M114.985,8.697 C114.973,9.308 114.758,9.783 114.342,10.123 C113.925,10.463 113.42,10.636 112.825,10.641 C112.458,10.637 112.139,10.528 111.869,10.313 C111.599,10.097 111.457,9.799 111.444,9.417 C111.456,9.022 111.61,8.736 111.906,8.559 C112.202,8.381 112.569,8.259 113.008,8.191 C113.446,8.123 113.885,8.055 114.325,7.988 C114.435,7.972 114.555,7.944 114.684,7.904 C114.813,7.864 114.906,7.8 114.962,7.712 L114.985,7.712 L114.985,8.697 Z M111.708,6.8 C111.729,6.299 111.891,5.933 112.195,5.702 C112.498,5.47 112.888,5.357 113.365,5.36 C113.821,5.349 114.202,5.433 114.509,5.613 C114.815,5.793 114.974,6.133 114.985,6.632 C114.984,6.962 114.9,7.179 114.734,7.282 C114.567,7.385 114.327,7.449 114.013,7.472 C113.458,7.525 112.929,7.597 112.426,7.688 C111.923,7.778 111.51,7.954 111.189,8.217 C110.867,8.48 110.7,8.896 110.69,9.465 C110.705,10.086 110.908,10.544 111.299,10.838 C111.691,11.132 112.179,11.278 112.765,11.276 C113.346,11.274 113.805,11.164 114.141,10.948 C114.477,10.731 114.771,10.421 115.022,10.017 L115.046,10.017 C115.035,10.345 115.086,10.606 115.201,10.799 C115.316,10.992 115.56,11.091 115.932,11.095 C116.031,11.096 116.118,11.092 116.192,11.085 C116.265,11.078 116.343,11.065 116.424,11.048 L116.424,10.413 C116.393,10.426 116.356,10.436 116.313,10.446 C116.27,10.456 116.227,10.461 116.184,10.461 C116.034,10.46 115.923,10.42 115.85,10.341 C115.776,10.262 115.74,10.15 115.74,10.005 L115.74,6.716 C115.732,6.17 115.616,5.753 115.392,5.464 C115.168,5.175 114.883,4.978 114.538,4.873 C114.192,4.768 113.833,4.719 113.461,4.725 C112.741,4.72 112.155,4.885 111.703,5.218 C111.251,5.551 111.001,6.078 110.954,6.8 L111.708,6.8 L111.708,6.8 Z" id="Fill-3168"></path>
            <path d="M118.445,3.045 L117.691,3.045 L117.691,4.905 L116.611,4.905 L116.611,5.539 L117.691,5.539 L117.691,9.777 C117.679,10.297 117.775,10.66 117.98,10.868 C118.185,11.076 118.536,11.176 119.033,11.167 C119.147,11.166 119.259,11.162 119.369,11.155 C119.48,11.149 119.592,11.145 119.705,11.144 L119.705,10.497 C119.49,10.521 119.273,10.533 119.057,10.533 C118.796,10.514 118.626,10.435 118.549,10.296 C118.472,10.157 118.437,9.964 118.445,9.717 L118.445,5.539 L119.705,5.539 L119.705,4.905 L118.445,4.905 L118.445,3.045" id="Fill-3169"></path>
            <path d="M124.746,8.697 C124.733,9.308 124.518,9.783 124.102,10.123 C123.686,10.463 123.18,10.636 122.585,10.641 C122.218,10.637 121.899,10.528 121.629,10.313 C121.359,10.097 121.218,9.799 121.205,9.417 C121.216,9.022 121.37,8.736 121.666,8.559 C121.962,8.381 122.329,8.259 122.768,8.191 C123.206,8.123 123.646,8.055 124.086,7.988 C124.196,7.972 124.315,7.944 124.444,7.904 C124.574,7.864 124.666,7.8 124.722,7.712 L124.746,7.712 L124.746,8.697 Z M121.469,6.8 C121.489,6.299 121.652,5.933 121.955,5.702 C122.258,5.47 122.648,5.357 123.125,5.36 C123.581,5.349 123.963,5.433 124.269,5.613 C124.575,5.793 124.734,6.133 124.746,6.632 C124.744,6.962 124.66,7.179 124.494,7.282 C124.327,7.385 124.087,7.449 123.773,7.472 C123.218,7.525 122.689,7.597 122.186,7.688 C121.683,7.778 121.271,7.954 120.949,8.217 C120.627,8.48 120.461,8.896 120.45,9.465 C120.465,10.086 120.668,10.544 121.06,10.838 C121.451,11.132 121.94,11.278 122.525,11.276 C123.106,11.274 123.565,11.164 123.901,10.948 C124.237,10.731 124.531,10.421 124.782,10.017 L124.806,10.017 C124.795,10.345 124.847,10.606 124.962,10.799 C125.076,10.992 125.32,11.091 125.692,11.095 C125.792,11.096 125.878,11.092 125.952,11.085 C126.026,11.078 126.103,11.065 126.184,11.048 L126.184,10.413 C126.153,10.426 126.116,10.436 126.073,10.446 C126.03,10.456 125.988,10.461 125.944,10.461 C125.795,10.46 125.683,10.42 125.61,10.341 C125.537,10.262 125.5,10.15 125.5,10.005 L125.5,6.716 C125.493,6.17 125.376,5.753 125.152,5.464 C124.928,5.175 124.643,4.978 124.297,4.873 C123.952,4.768 123.593,4.719 123.221,4.725 C122.501,4.72 121.916,4.885 121.463,5.218 C121.011,5.551 120.761,6.078 120.714,6.8 L121.469,6.8 L121.469,6.8 Z" id="Fill-3170"></path>
            <polygon id="Fill-3171" points="127.019 11.095 127.773 11.095 127.773 2.529 127.019 2.529"></polygon>
            <path d="M134.234,4.905 L133.479,4.905 L133.479,8.157 C133.48,8.584 133.415,8.986 133.285,9.361 C133.154,9.736 132.952,10.042 132.677,10.277 C132.402,10.513 132.049,10.634 131.618,10.641 C131.026,10.64 130.604,10.495 130.353,10.208 C130.102,9.92 129.971,9.497 129.962,8.937 L129.962,4.905 L129.207,4.905 L129.207,8.925 C129.2,9.653 129.367,10.225 129.708,10.641 C130.048,11.056 130.605,11.267 131.378,11.276 C131.847,11.274 132.269,11.161 132.645,10.939 C133.02,10.716 133.311,10.397 133.515,9.981 L133.539,9.981 L133.539,11.095 L134.234,11.095 L134.234,4.905" id="Fill-3172"></path>
            <path d="M135.649,11.095 L136.404,11.095 L136.404,7.484 C136.42,6.865 136.598,6.359 136.935,5.967 C137.273,5.575 137.744,5.372 138.349,5.36 C138.95,5.371 139.365,5.549 139.594,5.895 C139.823,6.241 139.933,6.686 139.921,7.232 L139.921,11.095 L140.676,11.095 L140.676,7.112 C140.69,6.367 140.53,5.784 140.195,5.365 C139.86,4.946 139.265,4.732 138.409,4.725 C137.96,4.73 137.555,4.846 137.193,5.07 C136.832,5.293 136.577,5.594 136.428,5.972 L136.404,5.972 L136.404,4.905 L135.649,4.905 L135.649,11.095" id="Fill-3173"></path>
            <path d="M143.879,11.073 L143.615,11.781 C143.502,12.074 143.374,12.308 143.233,12.483 C143.091,12.659 142.859,12.748 142.536,12.753 C142.37,12.751 142.197,12.731 142.02,12.693 L142.02,13.328 C142.077,13.351 142.151,13.365 142.24,13.371 C142.329,13.377 142.448,13.383 142.595,13.388 C143.051,13.397 143.388,13.304 143.605,13.108 C143.822,12.911 144.029,12.557 144.227,12.045 L146.914,4.905 L146.159,4.905 L144.251,10.185 L142.212,4.905 L141.408,4.905 L143.879,11.073" id="Fill-3174"></path>
            <path d="M151.621,8.697 C151.608,9.308 151.394,9.783 150.978,10.123 C150.561,10.463 150.055,10.636 149.46,10.641 C149.093,10.637 148.774,10.528 148.504,10.313 C148.235,10.097 148.093,9.799 148.08,9.417 C148.091,9.022 148.245,8.736 148.541,8.559 C148.837,8.381 149.204,8.259 149.643,8.191 C150.082,8.123 150.521,8.055 150.961,7.988 C151.071,7.972 151.19,7.944 151.319,7.904 C151.449,7.864 151.542,7.8 151.597,7.712 L151.621,7.712 L151.621,8.697 Z M148.344,6.8 C148.365,6.299 148.527,5.933 148.83,5.702 C149.133,5.47 149.523,5.357 150,5.36 C150.457,5.349 150.838,5.433 151.144,5.613 C151.45,5.793 151.609,6.133 151.621,6.632 C151.62,6.962 151.536,7.179 151.369,7.282 C151.203,7.385 150.962,7.449 150.649,7.472 C150.094,7.525 149.565,7.597 149.062,7.688 C148.558,7.778 148.146,7.954 147.824,8.217 C147.502,8.48 147.336,8.896 147.325,9.465 C147.341,10.086 147.544,10.544 147.935,10.838 C148.326,11.132 148.815,11.278 149.4,11.276 C149.981,11.274 150.44,11.164 150.776,10.948 C151.113,10.731 151.406,10.421 151.657,10.017 L151.681,10.017 C151.67,10.345 151.722,10.606 151.837,10.799 C151.952,10.992 152.195,11.091 152.568,11.095 C152.667,11.096 152.753,11.092 152.827,11.085 C152.901,11.078 152.978,11.065 153.06,11.048 L153.06,10.413 C153.029,10.426 152.991,10.436 152.949,10.446 C152.906,10.456 152.863,10.461 152.82,10.461 C152.67,10.46 152.559,10.42 152.485,10.341 C152.412,10.262 152.375,10.15 152.376,10.005 L152.376,6.716 C152.368,6.17 152.252,5.753 152.028,5.464 C151.803,5.175 151.518,4.978 151.173,4.873 C150.827,4.768 150.469,4.719 150.097,4.725 C149.377,4.72 148.791,4.885 148.339,5.218 C147.886,5.551 147.637,6.078 147.589,6.8 L148.344,6.8 L148.344,6.8 Z" id="Fill-3175"></path>
        </g>
    </g>
</svg>