<?xml version="1.0" encoding="UTF-8" standalone="no"?>
<svg width="19px" height="13px" viewBox="0 0 19 13" version="1.1" xmlns="http://www.w3.org/2000/svg" xmlns:xlink="http://www.w3.org/1999/xlink">
    <defs></defs>
    <g id="Page-1" stroke="none" stroke-width="1" fill="none" fill-rule="evenodd">
        <g id="Main-page" transform="translate(-602.000000, -3023.000000)" fill="#F9F9F9">
            <g id="footer" transform="translate(0.000000, 2921.000000)">
                <g id="footer_contacte" transform="translate(601.000000, 44.000000)">
                    <path d="M18.2370718,69.7153063 L2.48372751,69.7153063 C2.1167635,69.7153063 1.81845416,69.4169969 1.81845416,69.0505164 L1.81845416,60.1795603 L10.1909387,64.8379243 C10.2528246,64.8722516 10.3209957,64.889657 10.3896504,64.889657 C10.4578216,64.889657 10.5259928,64.8727351 10.5873952,64.8388912 L18.9018617,60.2515994 L18.9018617,69.0505164 C18.9018617,69.4169969 18.6035523,69.7153063 18.2370718,69.7153063 M2.48372751,58.8185542 L18.2370718,58.8185542 C18.5498857,58.8185542 18.8124172,59.0361217 18.8825223,59.3276623 L10.3906174,64.0126179 L1.85664936,59.264326 C1.94754426,59.0051788 2.19363738,58.8185542 2.48372751,58.8185542 M18.2370718,58.0005 L2.48372751,58.0005 C1.66857426,58.0005 1.00523484,58.6609385 1.0004,59.4741578 L1.0004,59.4814101 L1.0004,59.483344 L1.0004,69.0505164 C1.0004,69.8680871 1.66567336,70.5338439 2.48372751,70.5338439 L18.2370718,70.5338439 C19.055126,70.5338439 19.7203993,69.8680871 19.7203993,69.0505164 L19.7203993,59.483344 C19.7203993,58.6657734 19.055126,58.0005 18.2370718,58.0005" id="mail_icon"></path>
                </g>
            </g>
        </g>
    </g>
</svg>