<svg xmlns="http://www.w3.org/2000/svg" xmlns:xlink="http://www.w3.org/1999/xlink" width="44" height="57" viewBox="0 0 44 57">
    <defs>
        <filter id="a" width="110%" height="110%" x="-5%" y="-3.6%" filterUnits="objectBoundingBox">
            <feOffset dy="2" in="SourceAlpha" result="shadowOffsetOuter1"/>
            <feGaussianBlur in="shadowOffsetOuter1" result="shadowBlurOuter1" stdDeviation="2"/>
            <feColorMatrix in="shadowBlurOuter1" result="shadowMatrixOuter1" values="0 0 0 0 0 0 0 0 0 0 0 0 0 0 0 0 0 0 0.0522248641 0"/>
            <feMerge>
                <feMergeNode in="shadowMatrixOuter1"/>
                <feMergeNode in="SourceGraphic"/>
            </feMerge>
        </filter>
        <path id="b" d="M23.5 2h10.491C35.101 2 36 2.897 36 4.004v42.992C36 48.103 35.11 49 34 49H2c-1.105 0-2-.897-2-2.004V4.004C0 2.897.893 2 2.001 2H13.5"/>
        <rect id="c" width="26" height="34" x="5" y="10" rx="1"/>
        <path id="d" d="M11.251 27.648v-7.011h-1v8l15.6-.011v-.989l-14.6.01z"/>
        <path id="e" d="M11 2.5C11 1.12 12.122 0 13.503 0h8.994A2.495 2.495 0 0 1 25 2.5V4c0 .552-.45 1-1.007 1H12.007A1 1 0 0 1 11 4V2.5z"/>
    </defs>
    <g fill="none" fill-rule="evenodd" filter="url(#a)" transform="translate(-48 -28)">
        <g transform="translate(52 30)">
            <use fill="#B9D5EA" xlink:href="#b"/>
            <path stroke="#354959" d="M23.5 2.5h10.491c.834 0 1.509.673 1.509 1.504v42.992c0 .833-.668 1.504-1.5 1.504H2c-.828 0-1.5-.673-1.5-1.504V4.004c0-.832.67-1.504 1.501-1.504H23.5z"/>
        </g>
        <g transform="translate(52 30)">
            <use fill="#FFF" xlink:href="#c"/>
            <rect width="25" height="33" x="5.5" y="10.5" stroke="#354959" rx="1"/>
        </g>
        <g transform="rotate(-45 80.264 -23.133)">
            <use fill="#B9D5EA" xlink:href="#d"/>
            <path stroke="#0F9E73" d="M25.351 28.137h.5l-.006-.006-.005-.005-.489-.489v.989l.488-.489.006-.006.006-.005h-.5l-15.1.011.5.5v-8l-.5.5h1l-.5-.5v7.511h.5l14.1-.01z"/>
        </g>
        <g transform="translate(52 30)">
            <use fill="#FFF" xlink:href="#e"/>
            <path stroke="#354959" d="M11.5 2.5c0-1.104.897-2 2.003-2h8.994c1.11 0 2.003.89 2.003 2V4c0 .276-.226.5-.507.5H12.007A.5.5 0 0 1 11.5 4V2.5z"/>
        </g>
    </g>
</svg>
