<svg width="32px" height="22px" viewBox="0 0 32 22" version="1.1" xmlns="http://www.w3.org/2000/svg" xmlns:xlink="http://www.w3.org/1999/xlink">
    <g id="ioc-noticies-icon-22x22" stroke="none" stroke-width="1" fill="none" fill-rule="evenodd">
        <path d="M18,3.12132034 L16.5606602,4.56066017 C15.6454749,5.4758454 14.224626,6.08478065 12.2941742,6.47087101 L12.1485293,6.5 L5,6.5 C3.61928813,6.5 2.5,7.61928813 2.5,9 L2.5,11 C2.5,12.3807119 3.61928813,13.5 5,13.5 L12.1846584,13.5 L12.3638034,13.5447862 C13.9629043,13.9445615 15.3698519,14.7485315 16.5606602,15.9393398 L18,17.3786797 L18,3.12132034 Z M19.5,18 C19.5,18.3333333 19.3333333,18.6666667 19,19 C18.5,19.5 17.5,19 17.5,19 L15.5,17 C14.5,16 13.3333333,15.3333333 12,15 L5,15 C2.790861,15 1,13.209139 1,11 L1,9 C1,6.790861 2.790861,5 5,5 L12,5 C13.6666667,4.66666667 14.8333333,4.16666667 15.5,3.5 L17.5,1.5 C18.1666667,1.16666667 18.6666667,1.16666667 19,1.5 C19.3333333,1.83333333 19.5,2.16666667 19.5,2.5 L19.5,18 Z" id="main_shape" fill="white" fill-rule="nonzero"></path>
        <polygon id="line" fill="white" fill-rule="nonzero" points="11.25 5.75 12.75 5.75 12.75 14.25 11.25 14.25"></polygon>
        <path d="M9.5,19.5 C9.22385763,19.5 9,19.7238576 9,20 L9,19.5 L9.5,19.5 Z M9,13.5 L10.5,13.5 L10.5,20 C10.5,20.5522847 10.0522847,21 9.5,21 L7.8198039,21 C7.34312288,21 6.93270807,20.6635403 6.83922323,20.1961161 L5.5,13.5 L7.02970585,13.5 L8.22970585,19.5 L9,19.5 L9,13.5 Z M8.31009424,19.9019419 C8.26335182,19.6682298 8.05814441,19.5 7.8198039,19.5 L8.22970585,19.5 L8.31009424,19.9019419 Z M7.8198039,19.5 C8.05814441,19.5 8.26335182,19.6682298 8.31009424,19.9019419 L8.22970585,19.5 L7.8198039,19.5 Z M9,19.5 L9,13.5 L10.5,13.5 L10.5,20 C10.5,20.5522847 10.0522847,21 9.5,21 L7.8198039,21 C7.34312288,21 6.93270807,20.6635403 6.83922323,20.1961161 L5.5,13.5 L7.02970585,13.5 L8.22970585,19.5 L9,19.5 Z M9.5,19.5 C9.22385763,19.5 9,19.7238576 9,20 L9,19.5 L9.5,19.5 Z" id="handler" fill="white" fill-rule="nonzero"></path>
        <path d="M19,13.25 L19,11.75 C19.9664983,11.75 20.75,10.9664983 20.75,10 C20.75,9.03350169 19.9664983,8.25 19,8.25 L19,6.75 C20.7949254,6.75 22.25,8.20507456 22.25,10 C22.25,11.7949254 20.7949254,13.25 19,13.25 Z" id="oval" fill="white" fill-rule="nonzero"></path>
        <path d="M24.8911949,12.8882164 C24.6590224,13.2312453 24.1927296,13.3211122 23.8497007,13.0889397 C23.5066718,12.8567672 23.4168049,12.3904744 23.6489774,12.0474455 C24.0351659,11.4768618 24.25,10.7708819 24.25,10.0225971 C24.25,9.29060193 24.0444594,8.59892224 23.6734833,8.0344898 C23.4459793,7.68834707 23.542155,7.22331448 23.8882977,6.99581046 C24.2344405,6.76830643 24.699473,6.8644821 24.9269771,7.21062483 C25.4593099,8.0205583 25.75,8.99878077 25.75,10.0225971 C25.75,11.0695092 25.4459982,12.0685087 24.8911949,12.8882164 Z" id="wave_one" fill="white" fill-rule="nonzero"></path>
        <path d="M26.6937033,14.9049977 C26.3716592,15.165498 25.8994135,15.1156069 25.6389132,14.7935628 C25.3784128,14.4715186 25.4283039,13.999273 25.7503481,13.7387726 C26.6523664,13.0091333 27.25,11.5758802 27.25,9.96792383 C27.25,8.31934702 26.6216219,6.85698409 25.6866718,6.14715844 C25.3567655,5.89668949 25.2923687,5.42620238 25.5428377,5.09629605 C25.7933066,4.76638973 26.2637938,4.70199302 26.5937001,4.95246196 C27.9289435,5.96619523 28.75,7.87695976 28.75,9.96792383 C28.75,12.0042766 27.9714328,13.8714469 26.6937033,14.9049977 Z" id="wave_two" fill="white" fill-rule="nonzero"></path>
        <path d="M28.7057866,17.0319703 C28.3981968,17.3093894 27.9239533,17.2849311 27.6465342,16.9773413 C27.3691152,16.6697514 27.3935735,16.1955079 27.7011633,15.9180888 C29.3539679,14.4274042 30.25,12.490523 30.25,9.9990276 C30.25,7.50574074 29.3541374,5.57079382 27.698083,4.07819096 C27.3903996,3.80087567 27.3657813,3.32664049 27.6430966,3.01895704 C27.9204119,2.71127359 28.3946471,2.68665534 28.7023305,2.96397063 C30.668122,4.73573973 31.75,7.07245575 31.75,9.9990276 C31.75,12.92355 30.6681564,15.2620851 28.7057866,17.0319703 Z" id="wave_three" fill="white" fill-rule="nonzero"></path>
    </g>
</svg>