<svg xmlns="http://www.w3.org/2000/svg" width="53" height="53" viewBox="0 0 53 53">
    <defs>
        <filter id="a" width="107.4%" height="107.4%" x="-3.7%" y="-2.6%" filterUnits="objectBoundingBox">
            <feOffset dy="2" in="SourceAlpha" result="shadowOffsetOuter1"/>
            <feGaussianBlur in="shadowOffsetOuter1" result="shadowBlurOuter1" stdDeviation="2"/>
            <feColorMatrix in="shadowBlurOuter1" result="shadowMatrixOuter1" values="0 0 0 0 0 0 0 0 0 0 0 0 0 0 0 0 0 0 0.05 0"/>
            <feMerge>
                <feMergeNode in="shadowMatrixOuter1"/>
                <feMergeNode in="SourceGraphic"/>
            </feMerge>
        </filter>
    </defs>
    <g fill="none" fill-rule="evenodd" filter="url(#a)" transform="translate(-71 -47)">
        <g fill="#FFF">
            <path d="M120 80.969v3.062a.514.514 0 0 1-.36.485l-2.421.703a9.115 9.115 0 0 1-.641 1.515l1.234 2.22c.102.189.061.442-.093.593l-2.157 2.172a.517.517 0 0 1-.609.078l-2.219-1.234a9.048 9.048 0 0 1-1.515.64l-.688 2.438a.518.518 0 0 1-.484.359h-3.078a.515.515 0 0 1-.485-.36l-.703-2.452a9.058 9.058 0 0 1-1.5-.625l-2.234 1.234a.514.514 0 0 1-.594-.078l-2.172-2.172a.511.511 0 0 1-.078-.594l1.234-2.219a9.223 9.223 0 0 1-.625-1.515l-2.437-.703A.514.514 0 0 1 97 84.03V80.97c0-.219.162-.43.375-.485l2.437-.703a9.225 9.225 0 0 1 .625-1.515l-1.234-2.219a.514.514 0 0 1 .078-.594l2.172-2.172a.511.511 0 0 1 .594-.078l2.234 1.235a9.058 9.058 0 0 1 1.5-.625l.703-2.453c.06-.208.27-.36.485-.36h3.078a.515.515 0 0 1 .484.36l.688 2.437a9.046 9.046 0 0 1 1.515.64l2.219-1.234a.517.517 0 0 1 .61.078l2.156 2.172c.154.15.195.405.093.594l-1.234 2.219c.254.482.475.986.64 1.515l2.423.703c.138.075.365.215.359.485zm-7.5 1.531c0-2.203-1.797-4-4-4-2.203 0-4 1.797-4 4 0 2.203 1.797 4 4 4 2.203 0 4-1.797 4-4zM101 61.047v2.906l-2.781.781a.514.514 0 0 0-.344.344c-.215.78-.53 1.53-.922 2.219a.507.507 0 0 0 0 .484l1.406 2.547-2.031 2.031-2.547-1.421a.507.507 0 0 0-.484 0 9.61 9.61 0 0 1-2.203.921.514.514 0 0 0-.344.344L89.953 75h-2.89l-.798-2.797a.514.514 0 0 0-.343-.344 9.607 9.607 0 0 1-2.203-.921.507.507 0 0 0-.5 0l-2.547 1.406-2.016-2.016 1.406-2.547a.507.507 0 0 0 0-.484 9.726 9.726 0 0 1-.922-2.219.514.514 0 0 0-.343-.344L76 63.938v-2.875l2.797-.797a.514.514 0 0 0 .343-.344c.215-.78.53-1.53.922-2.219a.507.507 0 0 0 0-.484l-1.406-2.547 2.016-2.016 2.547 1.407c.15.087.35.087.5 0a9.61 9.61 0 0 1 2.203-.922.514.514 0 0 0 .343-.344L87.062 50h2.891l.797 2.797a.514.514 0 0 0 .344.344c.779.214 1.513.529 2.203.922a.507.507 0 0 0 .484 0l2.547-1.422 2.031 2.03-1.406 2.548a.507.507 0 0 0 0 .484c.393.69.707 1.44.922 2.219a.514.514 0 0 0 .344.344l2.78.781zM93.5 62.5c0-2.756-2.244-5-5-5s-5 2.244-5 5 2.244 5 5 5 5-2.244 5-5z"/>
        </g>
        <path fill="#354959" d="M120 80.969c.006-.27-.22-.41-.36-.485l-2.421-.703a9.117 9.117 0 0 0-.641-1.515l1.234-2.219a.514.514 0 0 0-.093-.594l-2.157-2.172a.517.517 0 0 0-.609-.078l-2.219 1.235a9.046 9.046 0 0 0-1.515-.641l-.688-2.437a.515.515 0 0 0-.484-.36h-3.078a.518.518 0 0 0-.485.36l-.703 2.453a9.058 9.058 0 0 0-1.5.625l-2.234-1.235a.511.511 0 0 0-.594.078l-2.172 2.172a.514.514 0 0 0-.078.594l1.234 2.219c-.252.48-.459.988-.625 1.515l-2.437.703a.516.516 0 0 0-.375.485v3.062c0 .221.162.43.375.485l2.437.703c.166.527.373 1.035.625 1.515l-1.234 2.22a.511.511 0 0 0 .078.593l2.172 2.172a.514.514 0 0 0 .594.078l2.234-1.234c.477.251.977.458 1.5.625l.703 2.453c.06.207.27.36.485.359h3.078a.518.518 0 0 0 .484-.36l.688-2.437a9.048 9.048 0 0 0 1.515-.64l2.219 1.234c.19.111.453.078.61-.078l2.156-2.172a.514.514 0 0 0 .093-.594l-1.234-2.219c.254-.482.475-.986.64-1.515l2.423-.703a.514.514 0 0 0 .359-.485V80.97zm-1 .36v2.343l-2.297.64a.51.51 0 0 0-.344.36 8.015 8.015 0 0 1-.781 1.844.507.507 0 0 0 0 .484l1.172 2.11-1.64 1.64-2.094-1.172a.507.507 0 0 0-.5 0 7.967 7.967 0 0 1-1.844.766.514.514 0 0 0-.344.343L109.672 93h-2.328l-.657-2.313a.514.514 0 0 0-.343-.343 8.088 8.088 0 0 1-1.86-.766.507.507 0 0 0-.484 0l-2.11 1.156-1.624-1.625L101.437 87a.513.513 0 0 0-.015-.484 7.967 7.967 0 0 1-.766-1.844.51.51 0 0 0-.344-.36L98 83.656v-2.312l2.312-.657a.51.51 0 0 0 .344-.359c.18-.652.436-1.265.766-1.844a.513.513 0 0 0 .015-.484l-1.171-2.11 1.625-1.624L104 75.422a.507.507 0 0 0 .484 0 8.084 8.084 0 0 1 1.86-.766.514.514 0 0 0 .343-.344l.657-2.312h2.328l.656 2.312a.514.514 0 0 0 .344.344c.652.18 1.265.436 1.844.766.15.088.35.088.5 0l2.093-1.172 1.64 1.64-1.171 2.11a.507.507 0 0 0 0 .484c.33.578.602 1.192.781 1.844a.51.51 0 0 0 .344.36l2.297.64zm-17-20.641c.006-.276-.207-.424-.36-.485l-2.937-.844a10.51 10.51 0 0 0-.766-1.859l1.485-2.672a.514.514 0 0 0-.094-.594l-2.562-2.562a.511.511 0 0 0-.594-.078l-2.656 1.469a10.63 10.63 0 0 0-1.875-.782l-.829-2.922a.514.514 0 0 0-.484-.359h-3.64a.515.515 0 0 0-.485.36l-.828 2.921c-.656.203-1.28.479-1.875.797l-2.656-1.484a.517.517 0 0 0-.61.078l-2.562 2.562a.511.511 0 0 0-.078.594l1.484 2.672c-.314.59-.58 1.21-.781 1.86l-2.922.843a.514.514 0 0 0-.375.485v3.625c0 .22.162.43.375.484l2.922.844c.201.65.467 1.27.781 1.86l-1.484 2.671a.511.511 0 0 0 .078.594l2.562 2.562c.157.157.42.19.61.078l2.656-1.484a10.69 10.69 0 0 0 1.875.797l.828 2.922c.06.207.268.361.484.36h3.641a.518.518 0 0 0 .484-.36l.829-2.922a10.631 10.631 0 0 0 1.875-.781l2.656 1.468a.511.511 0 0 0 .594-.078l2.562-2.562a.514.514 0 0 0 .094-.594L97.937 67.5c.315-.588.565-1.209.766-1.86l2.938-.843a.515.515 0 0 0 .359-.484v-3.625zm-1 .359v2.906l-2.781.781a.514.514 0 0 0-.344.344c-.215.78-.53 1.53-.922 2.219a.507.507 0 0 0 0 .484l1.406 2.547-2.031 2.031-2.547-1.421a.507.507 0 0 0-.484 0 9.61 9.61 0 0 1-2.203.921.514.514 0 0 0-.344.344L89.953 75h-2.89l-.798-2.797a.514.514 0 0 0-.343-.344 9.607 9.607 0 0 1-2.203-.921.507.507 0 0 0-.5 0l-2.547 1.406-2.016-2.016 1.406-2.547a.507.507 0 0 0 0-.484 9.726 9.726 0 0 1-.922-2.219.514.514 0 0 0-.343-.344L76 63.938v-2.875l2.797-.797a.514.514 0 0 0 .343-.344c.215-.78.53-1.53.922-2.219a.507.507 0 0 0 0-.484l-1.406-2.547 2.016-2.016 2.547 1.407c.15.087.35.087.5 0a9.61 9.61 0 0 1 2.203-.922.514.514 0 0 0 .343-.344L87.062 50h2.891l.797 2.797a.514.514 0 0 0 .344.344c.779.214 1.513.529 2.203.922a.507.507 0 0 0 .484 0l2.547-1.422 2.031 2.03-1.406 2.548a.507.507 0 0 0 0 .484c.393.69.707 1.44.922 2.219a.514.514 0 0 0 .344.344l2.78.781z"/>
        <g stroke="#354959">
            <path d="M93.5 62.5c0-2.756-2.244-5-5-5s-5 2.244-5 5 2.244 5 5 5 5-2.244 5-5zM112.5 82.5c0-2.203-1.797-4-4-4-2.203 0-4 1.797-4 4 0 2.203 1.797 4 4 4 2.203 0 4-1.797 4-4z"/>
        </g>
    </g>
</svg>
