<svg xmlns="http://www.w3.org/2000/svg" xmlns:xlink="http://www.w3.org/1999/xlink" width="59" height="37" viewBox="0 0 59 37">
    <defs>
        <rect id="a" width="5" height="5" rx=".5"/>
        <rect id="b" width="5" height="5" x="7" rx=".5"/>
        <rect id="c" width="5" height="5" x="14" rx=".5"/>
        <rect id="d" width="5" height="5" y="7" rx=".5"/>
        <rect id="e" width="5" height="5" x="7" y="7" rx=".5"/>
        <rect id="f" width="5" height="5" x="14" y="7" rx=".5"/>
        <rect id="g" width="5" height="5" y="14" rx=".5"/>
        <rect id="h" width="5" height="5" x="7" y="14" rx=".5"/>
        <rect id="i" width="5" height="5" x="14" y="14" rx=".5"/>
        <rect id="j" width="5" height="5" y="21" rx=".5"/>
        <rect id="k" width="5" height="5" x="7" y="21" rx=".5"/>
        <rect id="l" width="5" height="5" x="14" y="21" rx=".5"/>
    </defs>
    <g fill="none" fill-rule="evenodd">
        <g stroke="#202A35" stroke-linecap="round">
            <path d="M41.5.5v36M52.5 11.5v25M41.5 11.5h11M17.5 36.5V.5M17.5.5h24M6.5 36.5v-25M6.5 11.5h11M.5 36.5h58"/>
        </g>
        <g fill="#FFF">
            <path d="M42 12h10v24H42zM18 1h23v35H18zM7 12h10v24H7z"/>
        </g>
        <g transform="translate(20 4)">
            <use fill="#AEC8CF" xlink:href="#a"/>
            <rect width="4" height="4" x=".5" y=".5" stroke="#202A35" rx=".5"/>
        </g>
        <g transform="translate(20 4)">
            <use fill="#AEC8CF" xlink:href="#b"/>
            <rect width="4" height="4" x="7.5" y=".5" stroke="#202A35" rx=".5"/>
        </g>
        <g transform="translate(20 4)">
            <use fill="#AEC8CF" xlink:href="#c"/>
            <rect width="4" height="4" x="14.5" y=".5" stroke="#202A35" rx=".5"/>
        </g>
        <g transform="translate(20 4)">
            <use fill="#AEC8CF" xlink:href="#d"/>
            <rect width="4" height="4" x=".5" y="7.5" stroke="#202A35" rx=".5"/>
        </g>
        <g transform="translate(20 4)">
            <use fill="#AEC8CF" xlink:href="#e"/>
            <rect width="4" height="4" x="7.5" y="7.5" stroke="#202A35" rx=".5"/>
        </g>
        <g transform="translate(20 4)">
            <use fill="#AEC8CF" xlink:href="#f"/>
            <rect width="4" height="4" x="14.5" y="7.5" stroke="#202A35" rx=".5"/>
        </g>
        <g transform="translate(20 4)">
            <use fill="#AEC8CF" xlink:href="#g"/>
            <rect width="4" height="4" x=".5" y="14.5" stroke="#202A35" rx=".5"/>
        </g>
        <g transform="translate(20 4)">
            <use fill="#AEC8CF" xlink:href="#h"/>
            <rect width="4" height="4" x="7.5" y="14.5" stroke="#202A35" rx=".5"/>
        </g>
        <g transform="translate(20 4)">
            <use fill="#AEC8CF" xlink:href="#i"/>
            <rect width="4" height="4" x="14.5" y="14.5" stroke="#202A35" rx=".5"/>
        </g>
        <g transform="translate(20 4)">
            <use fill="#AEC8CF" xlink:href="#j"/>
            <rect width="4" height="4" x=".5" y="21.5" stroke="#202A35" rx=".5"/>
        </g>
        <g transform="translate(20 4)">
            <use fill="#AEC8CF" xlink:href="#k"/>
            <rect width="4" height="4" x="7.5" y="21.5" stroke="#202A35" rx=".5"/>
        </g>
        <g transform="translate(20 4)">
            <use fill="#AEC8CF" xlink:href="#l"/>
            <rect width="4" height="4" x="14.5" y="21.5" stroke="#202A35" rx=".5"/>
        </g>
    </g>
</svg>
