<svg xmlns="http://www.w3.org/2000/svg" width="24" height="24" viewBox="0 0 24 24">
    <path fill="#01C1B9" fill-rule="evenodd" d="M11.96 5.627a.423.423 0 0 0-.423.423v5.469H7.428a.423.423 0 0 0 0 .845h4.532c.233 0 .422-.19.422-.423V6.05a.423.423 0 0 0-.422-.423zm10.64-4.32C21.755.465 20.697 0 19.62 0c-.806 0-1.597.258-2.29.745a.421.421 0 0 0-.054.644l5.242 5.263a.42.42 0 0 0 .299.124h.033a.424.424 0 0 0 .31-.174c1.19-1.64.966-3.768-.56-5.295zm.139 4.37l-4.485-4.501c.432-.217.898-.33 1.366-.33.852 0 1.697.376 2.382 1.06 1.09 1.09 1.359 2.55.737 3.771zm-1.294 6.264c0-5.23-4.255-9.485-9.485-9.485-5.23 0-9.485 4.255-9.485 9.485a9.473 9.473 0 0 0 3.691 7.503l-2.982 3.05a.423.423 0 0 0 .302.718c.11 0 .219-.043.302-.127l3.08-3.148a9.42 9.42 0 0 0 5.092 1.49c1.86 0 3.596-.54 5.062-1.47l3.058 3.13a.422.422 0 1 0 .604-.59l-2.96-3.032a9.475 9.475 0 0 0 3.72-7.524zm-4.648 7.155c-.004.004-.01.005-.014.009h-.001a8.584 8.584 0 0 1-4.822 1.476c-4.764 0-8.64-3.875-8.64-8.64 0-4.763 3.875-8.64 8.64-8.64 4.763 0 8.64 3.876 8.64 8.64 0 2.973-1.51 5.6-3.803 7.155zM6.767 1.054a.427.427 0 0 0-.178-.31A3.964 3.964 0 0 0 4.299 0C3.222 0 2.164.464 1.321 1.307-.206 2.833-.431 4.962.76 6.602c.072.1.185.163.309.173l.033.001a.42.42 0 0 0 .299-.124l5.242-5.263a.424.424 0 0 0 .122-.335zM1.18 5.677c-.622-1.22-.353-2.682.737-3.772.684-.684 1.53-1.06 2.381-1.06.469 0 .933.113 1.367.33L1.18 5.677z"/>
</svg>
