<?xml version="1.0" encoding="UTF-8" standalone="no"?>
<svg width="16px" height="15px" viewBox="0 0 16 15" version="1.1" xmlns="http://www.w3.org/2000/svg" xmlns:xlink="http://www.w3.org/1999/xlink">
    <defs></defs>
    <g id="Page-1" stroke="none" stroke-width="1" fill="none" fill-rule="evenodd">
        <g id="Main-page" transform="translate(-605.000000, -3048.000000)" stroke="#F9F9F9">
            <g id="footer" transform="translate(0.000000, 2921.000000)">
                <g id="footer_contacte" transform="translate(601.000000, 44.000000)">
                    <g id="phone_icon" transform="translate(4.000000, 83.000000)">
                        <path d="M0.602080675,2.91213926 C0.602080675,2.12440396 0.964287904,1.56067636 1.60693995,1.16583305 C2.07651772,0.877326011 2.68833776,0.707051819 3.00098851,0.707051819 C3.46646843,0.707051819 4.15300874,1.5847415 5.71339381,4.19105486 C5.69830295,4.16584858 5.6091743,4.35182744 5.29278952,4.79170227 C5.26292316,4.83324138 5.26292316,4.83324138 5.23270163,4.87548522 C4.73092141,5.57837312 4.56064503,5.96477384 4.78731481,6.46113181 C5.40082928,7.80459628 7.06016974,9.46336226 8.502365,10.3586287 C9.07003495,10.7110191 9.54395503,10.5813073 10.1018245,10.1449115 C10.1460543,10.1103126 10.1859505,10.0781984 10.2643162,10.0146711 C10.5974333,9.74533599 10.7328021,9.67886533 10.8728742,9.70616311 C11.1070349,9.75179725 11.3729266,9.84695843 11.6634853,9.98772195 C12.0596391,10.1796418 12.4877471,10.4490422 12.9330421,10.7771115 C13.4444324,11.1538762 13.7506608,11.4173974 14.2805918,11.9001106 C14.749408,12.3271543 14.7151181,12.7999357 14.2409545,13.3918359 C13.8282665,13.9069959 13.1088212,14.3981951 12.7421964,14.4848357 C10.9612027,14.9057195 8.70972853,13.8404684 5.41749695,10.8883722 C2.29323321,8.08689034 0.602080675,5.12419895 0.602080675,2.91213926 Z" id="Path-107"></path>
                    </g>
                </g>
            </g>
        </g>
    </g>
</svg>