<?xml version="1.0" encoding="UTF-8" standalone="no"?>
<svg width="12px" height="19px" viewBox="0 0 12 19" version="1.1" xmlns="http://www.w3.org/2000/svg" xmlns:xlink="http://www.w3.org/1999/xlink">
    <defs></defs>
    <g id="Page-1" stroke="none" stroke-width="1" fill="none" fill-rule="evenodd">
        <g id="Main-page" transform="translate(-606.000000, -3073.000000)" stroke="#F9F9F9">
            <g id="footer" transform="translate(0.000000, 2921.000000)">
                <g id="footer_contacte" transform="translate(601.000000, 44.000000)">
                    <g id="pin_icon" transform="translate(5.000000, 108.000000)">
                        <path d="M10.6180007,8.94747813 L6,17.2077227 L1.3819993,8.94747813 L1.32184799,8.8370767 C0.900370536,8.06349909 0.676470588,7.19556685 0.676470588,6.29411765 C0.676470588,3.35401354 3.05989589,0.970588235 6,0.970588235 C8.94010411,0.970588235 11.3235294,3.35401354 11.3235294,6.29411765 C11.3235294,7.19556685 11.0996295,8.06349909 10.678152,8.8370767 L10.6180007,8.94747813 Z M6,8.73529412 C7.34822454,8.73529412 8.44117647,7.64234218 8.44117647,6.29411765 C8.44117647,4.94589311 7.34822454,3.85294118 6,3.85294118 C4.65177546,3.85294118 3.55882353,4.94589311 3.55882353,6.29411765 C3.55882353,7.64234218 4.65177546,8.73529412 6,8.73529412 Z" id="Oval-21"></path>
                    </g>
                </g>
            </g>
        </g>
    </g>
</svg>