<?xml version="1.0" encoding="UTF-8" standalone="no"?>
<svg width="22px" height="22px" viewBox="0 0 22 22" version="1.1" xmlns="http://www.w3.org/2000/svg" xmlns:xlink="http://www.w3.org/1999/xlink">
    <!-- Generator: Sketch 43.2 (39069) - http://www.bohemiancoding.com/sketch -->
    <title>Shape</title>
    <desc>Created with Sketch.</desc>
    <defs></defs>
    <g id="Page-1" stroke="none" stroke-width="1" fill="none" fill-rule="evenodd">
        <g id="Estudi-desktop" transform="translate(-199.000000, -2236.000000)" fill-rule="nonzero" fill="#284851">
            <g id="informacio_addicional" transform="translate(1.000000, 1360.000000)">
                <g id="banner_2" transform="translate(182.000000, 864.000000)">
                    <path d="M37.4930138,12.0000614 L27.7836756,12.1717232 C27.6544221,12.1748133 27.5314091,12.2279609 27.4405348,12.3199766 L16.1480821,23.6184581 C16.0533212,23.7122673 16,23.8401029 16,23.9734797 C16,24.1068565 16.0533212,24.2346921 16.1480821,24.3285013 L25.6780637,33.8557449 C25.8725247,34.048085 26.1854568,34.048085 26.3799177,33.8557449 L37.6723703,22.5572759 C37.764344,22.4663528 37.8174681,22.3432699 37.8205573,22.2139423 L37.9999388,12.5072441 C38.0020526,12.3720914 37.9493232,12.2418532 37.8537939,12.1462753 C37.7582645,12.0506975 37.6280944,11.9979432 37.4930138,12.0000614 L37.4930138,12.0000614 Z M36.9938998,12.9988211 L36.8223294,22.003254 L26.0289907,32.8023531 L17.2009131,23.9695721 L27.9942518,13.1704829 L36.9938998,12.9988211 Z M33.2661427,14.7388478 C32.7541766,14.7388478 32.2423103,14.9361153 31.8545986,15.3240585 C31.0790754,16.0999525 31.0790754,17.3727818 31.8545986,18.1486758 C32.6300719,18.9245622 33.9022135,18.9245622 34.6776868,18.1486758 C35.453185,17.3727868 35.453185,16.0999674 34.6776868,15.3240585 C34.2899751,14.9361153 33.7781337,14.7388478 33.2661427,14.7388478 Z M33.2661427,15.7298046 C33.520591,15.7298046 33.7710214,15.8292062 33.9680216,16.0263114 C34.3620471,16.4205493 34.3620471,17.0444121 33.9680216,17.43862 C33.5740211,17.8328305 32.9504781,17.8328305 32.5564526,17.43862 C32.162452,17.0444171 32.162452,16.4205144 32.5564526,16.0263114 C32.7534528,15.8292062 33.0117193,15.7298046 33.2661427,15.7298046 Z M27.4327486,18.8431259 C25.5310747,18.8431259 23.9224804,20.1094558 23.3852342,21.8394074 L22.6911663,21.8394074 C22.4157303,21.8394074 22.1920524,22.0630048 22.1920524,22.3387873 C22.1920524,22.6146047 22.4157303,22.8381771 22.6911663,22.8381771 L23.2058776,22.8381771 C23.2008864,22.922048 23.190405,23.0027977 23.190405,23.087867 C23.190405,23.2556337 23.2023838,23.424499 23.2215997,23.5872469 L22.6912911,23.5872469 C22.41588,23.5872469 22.1921772,23.8108442 22.1921772,24.0866267 C22.1921772,24.3624342 22.41588,24.5860066 22.6912911,24.5860066 L23.4711566,24.5860066 C24.0790774,26.1895402 25.6216638,27.3325957 27.4328734,27.3325957 C28.7913617,27.3325957 29.7308439,26.7272475 30.5211408,25.9358802 C30.648692,25.8105147 30.6995216,25.6263997 30.6543884,25.4532307 C30.6092553,25.2800618 30.4750564,25.144302 30.302592,25.0973422 C30.1301276,25.0503825 29.9457529,25.099399 29.8192619,25.225837 C29.1133401,25.9326093 28.5200933,26.333836 27.4327486,26.333836 C26.1745074,26.333836 25.0952733,25.6270887 24.5550574,24.5860066 L27.6745194,24.5860066 C27.9499055,24.5860066 28.1736334,24.3624342 28.1736334,24.0866267 C28.1736334,23.8108442 27.9499055,23.5872469 27.6745194,23.5872469 L24.2274889,23.5872469 C24.2025083,23.424499 24.1885081,23.257806 24.1885081,23.087867 C24.1885081,23.0021734 24.1977417,22.9221728 24.2039806,22.8381771 L27.6743947,22.8381771 C27.9498057,22.8381771 28.1735086,22.6146047 28.1735086,22.3387873 C28.1735086,22.0630048 27.9498057,21.8394074 27.6743947,21.8394074 L24.4380651,21.8394074 C24.926498,20.6650408 26.0774297,19.841888 27.4327486,19.841888 C28.5200933,19.841888 29.1133151,20.2353245 29.8191371,20.9420718 C29.9456281,21.0685098 30.1300028,21.1175263 30.3024672,21.0705666 C30.4749316,21.0236068 30.6091305,20.887847 30.6542636,20.714678 C30.6993968,20.5415091 30.6485672,20.3573941 30.5210161,20.2320286 C29.7306941,19.4406613 28.7912619,18.8431259 27.4327486,18.8431259 L27.4327486,18.8431259 Z" id="Shape"></path>
                </g>
            </g>
        </g>
    </g>
</svg>