<?xml version="1.0" encoding="UTF-8" standalone="no"?>
<svg width="28px" height="35px" viewBox="0 0 28 35" version="1.1" xmlns="http://www.w3.org/2000/svg" xmlns:xlink="http://www.w3.org/1999/xlink">
    <!-- Generator: Sketch 43.2 (39069) - http://www.bohemiancoding.com/sketch -->
    <title>Shape</title>
    <desc>Created with Sketch.</desc>
    <defs></defs>
    <g id="Page-1" stroke="none" stroke-width="1" fill="none" fill-rule="evenodd">
        <g id="Estudi-desktop" transform="translate(-790.000000, -630.000000)" fill-rule="nonzero" fill="#FFFFFF">
            <g id="presentacio" transform="translate(0.000000, 212.000000)">
                <g id="icona_requisits" transform="translate(772.000000, 405.000000)">
                    <path d="M27.2857143,28 C27.2857143,27.5714286 27.5714286,27.2857143 28,27.2857143 L38,27.2857143 C38.4285714,27.2857143 38.7142857,27.5714286 38.7142857,28 C38.7142857,28.4285714 38.4285714,28.7142857 38,28.7142857 L28,28.7142857 C27.5714286,28.7142857 27.2857143,28.4285714 27.2857143,28 Z M25.1428571,28.7142857 C25.5714286,28.7142857 25.8571429,28.4285714 25.8571429,28 C25.8571429,27.5714286 25.5714286,27.2857143 25.1428571,27.2857143 C24.7142857,27.2857143 24.4285714,27.5714286 24.4285714,28 C24.4285714,28.4285714 24.7142857,28.7142857 25.1428571,28.7142857 Z M28,33 L38,33 C38.4285714,33 38.7142857,32.7142857 38.7142857,32.2857143 C38.7142857,31.8571429 38.4285714,31.5714286 38,31.5714286 L28,31.5714286 C27.5714286,31.5714286 27.2857143,31.8571429 27.2857143,32.2857143 C27.2857143,32.7142857 27.5714286,33 28,33 Z M25.1428571,33 C25.5714286,33 25.8571429,32.7142857 25.8571429,32.2857143 C25.8571429,31.8571429 25.5714286,31.5714286 25.1428571,31.5714286 C24.7142857,31.5714286 24.4285714,31.8571429 24.4285714,32.2857143 C24.4285714,32.7142857 24.7142857,33 25.1428571,33 Z M28,37.2857143 L38,37.2857143 C38.4285714,37.2857143 38.7142857,37 38.7142857,36.5714286 C38.7142857,36.1428571 38.4285714,35.8571429 38,35.8571429 L28,35.8571429 C27.5714286,35.8571429 27.2857143,36.1428571 27.2857143,36.5714286 C27.2857143,37 27.5714286,37.2857143 28,37.2857143 Z M25.1428571,37.2857143 C25.5714286,37.2857143 25.8571429,37 25.8571429,36.5714286 C25.8571429,36.1428571 25.5714286,35.8571429 25.1428571,35.8571429 C24.7142857,35.8571429 24.4285714,36.1428571 24.4285714,36.5714286 C24.4285714,37 24.7142857,37.2857143 25.1428571,37.2857143 Z M31.5714286,18.7142857 C32.3571429,18.7142857 33,18.0714286 33,17.2857143 C33,16.5 32.3571429,15.8571429 31.5714286,15.8571429 C30.7857143,15.8571429 30.1428571,16.5 30.1428571,17.2857143 C30.1428571,18.0714286 30.7857143,18.7142857 31.5714286,18.7142857 Z M45.1428571,17.2857143 L45.1428571,47.2857143 C45.1428571,47.7142857 44.8571429,48 44.4285714,48 L18.7142857,48 C18.3221429,48 18,47.6678571 18,47.2857143 L18,17.2857143 C18,16.8571429 18.2857143,16.5714286 18.7142857,16.5714286 L27.2857143,16.5714286 C27.6428571,14.5714286 29.3571429,13 31.5,13 C33.6428571,13 35.3571429,14.5714286 35.7142857,16.5714286 L44.4285714,16.5714286 C44.8571429,16.5714286 45.1428571,16.8571429 45.1428571,17.2857143 Z M25.8571429,18 L25.8571429,20.8571429 L37.2857143,20.8571429 L37.2857143,18 L34.4285714,18 L34.4285714,17.2857143 C34.4285714,15.7142857 33.1428571,14.4285714 31.5714286,14.4285714 C30,14.4285714 28.7142857,15.7142857 28.7142857,17.2857143 L28.7142857,18 L25.8571429,18 Z M22.2857143,22.2857143 L22.2857143,42.2857143 L40.8571429,42.2857143 L40.8571429,22.2857143 L22.2857143,22.2857143 Z M43.7142857,18 L38.7142857,18 L38.7142857,20.8571429 L42.2857143,20.8571429 L42.2857143,43.7142857 L20.8571429,43.7142857 L20.8571429,20.8571429 L24.4285714,20.8571429 L24.4285714,18 L19.4285714,18 L19.4285714,46.5714286 L43.7142857,46.5714286 L43.7142857,18 Z" id="Shape"></path>
                </g>
            </g>
        </g>
    </g>
</svg>