<svg xmlns="http://www.w3.org/2000/svg" xmlns:xlink="http://www.w3.org/1999/xlink" width="44" height="61" viewBox="0 0 44 61">
    <defs>
        <filter id="a" width="110%" height="110%" x="-5%" y="-3.6%" filterUnits="objectBoundingBox">
            <feOffset dy="2" in="SourceAlpha" result="shadowOffsetOuter1"/>
            <feGaussianBlur in="shadowOffsetOuter1" result="shadowBlurOuter1" stdDeviation="2"/>
            <feColorMatrix in="shadowBlurOuter1" result="shadowMatrixOuter1" values="0 0 0 0 0 0 0 0 0 0 0 0 0 0 0 0 0 0 0.0522248641 0"/>
            <feMerge>
                <feMergeNode in="shadowMatrixOuter1"/>
                <feMergeNode in="SourceGraphic"/>
            </feMerge>
        </filter>
        <path id="b" d="M23.5 5h10.491C35.101 5 36 5.897 36 7.004v42.992C36 51.103 35.11 52 34 52H2c-1.105 0-2-.897-2-2.004V7.004C0 5.897.893 5 2.001 5H13.5"/>
        <rect id="c" width="26" height="34" x="5" y="13" rx="1"/>
    </defs>
    <g fill="none" fill-rule="evenodd" filter="url(#a)" transform="translate(4 3)">
        <use fill="#B9D5EA" xlink:href="#b"/>
        <path stroke="#354959" d="M23.5 5.5h10.491c.834 0 1.509.673 1.509 1.504v42.992c0 .833-.668 1.504-1.5 1.504H2c-.828 0-1.5-.673-1.5-1.504V7.004c0-.832.67-1.504 1.501-1.504H23.5z"/>
        <use fill="#FFF" xlink:href="#c"/>
        <rect width="25" height="33" x="5.5" y="13.5" stroke="#354959" rx="1"/>
        <path stroke="#354959" stroke-linecap="round" d="M14.5 24.5h10M14.5 29.5h10M14.5 34.5h10"/>
        <path fill="#B9D5EA" stroke="#354959" d="M24 6a6 6 0 1 0-12 0"/>
        <circle cx="18" cy="6" r="2" fill="#FFF" stroke="#354959"/>
        <path stroke="#354959" stroke-linecap="square" d="M9.5 5.5v8M26.5 5.5v8"/>
    </g>
</svg>
