<?xml version="1.0" encoding="UTF-8" standalone="no"?>
<svg width="21px" height="26px" viewBox="0 0 21 26" version="1.1" xmlns="http://www.w3.org/2000/svg" xmlns:xlink="http://www.w3.org/1999/xlink">
    <!-- Generator: Sketch 43.2 (39069) - http://www.bohemiancoding.com/sketch -->
    <title>Shape</title>
    <desc>Created with Sketch.</desc>
    <defs></defs>
    <g id="Page-1" stroke="none" stroke-width="1" fill="none" fill-rule="evenodd">
        <g id="Estudi-desktop" transform="translate(-199.000000, -2181.000000)" fill-rule="nonzero" fill="#284851">
            <g id="informacio_addicional" transform="translate(1.000000, 1360.000000)">
                <g id="banner_1" transform="translate(181.000000, 811.000000)">
                    <path d="M23.8979592,21.1428571 C23.8979592,20.8244898 24.1102041,20.6122449 24.4285714,20.6122449 L31.8571429,20.6122449 C32.1755102,20.6122449 32.3877551,20.8244898 32.3877551,21.1428571 C32.3877551,21.4612245 32.1755102,21.6734694 31.8571429,21.6734694 L24.4285714,21.6734694 C24.1102041,21.6734694 23.8979592,21.4612245 23.8979592,21.1428571 Z M22.3061224,21.6734694 C22.6244898,21.6734694 22.8367347,21.4612245 22.8367347,21.1428571 C22.8367347,20.8244898 22.6244898,20.6122449 22.3061224,20.6122449 C21.9877551,20.6122449 21.7755102,20.8244898 21.7755102,21.1428571 C21.7755102,21.4612245 21.9877551,21.6734694 22.3061224,21.6734694 Z M24.4285714,24.8571429 L31.8571429,24.8571429 C32.1755102,24.8571429 32.3877551,24.644898 32.3877551,24.3265306 C32.3877551,24.0081633 32.1755102,23.7959184 31.8571429,23.7959184 L24.4285714,23.7959184 C24.1102041,23.7959184 23.8979592,24.0081633 23.8979592,24.3265306 C23.8979592,24.644898 24.1102041,24.8571429 24.4285714,24.8571429 Z M22.3061224,24.8571429 C22.6244898,24.8571429 22.8367347,24.644898 22.8367347,24.3265306 C22.8367347,24.0081633 22.6244898,23.7959184 22.3061224,23.7959184 C21.9877551,23.7959184 21.7755102,24.0081633 21.7755102,24.3265306 C21.7755102,24.644898 21.9877551,24.8571429 22.3061224,24.8571429 Z M24.4285714,28.0408163 L31.8571429,28.0408163 C32.1755102,28.0408163 32.3877551,27.8285714 32.3877551,27.5102041 C32.3877551,27.1918367 32.1755102,26.9795918 31.8571429,26.9795918 L24.4285714,26.9795918 C24.1102041,26.9795918 23.8979592,27.1918367 23.8979592,27.5102041 C23.8979592,27.8285714 24.1102041,28.0408163 24.4285714,28.0408163 Z M22.3061224,28.0408163 C22.6244898,28.0408163 22.8367347,27.8285714 22.8367347,27.5102041 C22.8367347,27.1918367 22.6244898,26.9795918 22.3061224,26.9795918 C21.9877551,26.9795918 21.7755102,27.1918367 21.7755102,27.5102041 C21.7755102,27.8285714 21.9877551,28.0408163 22.3061224,28.0408163 Z M27.0816327,14.244898 C27.6653061,14.244898 28.1428571,13.7673469 28.1428571,13.1836735 C28.1428571,12.6 27.6653061,12.122449 27.0816327,12.122449 C26.4979592,12.122449 26.0204082,12.6 26.0204082,13.1836735 C26.0204082,13.7673469 26.4979592,14.244898 27.0816327,14.244898 Z M37.1632653,13.1836735 L37.1632653,35.4693878 C37.1632653,35.7877551 36.9510204,36 36.6326531,36 L17.5306122,36 C17.2393061,36 17,35.7532653 17,35.4693878 L17,13.1836735 C17,12.8653061 17.2122449,12.6530612 17.5306122,12.6530612 L23.8979592,12.6530612 C24.1632653,11.1673469 25.4367347,10 27.0285714,10 C28.6204082,10 29.8938776,11.1673469 30.1591837,12.6530612 L36.6326531,12.6530612 C36.9510204,12.6530612 37.1632653,12.8653061 37.1632653,13.1836735 Z M22.8367347,13.7142857 L22.8367347,15.8367347 L31.3265306,15.8367347 L31.3265306,13.7142857 L29.2040816,13.7142857 L29.2040816,13.1836735 C29.2040816,12.0163265 28.2489796,11.0612245 27.0816327,11.0612245 C25.9142857,11.0612245 24.9591837,12.0163265 24.9591837,13.1836735 L24.9591837,13.7142857 L22.8367347,13.7142857 Z M20.1836735,16.8979592 L20.1836735,31.755102 L33.9795918,31.755102 L33.9795918,16.8979592 L20.1836735,16.8979592 Z M36.1020408,13.7142857 L32.3877551,13.7142857 L32.3877551,15.8367347 L35.0408163,15.8367347 L35.0408163,32.8163265 L19.122449,32.8163265 L19.122449,15.8367347 L21.7755102,15.8367347 L21.7755102,13.7142857 L18.0612245,13.7142857 L18.0612245,34.9387755 L36.1020408,34.9387755 L36.1020408,13.7142857 Z" id="Shape"></path>
                </g>
            </g>
        </g>
    </g>
</svg>