<?xml version="1.0" encoding="UTF-8" standalone="no"?>
<svg width="17px" height="17px" viewBox="0 0 17 17" version="1.1" xmlns="http://www.w3.org/2000/svg" xmlns:xlink="http://www.w3.org/1999/xlink">
    <!-- Generator: Sketch 43.2 (39069) - http://www.bohemiancoding.com/sketch -->
    <title>search</title>
    <desc>Created with Sketch.</desc>
    <defs></defs>
    <g id="Page-1" stroke="none" stroke-width="1" fill="none" fill-rule="evenodd">
        <g id="Mobile-Portrait" transform="translate(-190.000000, -14.000000)" fill-rule="nonzero" stroke="#FFFFFF" fill="#FFFFFF">
            <g id="hero">
                <g id="search" transform="translate(191.000000, 15.000000)">
                    <path d="M14.7294599,13.4222621 L11.2801541,9.97249353 C13.0813879,7.52992285 12.8699227,4.02493572 10.6766065,1.83177378 C9.49496129,0.650591255 7.92431863,0 6.25388165,0 C4.58329042,0 3.01280201,0.650591255 1.83192799,1.83177378 C0.650591247,3.01326478 0,4.58359895 0,6.25388173 C0,7.92431873 0.650591247,9.49480715 1.83192799,10.6764524 C3.01295625,11.8577891 4.58344466,12.5083804 6.25419012,12.5083804 C7.60627237,12.5083804 8.90205641,12.0769665 9.97372735,11.2812338 L13.4222619,14.7291516 C13.5968636,14.9039074 13.8289972,15 14.0757838,15 C14.3233417,15 14.5559381,14.9032904 14.7285344,14.7299229 C14.9034444,14.5554755 14.9998456,14.3233419 14.9999998,14.0762467 C15.0001539,13.8291516 14.9040614,13.5968637 14.7294599,13.4222621 Z M6.25388165,1.84858612 C7.4304369,1.84858612 8.53665795,2.30683803 9.36894586,3.13912595 C10.1995371,3.96956297 10.6570178,5.07578404 10.6570178,6.25388173 C10.6570178,7.4319794 10.1995371,8.53835472 9.36879162,9.36894598 C8.5368122,10.2010796 7.43059113,10.6593316 6.25388165,10.6593316 C5.07732639,10.6593316 3.97110533,10.2010796 3.13881742,9.36894598 C2.30668377,8.53712078 1.84843184,7.43089971 1.84843184,6.25388173 C1.84843184,5.07732645 2.30668377,3.97110538 3.13881742,3.13912595 C3.97125957,2.30699228 5.07748064,1.84858612 6.25388165,1.84858612 Z"></path>
                </g>
            </g>
        </g>
    </g>
</svg>