<?xml version="1.0" encoding="UTF-8" standalone="no"?>
<svg width="24px" height="24px" viewBox="0 0 24 24" version="1.1" xmlns="http://www.w3.org/2000/svg" xmlns:xlink="http://www.w3.org/1999/xlink">
    <!-- Generator: Sketch 43.2 (39069) - http://www.bohemiancoding.com/sketch -->
    <title>twitter</title>
    <desc>Created with Sketch.</desc>
    <defs>
        <path d="M12,24 C5.372583,24 0,18.627417 0,12 C0,5.372583 5.372583,0 12,0 C18.627417,0 24,5.372583 24,12 C24,18.627417 18.627417,24 12,24 Z M18.4304855,7.23741676 C19.1586227,6.77792078 19.7173318,6.04932177 19.9795418,5.18138485 C19.2977957,5.60790777 18.5444461,5.91636575 17.7406714,6.08335846 C17.0992653,5.36007772 16.1825385,4.90909091 15.1679873,4.90909091 C13.2215819,4.90909091 11.6442875,6.57370031 11.6442875,8.62654132 C11.6442875,8.91798087 11.6735341,9.20197497 11.7340441,9.47320527 C8.80535945,9.31791265 6.20847139,7.83944165 4.46880854,5.58876207 C4.16524999,6.13973185 3.99178792,6.77792078 3.99178792,7.45865558 C3.99178792,8.74779717 4.61403254,9.88590076 5.56000576,10.5538718 C4.98213515,10.5347261 4.43855348,10.3656061 3.96254144,10.0890575 L3.96254144,10.1347945 C3.96254144,11.9366144 5.1767757,13.4395493 6.79138454,13.7799168 C6.49488543,13.8671359 6.18426736,13.9107454 5.86154733,13.9107454 C5.63463475,13.9107454 5.4127647,13.8884088 5.19896266,13.8447992 C5.6467368,15.321143 6.94871059,16.3975549 8.49171592,16.4262734 C7.28454117,17.4239755 5.7647313,18.0174911 4.11381646,18.0174911 C3.82941941,18.0174911 3.54804783,18.0015364 3.27272727,17.966436 C4.83287711,19.0205113 6.68549201,19.6363636 8.67627139,19.6363636 C15.1609278,19.6363636 18.7047976,13.9713734 18.7047976,9.05838243 C18.7047976,8.89670798 18.7027805,8.73609709 18.6957211,8.57761347 C19.3845267,8.05323494 19.9835759,7.39802765 20.4545455,6.6524103 C19.8222158,6.94810448 19.1424867,7.14807033 18.4304855,7.23741676 Z" id="path-1"></path>
    </defs>
    <g id="Page-1" stroke="none" stroke-width="1" fill="none" fill-rule="evenodd">
        <g id="Mobile-Portrait" transform="translate(-192.000000, -3530.000000)">
            <g id="footer" transform="translate(0.000000, 2948.000000)">
                <g id="continguts_footer" transform="translate(15.000000, 62.000000)">
                    <g id="segueix-nos" transform="translate(17.000000, 520.000000)">
                        <g id="social" transform="translate(124.000000, 0.000000)">
                            <g id="twitter" transform="translate(34.000000, 0.000000)">
                                <rect id="Rectangle" x="0" y="0" width="24" height="24"></rect>
                                <g id="Oval" transform="translate(2.000000, 0.000000)">
                                    <g id="path-3-Clipped">
                                        <g>
                                            <mask id="mask-2" fill="white">
                                                <use xlink:href="#path-1"></use>
                                            </mask>
                                            <g id="path-1"></g>
                                            <circle id="path-3" fill="#4BCDAF" fill-rule="nonzero" mask="url(#mask-2)" cx="12" cy="12" r="12"></circle>
                                        </g>
                                    </g>
                                </g>
                            </g>
                        </g>
                    </g>
                </g>
            </g>
        </g>
    </g>
</svg>