<?xml version="1.0" encoding="UTF-8" standalone="no"?>
<svg width="24px" height="24px" viewBox="0 0 24 24" version="1.1" xmlns="http://www.w3.org/2000/svg" xmlns:xlink="http://www.w3.org/1999/xlink">
    <!-- Generator: Sketch 43.2 (39069) - http://www.bohemiancoding.com/sketch -->
    <title>vimeo</title>
    <desc>Created with Sketch.</desc>
    <defs>
        <path d="M12,24 C5.372583,24 0,18.627417 0,12 C0,5.372583 5.372583,0 12,0 C18.627417,0 24,5.372583 24,12 C24,18.627417 18.627417,24 12,24 Z M16.2933566,15.6671552 C18.4427755,12.788167 19.5569327,10.5192955 19.6281309,8.85953716 C19.7272312,6.64284665 18.9315422,5.50690568 17.2468365,5.45773508 C14.9723395,5.38046705 13.4329169,6.70706951 12.62472,9.43553553 C13.0394019,9.25490888 13.4435004,9.16860944 13.835091,9.16860944 C14.6663793,9.16860944 15.0329543,9.65028052 14.9348161,10.6196436 C14.8847848,11.2076837 14.5201341,12.0606429 13.835091,13.1835386 C13.1500479,14.3044274 12.6362657,14.8643701 12.2947063,14.8643701 C11.8540465,14.8643701 11.4518723,13.9993691 11.0843351,12.2653532 C10.9621435,11.7555846 10.7408515,10.4550726 10.426232,8.36281383 C10.1308552,6.42509124 9.34767393,5.51894752 8.0776503,5.64739306 C7.53885229,5.70057758 6.73161758,6.20934267 5.65787029,7.17870575 C4.87372688,7.91726809 4.07899988,8.65783743 3.27272727,9.39539626 L4.04243861,10.4299856 C4.77751296,9.89312302 5.2037406,9.62519351 5.32593229,9.62519351 C5.88782152,9.62519351 6.41314947,10.543379 6.90384052,12.3807535 C7.34450024,14.0605814 7.78323568,15.7454268 8.22485758,17.4302721 C8.88392291,19.2666432 9.69115762,20.1818182 10.6436754,20.1818182 C12.1840603,20.1818182 14.0688908,18.6775995 16.2933566,15.6671552 Z" id="path-1"></path>
    </defs>
    <g id="Page-1" stroke="none" stroke-width="1" fill="none" fill-rule="evenodd">
        <g id="Mobile-Portrait" transform="translate(-228.000000, -3530.000000)">
            <g id="footer" transform="translate(0.000000, 2948.000000)">
                <g id="continguts_footer" transform="translate(15.000000, 62.000000)">
                    <g id="segueix-nos" transform="translate(17.000000, 520.000000)">
                        <g id="social" transform="translate(124.000000, 0.000000)">
                            <g id="vimeo" transform="translate(71.000000, 0.000000)">
                                <rect id="Rectangle" x="0" y="0" width="24" height="24"></rect>
                                <g id="Oval" transform="translate(1.000000, 0.000000)">
                                    <g id="path-21-Clipped">
                                        <g>
                                            <mask id="mask-2" fill="white">
                                                <use xlink:href="#path-1"></use>
                                            </mask>
                                            <g id="path-1"></g>
                                            <circle id="path-21" fill="#F5F5F5" fill-rule="nonzero" mask="url(#mask-2)" cx="12" cy="12" r="12"></circle>
                                        </g>
                                    </g>
                                </g>
                            </g>
                        </g>
                    </g>
                </g>
            </g>
        </g>
    </g>
</svg>